<svg viewBox="0 0 1110 446" xmlns="http://www.w3.org/2000/svg"><g transform="translate(0 2)" fill="none" fill-rule="evenodd"><ellipse fill="#E2EEE1" fill-rule="nonzero" cx="558.636" cy="406.167" rx="545.055" ry="36.04"/><path d="M537.746 11.626c-88.805 0-152.565 56.905-152.565 189.683 0 150.482 63.76 190.315 152.565 190.315 88.804 0 156.363-43.627 156.363-190.315 0-156.805-67.56-189.683-156.363-189.683zm.583 330.048c-61.508 0-93.642-36.04-93.642-140.268 0-91.965 33.45-140.463 94.958-140.463 61.508 0 94.957 31.856 94.957 140.463 0 101.6-34.765 140.268-96.273 140.268z" fill="#2F2E41" fill-rule="nonzero"/><path d="M332.005 286.666h-36.717v-107.99c0-11.944-9.695-21.627-21.654-21.627h-8.603a21.667 21.667 0 0 0-15.311 6.335 21.613 21.613 0 0 0-6.342 15.292v107.99H139.812c-4.334 0-8.35-2.266-10.588-5.973a12.333 12.333 0 0 1-.342-12.14l109.613-207.21a21.603 21.603 0 0 0 1.397-16.943 21.636 21.636 0 0 0-11.296-12.716l-6.47-3.052c-10.436-4.922-22.902-.805-28.343 9.36L60.096 287.775a29.297 29.297 0 0 0-3.468 13.825 29.308 29.308 0 0 0 8.6 20.736 29.38 29.38 0 0 0 20.762 8.59h157.388v68.286a25.907 25.907 0 0 0 7.602 18.33 25.971 25.971 0 0 0 18.353 7.593 25.971 25.971 0 0 0 18.353-7.593 25.907 25.907 0 0 0 7.602-18.33v-68.286h36.717c12.236 0 22.156-9.908 22.156-22.13s-9.92-22.13-22.156-22.13zM1011.9 286.666h-36.718v-107.99c0-11.944-9.694-21.627-21.653-21.627h-8.603a21.667 21.667 0 0 0-15.311 6.335 21.613 21.613 0 0 0-6.343 15.292v107.99H819.707c-4.334 0-8.351-2.266-10.588-5.973a12.333 12.333 0 0 1-.342-12.14L918.39 61.342a21.603 21.603 0 0 0 1.396-16.943 21.636 21.636 0 0 0-11.295-12.716l-6.471-3.052c-10.435-4.922-22.902-.805-28.342 9.36L739.99 287.775a29.297 29.297 0 0 0-3.467 13.825c0 16.196 13.146 29.326 29.361 29.326h157.388v68.286c0 14.317 11.62 25.923 25.955 25.923 14.335 0 25.955-11.606 25.955-25.923v-68.286h36.717c12.237 0 22.157-9.908 22.157-22.13s-9.92-22.13-22.157-22.13z" fill="#2EA52C" fill-rule="nonzero"/><path d="M342.133 274.02h-36.716V166.03a21.613 21.613 0 0 0-6.343-15.292 21.667 21.667 0 0 0-15.31-6.334h-8.604c-11.959 0-21.654 9.683-21.654 21.627v107.99H149.941c-4.334 0-8.35-2.267-10.588-5.974a12.333 12.333 0 0 1-.342-12.14l109.613-207.21a21.603 21.603 0 0 0 1.397-16.942 21.636 21.636 0 0 0-11.296-12.717l-6.471-3.052c-10.435-4.921-22.902-.804-28.342 9.36L70.225 275.13a29.297 29.297 0 0 0-3.468 13.825c0 16.196 13.146 29.326 29.362 29.326h157.387v68.286a25.907 25.907 0 0 0 7.603 18.33 25.971 25.971 0 0 0 18.352 7.593c14.335 0 25.955-11.606 25.955-25.923V318.28h36.717a22.17 22.17 0 0 0 15.667-6.482 22.116 22.116 0 0 0 6.49-15.648c0-5.869-2.334-11.498-6.49-15.648a22.17 22.17 0 0 0-15.667-6.481zM1030.89 274.02h-36.716V166.03c0-11.943-9.695-21.626-21.653-21.626h-8.604a21.667 21.667 0 0 0-15.311 6.334 21.614 21.614 0 0 0-6.342 15.293v107.99H838.698c-4.333 0-8.35-2.267-10.587-5.974a12.333 12.333 0 0 1-.343-12.14l109.613-207.21a21.603 21.603 0 0 0 1.397-16.942 21.636 21.636 0 0 0-11.296-12.717l-6.47-3.052c-10.436-4.921-22.902-.804-28.343 9.36L758.982 275.13a29.297 29.297 0 0 0-3.468 13.825c0 16.196 13.146 29.326 29.362 29.326h157.388v68.286c0 14.317 11.62 25.923 25.955 25.923 14.334 0 25.955-11.606 25.955-25.923V318.28h36.717a22.17 22.17 0 0 0 15.667-6.482 22.116 22.116 0 0 0 6.49-15.648c0-12.221-9.92-22.13-22.157-22.13zM558.003.245C469.2.245 405.438 57.15 405.438 189.928c0 150.482 63.76 190.315 152.565 190.315 88.804 0 156.363-43.627 156.363-190.315C714.366 33.123 646.807.245 558.003.245zm.584 330.048c-61.508 0-93.642-36.04-93.642-140.268 0-91.965 33.45-140.463 94.957-140.463 61.508 0 94.958 31.856 94.958 140.463 0 101.6-34.765 140.268-96.273 140.268z" stroke="#3F3D56"/><path d="M1040.372 272.252a21.522 21.522 0 0 0 23.988-6.58 21.458 21.458 0 0 0 1.723-24.785 21.516 21.516 0 0 0-22.847-9.828l.538 11.055-5.236-9.475a21.408 21.408 0 0 0-11.04 12.098 21.04 21.04 0 0 0-1.237 5.81c-.679 9.571 5.081 18.431 14.111 21.705z" fill="#57B894" fill-rule="nonzero"/><path d="M1066.284 400.474c-1.848-9.402 6.162-17.738 14.074-23.155 7.913-5.418 17.158-10.741 19.858-19.936 3.88-13.214-7.678-25.315-16.673-35.75a129.303 129.303 0 0 1-17.073-25.344c-1.872-3.646-3.592-7.457-4.084-11.524-.71-5.857 1.175-11.686 3.073-17.273a1248.133 1248.133 0 0 1 20.281-55.368" stroke="#3F3D56"/><path d="M1041.258 269.406a21.522 21.522 0 0 0 23.987-6.58 21.458 21.458 0 0 0 1.723-24.786 21.516 21.516 0 0 0-22.846-9.828l.538 11.056-5.237-9.475a21.408 21.408 0 0 0-11.039 12.098 21.04 21.04 0 0 0-1.237 5.81c-.68 9.571 5.08 18.43 14.111 21.705z" stroke="#3F3D56"/><path d="M1063.656 208.306a21.471 21.471 0 0 1 15.478-13.62l1.77 10.51 3.284-11.038c9.352.138 17.542 6.3 20.257 15.239a21.463 21.463 0 0 1-8.365 23.912 21.524 21.524 0 0 1-25.352-.678 21.46 21.46 0 0 1-7.072-24.325z" fill="#57B894" fill-rule="nonzero"/><path d="M1064.837 204.511a21.471 21.471 0 0 1 15.478-13.62l1.77 10.51 3.284-11.038c9.352.138 17.542 6.3 20.257 15.239a21.463 21.463 0 0 1-8.365 23.912 21.524 21.524 0 0 1-25.352-.678 21.46 21.46 0 0 1-7.072-24.325z" stroke="#3F3D56"/><path d="M1079.768 321.845c10.277 3.724 21.715-.847 26.584-10.623 4.87-9.775 1.62-21.644-7.552-27.585l-2.522 8.483-1.789-10.634a21.524 21.524 0 0 0-21.237 3.724 21.463 21.463 0 0 0-7.335 20.197 21.485 21.485 0 0 0 13.851 16.438z" fill="#57B894" fill-rule="nonzero"/><path d="M1080.791 318.001c10.277 3.724 21.715-.847 26.584-10.623 4.87-9.775 1.62-21.644-7.552-27.585l-2.522 8.483-1.789-10.634a21.524 21.524 0 0 0-21.237 3.724 21.463 21.463 0 0 0-7.335 20.197 21.485 21.485 0 0 0 13.851 16.438z" stroke="#3F3D56"/><path d="M1057.38 357.515c1.76 9.997 10.289 17.397 20.446 17.74 10.157.34 19.166-6.47 21.594-16.326 2.429-9.857-2.387-20.065-11.543-24.47-9.156-4.406-20.15-1.804-26.353 6.236l9.581 14.404-13.091-7.645a21.252 21.252 0 0 0-.634 10.06z" fill="#57B894" fill-rule="nonzero"/><path d="M1058.266 354.668c1.759 9.998 10.288 17.398 20.446 17.74 10.157.341 19.165-6.469 21.594-16.326 2.428-9.856-2.387-20.064-11.543-24.47-9.156-4.405-20.15-1.803-26.353 6.237l9.581 14.404-13.091-7.645a21.251 21.251 0 0 0-.634 10.06z" stroke="#3F3D56"/><path d="M9.307 324.574a14.14 14.14 0 0 0 15.76-4.323 14.098 14.098 0 0 0 1.133-16.284 14.136 14.136 0 0 0-15.011-6.457l.353 7.263-3.44-6.225a14.065 14.065 0 0 0-7.253 7.949 14.109 14.109 0 0 0 8.458 18.077z" fill="#57B894" fill-rule="nonzero"/><path d="M26.332 408.818c-1.215-6.177 4.048-11.653 9.247-15.213 5.198-3.56 11.273-7.057 13.046-13.098 2.55-8.681-5.044-16.632-10.954-23.489a84.954 84.954 0 0 1-11.217-16.651 22.902 22.902 0 0 1-2.683-7.571c-.466-3.849.771-7.678 2.018-11.349a820.043 820.043 0 0 1 13.326-36.378" stroke="#3F3D56"/><path d="M9.89 322.704a14.14 14.14 0 0 0 15.76-4.323 14.098 14.098 0 0 0 1.131-16.284 14.136 14.136 0 0 0-15.01-6.457l.353 7.263-3.44-6.225a14.065 14.065 0 0 0-7.253 7.949 14.109 14.109 0 0 0 8.458 18.078z" stroke="#3F3D56"/><path d="M24.605 282.561a14.107 14.107 0 0 1 10.17-8.949l1.163 6.905 2.157-7.252a14.125 14.125 0 0 1 13.31 10.013 14.101 14.101 0 0 1-5.497 15.71 14.141 14.141 0 0 1-16.656-.445 14.1 14.1 0 0 1-4.647-15.982z" fill="#57B894" fill-rule="nonzero"/><path d="M25.38 280.068a14.107 14.107 0 0 1 10.17-8.95l1.164 6.906 2.157-7.252a14.125 14.125 0 0 1 13.31 10.012 14.101 14.101 0 0 1-5.497 15.71 14.141 14.141 0 0 1-16.656-.444 14.1 14.1 0 0 1-4.647-15.982z" stroke="#3F3D56"/><path d="M35.191 357.158c6.752 2.446 14.267-.557 17.466-6.98 3.2-6.422 1.065-14.22-4.962-18.123l-1.657 5.573-1.175-6.987a14.142 14.142 0 0 0-13.955 2.446 14.102 14.102 0 0 0 4.283 24.071z" fill="#57B894" fill-rule="nonzero"/><path d="M35.863 354.633c6.752 2.446 14.267-.557 17.466-6.98 3.2-6.423 1.065-14.22-4.961-18.124l-1.658 5.573-1.175-6.986a.246.246 0 0 0-.036-.014c-7.335-2.658-15.438 1.127-18.1 8.453-2.66 7.327 1.13 15.42 8.464 18.078z" stroke="#3F3D56"/><path d="M20.482 380.594c1.155 6.568 6.76 11.43 13.433 11.655 6.673.224 12.592-4.25 14.188-10.726a14.1 14.1 0 0 0-7.584-16.078 14.133 14.133 0 0 0-17.315 4.098l6.295 9.463-8.601-5.022a13.963 13.963 0 0 0-.416 6.61z" fill="#57B894" fill-rule="nonzero"/><path d="M21.064 378.724c1.155 6.568 6.76 11.43 13.433 11.655 6.673.224 12.592-4.25 14.188-10.726a14.1 14.1 0 0 0-7.584-16.078 14.133 14.133 0 0 0-17.315 4.098l6.295 9.463-8.601-5.022a13.963 13.963 0 0 0-.416 6.61z" stroke="#3F3D56"/><ellipse fill="#2F2E41" fill-rule="nonzero" cx="496.952" cy="168.602" rx="17.566" ry="22.704"/><ellipse fill="#2F2E41" fill-rule="nonzero" cx="592.53" cy="169.118" rx="17.566" ry="22.704"/><path d="M579.098 236.2c0 10.257-14.342 18.576-32.032 18.576-17.69 0-32.032-8.319-32.032-18.577 0-8.886 10.757-16.316 25.13-18.132a51.88 51.88 0 0 1 6.902-.444 52.464 52.464 0 0 1 11.5 1.238c12.007 2.673 20.532 9.433 20.532 17.338z" fill="#2F2E41" fill-rule="nonzero"/><ellipse stroke="#3F3D56" cx="501.085" cy="163.442" rx="17.566" ry="22.704"/><ellipse stroke="#3F3D56" cx="596.663" cy="163.958" rx="17.566" ry="22.704"/><ellipse stroke="#3F3D56" cx="551.199" cy="231.039" rx="32.032" ry="18.576"/><path d="M558.949 220.41a5.092 5.092 0 0 1-1.364 3.5 4.486 4.486 0 0 1-3.286 1.453h-10.333a4.816 4.816 0 0 1-4.65-4.954 5.057 5.057 0 0 1 .848-2.829 48.643 48.643 0 0 1 6.902-.473c3.872-.013 7.732.43 11.5 1.32.255.63.385 1.303.383 1.982z" fill="#FFF" fill-rule="nonzero"/><ellipse fill="#FFF" fill-rule="nonzero" cx="501.085" cy="157.25" rx="5.166" ry="5.16"/><ellipse fill="#FFF" fill-rule="nonzero" cx="597.18" cy="157.25" rx="5.166" ry="5.16"/><ellipse fill="#2EA52C" fill-rule="nonzero" opacity=".3" cx="602.347" cy="205.755" rx="5.166" ry="5.16"/><ellipse fill="#2EA52C" fill-rule="nonzero" opacity=".3" cx="476.286" cy="205.755" rx="5.166" ry="5.16"/></g></svg>
