<svg viewBox="0 0 1110 446" xmlns="http://www.w3.org/2000/svg"><defs><linearGradient x1=".015%" y1="50.011%" x2="100.034%" y2="50.011%" id="a"><stop stop-color="gray" stop-opacity=".25" offset="0%"/><stop stop-color="gray" stop-opacity=".12" offset="54%"/><stop stop-color="gray" stop-opacity=".1" offset="100%"/></linearGradient><linearGradient x1="50.024%" y1="99.989%" x2="50.024%" y2="0%" id="b"><stop stop-color="gray" stop-opacity=".25" offset="0%"/><stop stop-color="gray" stop-opacity=".12" offset="54%"/><stop stop-color="gray" stop-opacity=".1" offset="100%"/></linearGradient><linearGradient x1="50.024%" y1="99.992%" x2="50.024%" y2=".002%" id="c"><stop stop-color="gray" stop-opacity=".25" offset="0%"/><stop stop-color="gray" stop-opacity=".12" offset="54%"/><stop stop-color="gray" stop-opacity=".1" offset="100%"/></linearGradient><linearGradient x1="50%" y1="100.004%" x2="50%" y2="0%" id="d"><stop stop-color="gray" stop-opacity=".25" offset="0%"/><stop stop-color="gray" stop-opacity=".12" offset="54%"/><stop stop-color="gray" stop-opacity=".1" offset="100%"/></linearGradient></defs><g transform="translate(228)" fill="none" fill-rule="evenodd"><path d="M81.898 53.217A15.86 15.86 0 0 0 75.607 36.4c-1.386-.935-2.934-1.648-4.212-2.725-2.133-1.796-3.364-4.44-4.225-7.083-2.113-6.337-2.78-13.454-6.48-19.179C57.326 2.2 50.76.686 44.94.155c-2.12-.189-4.347-.29-6.284.592-3.243 1.466-4.791 5.294-4.939 8.852-.148 3.559.78 7.064 1.01 10.616.228 3.551-.404 7.46-3.022 9.868-2.617 2.408-6.372 2.69-9.85 3.175a65.236 65.236 0 0 0-13.35 3.317C4.879 37.92.835 40.28.667 44.129c-.141 3.148 2.402 5.664 4.313 8.173 3.573 4.71 5.383 10.871 4.145 16.636C7.886 74.703 3.74 79.843 3.02 85.79a7.318 7.318 0 0 0 .599 4.454 8.147 8.147 0 0 0 2.247 2.388c2.24 1.729 4.71 3.121 6.863 4.998 4.42 3.915 6.816 9.6 8.66 15.21.175.538.336 1.09.504 1.628h-4.346c-8.843.047-16.002 7.196-16.061 16.037.04 8.859 7.213 16.03 16.074 16.07H60.96c8.86-.04 16.034-7.211 16.074-16.07-.04-8.86-7.213-16.03-16.074-16.071H49.063c2.813-3.767 5.753-7.306 10.093-8.745 4.34-1.44 9.595-.599 13-3.626a10.19 10.19 0 0 0 2.953-5.846 17.4 17.4 0 0 0-1.904-11.557c-1.346-2.442-3.364-4.655-3.802-7.4-.37-2.36.485-4.755 1.642-6.854 3.284-5.967 9.09-10.602 10.853-17.188z" opacity=".7" transform="translate(42.389 273.789)" fill="url(#a)" fill-rule="nonzero"/><path d="M87.173 277.435c-2.018-.182-4.138-.276-5.981.565-3.089 1.4-4.562 5.045-4.71 8.429-.148 3.384.747 6.727.962 10.09.215 3.364-.384 7.104-2.88 9.418-2.496 2.314-6.055 2.563-9.38 3.02a62.127 62.127 0 0 0-12.71 3.176c-3.45 1.258-7.3 3.525-7.461 7.198-.135 3 2.288 5.381 4.111 7.783 3.405 4.466 5.1 10.353 3.943 15.842-1.157 5.49-5.1 10.386-5.813 16.05a6.968 6.968 0 0 0 .571 4.238 7.757 7.757 0 0 0 2.147 2.274c2.133 1.648 4.515 2.974 6.533 4.763 4.212 3.727 6.486 9.142 8.25 14.483a117.265 117.265 0 0 1 4.036 16.057c3.627-2.334 8.316-2.3 12.185-4.197 8.243-4.036 11.015-15.741 19.714-18.654 4.118-1.346 9.138-.572 12.38-3.451a9.7 9.7 0 0 0 2.813-5.563 16.572 16.572 0 0 0-1.817-11.006c-1.298-2.327-3.209-4.433-3.62-7.07-.356-2.253.465-4.527 1.562-6.525 3.128-5.684 8.659-10.09 10.348-16.367a15.107 15.107 0 0 0-5.988-16.017 44.644 44.644 0 0 1-4.037-2.596c-2.019-1.709-3.183-4.232-4.037-6.727-2.019-6.055-2.645-12.782-6.17-18.264-3.163-5.005-9.407-6.451-14.95-6.95z" fill="#4DB6AC" fill-rule="nonzero"/><path d="M87.113 277.643s7.65 102.527-12.246 120.124" stroke="#535461" opacity=".6"/><rect fill="#2EA52C" fill-rule="nonzero" x="45.787" y="386.291" width="71.94" height="30.608" rx="15.2"/><path d="M45.026 317.427s19.567-2.28 43.46 12.25M88.102 341.913s10.873-17.981 34.22-21.419M46.91 359.128s27.123-4.595 39.584 3.06M84.973 372.676s14.197-6.438 30.17-1.211" stroke="#535461" opacity=".6"/><path d="M55.503 11.557V.525H.33v51.004c0 5.944 4.82 10.763 10.765 10.763h33.642c5.946 0 10.766-4.819 10.766-10.763V40.227A14.333 14.333 0 1 0 67.92 18.724a14.339 14.339 0 0 0-12.417-7.167zm0 23.161V17.073A8.828 8.828 0 0 1 63.35 30.38a8.828 8.828 0 0 1-7.847 4.339z" opacity=".7" transform="translate(547.019 355.186)" fill="url(#b)" fill-rule="nonzero"/><path d="M600.751 368.465c-7.23 0-13.093 5.86-13.093 13.09 0 7.23 5.862 13.091 13.093 13.091 7.232 0 13.094-5.86 13.094-13.09a13.09 13.09 0 0 0-13.094-13.091zm0 21.143a8.073 8.073 0 1 1 0-16.145 8.073 8.073 0 0 1 8.075 8.072 8.072 8.072 0 0 1-8.075 8.08v-.007z" fill="#2EA52C" fill-rule="nonzero"/><path d="M600.751 368.465c-7.23 0-13.093 5.86-13.093 13.09 0 7.23 5.862 13.091 13.093 13.091 7.232 0 13.094-5.86 13.094-13.09a13.09 13.09 0 0 0-13.094-13.091zm0 21.143a8.073 8.073 0 1 1 0-16.145 8.073 8.073 0 0 1 8.075 8.072 8.072 8.072 0 0 1-8.075 8.08v-.007z" fill="#000" fill-rule="nonzero" opacity=".1"/><path d="M550.383 358.401h50.355v49.827a6.56 6.56 0 0 1-6.56 6.559h-37.222a6.56 6.56 0 0 1-6.56-6.56v-49.826h-.013z" fill="#2EA52C" fill-rule="nonzero"/><path fill="#E0E0E0" fill-rule="nonzero" d="M0 414.787h653.623v22.152H0z"/><path d="M221.344 266.564c-7.004-25.421-46.722-43.988-76.603-48.105v-22.32h.094v-.854a74.636 74.636 0 0 0 45.08-47.244 80.635 80.635 0 0 0 4.811-10.373c3.19-1.164 5.599-6.418 5.599-12.74a22.242 22.242 0 0 0-.902-6.392c.392-3.218.592-6.457.599-9.7A80.838 80.838 0 0 0 173.31 48.71c.251-1.302.337-2.631.256-3.955-.673-10.447-11.836-17.544-22.291-18.015a22.061 22.061 0 0 0 3.72-23.303c-6.668 9.714-20.36 10.764-32.141 10.824 5.086-1.97 7.401-9.014 4.414-13.595-12.313 16.501-36.334 19.562-50.975 34.032a42.96 42.96 0 0 0-7.926 10.81 80.88 80.88 0 0 0-30.493 63.321c.006 3.213.202 6.423.586 9.613a22.195 22.195 0 0 0-.929 6.478c0 6.35 2.429 11.625 5.645 12.782a80.635 80.635 0 0 0 4.831 10.406 74.623 74.623 0 0 0 44.77 47.09v23.261c-29.994 4.036-70.028 22.758-76.972 48.38C9.81 288.973 3.411 313.257.222 327.545c27.297 19.179 84.57 30.433 120.438 30.433 34.107 0 89.845-10.164 116.341-27.62-2.799-15.715-9.4-41.096-15.657-63.793z" opacity=".7" transform="translate(208.58)" fill="url(#c)" fill-rule="nonzero"/><path d="M329.24 351.634c32.902 0 86.669-9.802 112.23-26.646-2.765-15.122-9.137-39.602-15.172-61.505-7.684-27.897-56.203-47.237-85.141-47.237h-27.89c-29.033 0-77.612 19.448-85.201 47.466-5.787 21.351-11.957 44.795-15.032 58.558 26.308 18.506 81.582 29.364 116.207 29.364z" fill="#2EA52C" fill-rule="nonzero"/><ellipse fill="#72351C" fill-rule="nonzero" cx="327.545" cy="111.332" rx="78.211" ry="78.195"/><path d="M302.3 176.456h50.113v40.08c0 13.835-11.218 25.05-25.056 25.05-13.839 0-25.057-11.215-25.057-25.05v-40.08z" fill="#000" fill-rule="nonzero" opacity=".1"/><path d="M309.506 174.6h35.735a7.185 7.185 0 0 1 7.186 7.184v32.895c0 13.835-11.219 25.051-25.057 25.051s-25.056-11.216-25.056-25.051v-32.895a7.184 7.184 0 0 1 7.192-7.185z" fill="#FDA57D" fill-rule="nonzero"/><path d="M302.394 195.372a72.136 72.136 0 0 0 50.113.141v-6.155h-50.113v6.014z" fill="#000" fill-rule="nonzero" opacity=".1"/><ellipse fill="#FDA57D" fill-rule="nonzero" cx="327.545" cy="126.918" rx="71.826" ry="71.811"/><path d="M276.349 61.592s30.277 61.431 115.66 25.745l-19.848-31.16-35.257-12.647-60.555 18.062z" fill="#000" fill-rule="nonzero" opacity=".1"/><path d="M276.349 60.691s30.277 61.43 115.66 25.744L372.162 55.27l-35.257-12.647-60.555 18.069z" fill="#72351C" fill-rule="nonzero"/><path d="M276.113 56.54a41.484 41.484 0 0 1 10.288-16.723c14.13-13.965 37.289-16.912 49.171-32.834 2.853 4.42.673 11.214-4.26 13.11 11.365-.073 24.573-1.069 31.005-10.44a21.28 21.28 0 0 1-3.593 22.475c10.093.458 20.858 7.306 21.531 17.376.438 6.727-3.774 13.07-9.292 16.918-5.517 3.848-12.192 5.617-18.765 7.064-19.203 4.238-88.633 21.957-76.085-16.946zM399.37 127.544h-1.91l-37.047 32.962c-35.66-16.716-61.901 0-61.901 0l-38.857-31.617-3.915.491c1.073 39.241 33.463 70.348 72.724 69.843 39.26-.506 70.838-32.437 70.9-71.693l.007.014zm-71.94 45.622c-13.974 0-25.298-2.832-25.298-6.323 0-3.491 11.33-6.323 25.299-6.323 13.968 0 25.298 2.832 25.298 6.323 0 3.491-11.324 6.323-25.298 6.323z" fill="#72351C" fill-rule="nonzero"/><ellipse fill="#FDA57D" fill-rule="nonzero" cx="255.686" cy="126.851" rx="6.681" ry="12.526"/><ellipse fill="#FDA57D" fill-rule="nonzero" cx="399.364" cy="126.851" rx="6.681" ry="12.526"/><rect x=".108" y=".471" width="277.963" height="160.029" rx="14.5" opacity=".7" transform="translate(187.722 254.28)" fill="url(#d)" fill-rule="nonzero"/><rect fill="#535461" fill-rule="nonzero" x="192.863" y="257.705" width="267.898" height="157.075" rx="26.84"/><ellipse fill="#FFF" fill-rule="nonzero" cx="326.812" cy="336.249" rx="9.063" ry="9.061"/><path fill="#E0E0E0" fill-rule="nonzero" d="M27.694 436.939h598.228V446H27.694z"/><path fill="#000" fill-rule="nonzero" opacity=".1" d="M27.694 436.939h598.228v3.02H27.694zM591.688 358.401v46.564c0 5.42-4.395 9.815-9.816 9.815h5.032c5.422 0 9.817-4.394 9.817-9.815v-46.564h-5.033z"/><path d="M560.327 320.878c-.847.148-1.81.377-2.227 1.13-.673 1.197.538 2.55 1.628 3.363 2.019 1.52 4.145 3.014 5.518 5.133 1.372 2.12 1.803 5.079.303 7.117-1.958 2.657-6.628 3.223-7.079 6.492-.29 2.099 1.52 3.888 3.364 4.937 4.535 2.597 10.382 3.29 13.673 7.353 1.345-2.792 4.4-4.406 7.4-5.099 3.002-.693 6.177-.639 9.252-1.103.99-.148 2.106-.45 2.55-1.346.862-1.742-1.588-3.834-.746-5.583.672-1.345 2.53-1.231 3.909-1.762 2.247-.868 3.169-3.76 2.536-6.055-.632-2.294-2.435-4.137-4.333-5.624-5.1-4.036-11.236-6.363-17.446-8.072-2.887-.787-6.278-2.018-9.272-2.146-2.86-.141-6.163.76-9.03 1.265z" fill="#EEE" fill-rule="nonzero"/></g></svg>
