<svg viewBox="0 0 1110 446" xmlns="http://www.w3.org/2000/svg"><defs><linearGradient x1="48.444%" y1="51.333%" x2="48.444%" y2="45.333%" id="a"><stop stop-color="gray" stop-opacity=".25" offset="0%"/><stop stop-color="gray" stop-opacity=".12" offset="54%"/><stop stop-color="gray" stop-opacity=".1" offset="100%"/></linearGradient><linearGradient x1="50.082%" y1="99.916%" x2="50.082%" y2="-.034%" id="b"><stop stop-color="gray" stop-opacity=".25" offset="0%"/><stop stop-color="gray" stop-opacity=".12" offset="54%"/><stop stop-color="gray" stop-opacity=".1" offset="100%"/></linearGradient><linearGradient x1="50.012%" y1="100%" x2="50.012%" y2=".099%" id="c"><stop stop-color="gray" stop-opacity=".25" offset="0%"/><stop stop-color="gray" stop-opacity=".12" offset="54%"/><stop stop-color="gray" stop-opacity=".1" offset="100%"/></linearGradient><linearGradient x1="50.063%" y1="100%" x2="50.063%" y2="-.038%" id="d"><stop stop-color="gray" stop-opacity=".25" offset="0%"/><stop stop-color="gray" stop-opacity=".12" offset="54%"/><stop stop-color="gray" stop-opacity=".1" offset="100%"/></linearGradient><linearGradient x1="50.013%" y1="100%" x2="50.013%" y2="-.093%" id="e"><stop stop-color="gray" stop-opacity=".25" offset="0%"/><stop stop-color="gray" stop-opacity=".12" offset="54%"/><stop stop-color="gray" stop-opacity=".1" offset="100%"/></linearGradient><linearGradient x1="50%" y1="100%" x2="50%" y2=".05%" id="f"><stop stop-color="gray" stop-opacity=".25" offset="0%"/><stop stop-color="gray" stop-opacity=".12" offset="54%"/><stop stop-color="gray" stop-opacity=".1" offset="100%"/></linearGradient><linearGradient x1="50%" y1="100%" x2="50%" y2="-.045%" id="g"><stop stop-color="gray" stop-opacity=".25" offset="0%"/><stop stop-color="gray" stop-opacity=".12" offset="54%"/><stop stop-color="gray" stop-opacity=".1" offset="100%"/></linearGradient><linearGradient x1="50.022%" y1="100%" x2="50.022%" y2="0%" id="h"><stop stop-color="gray" stop-opacity=".25" offset="0%"/><stop stop-color="gray" stop-opacity=".12" offset="54%"/><stop stop-color="gray" stop-opacity=".1" offset="100%"/></linearGradient><linearGradient x1="49.989%" y1="100%" x2="49.989%" y2="-.07%" id="i"><stop stop-color="gray" stop-opacity=".25" offset="0%"/><stop stop-color="gray" stop-opacity=".12" offset="54%"/><stop stop-color="gray" stop-opacity=".1" offset="100%"/></linearGradient><linearGradient x1="50.025%" y1="100%" x2="50.025%" y2="-.042%" id="j"><stop stop-color="gray" stop-opacity=".25" offset="0%"/><stop stop-color="gray" stop-opacity=".12" offset="54%"/><stop stop-color="gray" stop-opacity=".1" offset="100%"/></linearGradient><linearGradient x1="49.979%" y1="100%" x2="49.979%" y2=".036%" id="k"><stop stop-color="gray" stop-opacity=".25" offset="0%"/><stop stop-color="gray" stop-opacity=".12" offset="54%"/><stop stop-color="gray" stop-opacity=".1" offset="100%"/></linearGradient><linearGradient x1="50%" y1="100%" x2="50%" y2="0%" id="l"><stop stop-color="gray" stop-opacity=".25" offset="0%"/><stop stop-color="gray" stop-opacity=".12" offset="54%"/><stop stop-color="gray" stop-opacity=".1" offset="100%"/></linearGradient><linearGradient x1="50%" y1="100%" x2="50%" y2="-.065%" id="m"><stop stop-color="gray" stop-opacity=".25" offset="0%"/><stop stop-color="gray" stop-opacity=".12" offset="54%"/><stop stop-color="gray" stop-opacity=".1" offset="100%"/></linearGradient><linearGradient x1="49.989%" y1="100.089%" x2="49.989%" y2=".017%" id="n"><stop stop-color="gray" stop-opacity=".25" offset="0%"/><stop stop-color="gray" stop-opacity=".12" offset="54%"/><stop stop-color="gray" stop-opacity=".1" offset="100%"/></linearGradient><linearGradient x1="49.626%" y1="100%" x2="49.626%" y2="0%" id="o"><stop stop-color="gray" stop-opacity=".25" offset="0%"/><stop stop-color="gray" stop-opacity=".12" offset="54%"/><stop stop-color="gray" stop-opacity=".1" offset="100%"/></linearGradient><linearGradient x1="49.999%" y1="99.941%" x2="49.999%" y2="0%" id="p"><stop stop-color="gray" stop-opacity=".25" offset="0%"/><stop stop-color="gray" stop-opacity=".12" offset="54%"/><stop stop-color="gray" stop-opacity=".1" offset="100%"/></linearGradient><linearGradient x1="50%" y1="100%" x2="50%" y2="0%" id="q"><stop stop-color="gray" stop-opacity=".25" offset="0%"/><stop stop-color="gray" stop-opacity=".12" offset="54%"/><stop stop-color="gray" stop-opacity=".1" offset="100%"/></linearGradient><linearGradient x1="50.103%" y1="99.865%" x2="50.103%" y2="-.034%" id="r"><stop stop-color="gray" stop-opacity=".25" offset="0%"/><stop stop-color="gray" stop-opacity=".12" offset="54%"/><stop stop-color="gray" stop-opacity=".1" offset="100%"/></linearGradient><linearGradient x1="49.997%" y1="100.004%" x2="49.997%" y2="0%" id="s"><stop stop-color="gray" stop-opacity=".25" offset="0%"/><stop stop-color="gray" stop-opacity=".12" offset="54%"/><stop stop-color="gray" stop-opacity=".1" offset="100%"/></linearGradient><linearGradient x1="50%" y1="99.987%" x2="50%" y2="-.013%" id="t"><stop stop-color="gray" stop-opacity=".25" offset="0%"/><stop stop-color="gray" stop-opacity=".12" offset="54%"/><stop stop-color="gray" stop-opacity=".1" offset="100%"/></linearGradient><linearGradient x1="50%" y1="100.013%" x2="50%" y2="0%" id="u"><stop stop-color="gray" stop-opacity=".25" offset="0%"/><stop stop-color="gray" stop-opacity=".12" offset="54%"/><stop stop-color="gray" stop-opacity=".1" offset="100%"/></linearGradient><linearGradient x1="50.011%" y1="100.02%" x2="50.011%" y2=".022%" id="v"><stop stop-color="gray" stop-opacity=".25" offset="0%"/><stop stop-color="gray" stop-opacity=".12" offset="54%"/><stop stop-color="gray" stop-opacity=".1" offset="100%"/></linearGradient><linearGradient x1="49.995%" y1="100.007%" x2="49.995%" y2="-.017%" id="w"><stop stop-color="gray" stop-opacity=".25" offset="0%"/><stop stop-color="gray" stop-opacity=".12" offset="54%"/><stop stop-color="gray" stop-opacity=".1" offset="100%"/></linearGradient><linearGradient x1="49.992%" y1="100.002%" x2="49.992%" y2="-.049%" id="x"><stop stop-color="gray" stop-opacity=".25" offset="0%"/><stop stop-color="gray" stop-opacity=".12" offset="54%"/><stop stop-color="gray" stop-opacity=".1" offset="100%"/></linearGradient><linearGradient x1="50%" y1="100%" x2="50%" y2="0%" id="y"><stop stop-color="gray" stop-opacity=".25" offset="0%"/><stop stop-color="gray" stop-opacity=".12" offset="54%"/><stop stop-color="gray" stop-opacity=".1" offset="100%"/></linearGradient><linearGradient x1="49.995%" y1="100.009%" x2="49.995%" y2="0%" id="z"><stop stop-color="gray" stop-opacity=".25" offset="0%"/><stop stop-color="gray" stop-opacity=".12" offset="54%"/><stop stop-color="gray" stop-opacity=".1" offset="100%"/></linearGradient><linearGradient x1="49.984%" y1="100.003%" x2="49.984%" y2="0%" id="A"><stop stop-color="gray" stop-opacity=".25" offset="0%"/><stop stop-color="gray" stop-opacity=".12" offset="54%"/><stop stop-color="gray" stop-opacity=".1" offset="100%"/></linearGradient><linearGradient x1="49.984%" y1="100.003%" x2="49.984%" y2="0%" id="B"><stop stop-color="gray" stop-opacity=".25" offset="0%"/><stop stop-color="gray" stop-opacity=".12" offset="54%"/><stop stop-color="gray" stop-opacity=".1" offset="100%"/></linearGradient><linearGradient x1="50%" y1="100.083%" x2="50%" y2=".083%" id="C"><stop stop-color="gray" stop-opacity=".25" offset="0%"/><stop stop-color="gray" stop-opacity=".12" offset="54%"/><stop stop-color="gray" stop-opacity=".1" offset="100%"/></linearGradient><linearGradient x1="49.998%" y1="100%" x2="49.998%" y2="0%" id="D"><stop stop-color="gray" stop-opacity=".25" offset="0%"/><stop stop-color="gray" stop-opacity=".12" offset="54%"/><stop stop-color="gray" stop-opacity=".1" offset="100%"/></linearGradient><linearGradient x1="49.978%" y1="100.001%" x2="49.978%" y2="-.001%" id="E"><stop stop-color="gray" stop-opacity=".25" offset="0%"/><stop stop-color="gray" stop-opacity=".12" offset="54%"/><stop stop-color="gray" stop-opacity=".1" offset="100%"/></linearGradient><linearGradient x1="50%" y1="99.974%" x2="50%" y2="0%" id="F"><stop stop-color="gray" stop-opacity=".25" offset="0%"/><stop stop-color="gray" stop-opacity=".12" offset="54%"/><stop stop-color="gray" stop-opacity=".1" offset="100%"/></linearGradient><linearGradient x1="50%" y1="100%" x2="50%" y2="0%" id="G"><stop stop-color="gray" stop-opacity=".25" offset="0%"/><stop stop-color="gray" stop-opacity=".12" offset="54%"/><stop stop-color="gray" stop-opacity=".1" offset="100%"/></linearGradient><linearGradient x1="50.013%" y1="100.007%" x2="50.013%" y2="-.002%" id="H"><stop stop-color="gray" stop-opacity=".25" offset="0%"/><stop stop-color="gray" stop-opacity=".12" offset="54%"/><stop stop-color="gray" stop-opacity=".1" offset="100%"/></linearGradient><linearGradient x1="50%" y1="100%" x2="50%" y2="-.001%" id="I"><stop stop-color="gray" stop-opacity=".25" offset="0%"/><stop stop-color="gray" stop-opacity=".12" offset="54%"/><stop stop-color="gray" stop-opacity=".1" offset="100%"/></linearGradient><linearGradient x1="50.001%" y1="100%" x2="50.001%" y2=".004%" id="J"><stop stop-color="gray" stop-opacity=".25" offset="0%"/><stop stop-color="gray" stop-opacity=".12" offset="54%"/><stop stop-color="gray" stop-opacity=".1" offset="100%"/></linearGradient><linearGradient x1="49.983%" y1="100%" x2="49.983%" y2=".004%" id="K"><stop stop-color="gray" stop-opacity=".25" offset="0%"/><stop stop-color="gray" stop-opacity=".12" offset="54%"/><stop stop-color="gray" stop-opacity=".1" offset="100%"/></linearGradient><linearGradient x1="49.998%" y1="100%" x2="49.998%" y2=".004%" id="L"><stop stop-color="gray" stop-opacity=".25" offset="0%"/><stop stop-color="gray" stop-opacity=".12" offset="54%"/><stop stop-color="gray" stop-opacity=".1" offset="100%"/></linearGradient><linearGradient x1="49.993%" y1="100.026%" x2="49.993%" y2="0%" id="M"><stop stop-color="gray" stop-opacity=".25" offset="0%"/><stop stop-color="gray" stop-opacity=".12" offset="54%"/><stop stop-color="gray" stop-opacity=".1" offset="100%"/></linearGradient><linearGradient x1="50%" y1="100%" x2="50%" y2="0%" id="N"><stop stop-color="gray" stop-opacity=".25" offset="0%"/><stop stop-color="gray" stop-opacity=".12" offset="54%"/><stop stop-color="gray" stop-opacity=".1" offset="100%"/></linearGradient><linearGradient x1="50%" y1="100%" x2="50%" y2=".058%" id="O"><stop stop-color="gray" stop-opacity=".25" offset="0%"/><stop stop-color="gray" stop-opacity=".12" offset="54%"/><stop stop-color="gray" stop-opacity=".1" offset="100%"/></linearGradient><linearGradient x1="49.996%" y1="100%" x2="49.996%" y2="-.041%" id="P"><stop stop-color="gray" stop-opacity=".25" offset="0%"/><stop stop-color="gray" stop-opacity=".12" offset="54%"/><stop stop-color="gray" stop-opacity=".1" offset="100%"/></linearGradient><linearGradient x1="50.015%" y1="100%" x2="50.015%" y2="-.172%" id="Q"><stop stop-color="gray" stop-opacity=".25" offset="0%"/><stop stop-color="gray" stop-opacity=".12" offset="54%"/><stop stop-color="gray" stop-opacity=".1" offset="100%"/></linearGradient><linearGradient x1="50%" y1="100%" x2="50%" y2="0%" id="R"><stop stop-color="gray" stop-opacity=".25" offset="0%"/><stop stop-color="gray" stop-opacity=".12" offset="54%"/><stop stop-color="gray" stop-opacity=".1" offset="100%"/></linearGradient><linearGradient x1="50.037%" y1="100%" x2="50.037%" y2="-.079%" id="S"><stop stop-color="gray" stop-opacity=".25" offset="0%"/><stop stop-color="gray" stop-opacity=".12" offset="54%"/><stop stop-color="gray" stop-opacity=".1" offset="100%"/></linearGradient><linearGradient x1="49.994%" y1="100.021%" x2="49.994%" y2=".019%" id="T"><stop stop-color="gray" stop-opacity=".25" offset="0%"/><stop stop-color="gray" stop-opacity=".12" offset="54%"/><stop stop-color="gray" stop-opacity=".1" offset="100%"/></linearGradient><linearGradient x1="49.999%" y1="99.917%" x2="49.999%" y2="-.088%" id="U"><stop stop-color="gray" stop-opacity=".25" offset="0%"/><stop stop-color="gray" stop-opacity=".12" offset="54%"/><stop stop-color="gray" stop-opacity=".1" offset="100%"/></linearGradient><linearGradient x1="49.998%" y1="99.986%" x2="49.998%" y2="0%" id="V"><stop stop-color="gray" stop-opacity=".25" offset="0%"/><stop stop-color="gray" stop-opacity=".12" offset="54%"/><stop stop-color="gray" stop-opacity=".1" offset="100%"/></linearGradient><linearGradient x1="50%" y1="99.989%" x2="50%" y2="0%" id="W"><stop stop-color="gray" stop-opacity=".25" offset="0%"/><stop stop-color="gray" stop-opacity=".12" offset="54%"/><stop stop-color="gray" stop-opacity=".1" offset="100%"/></linearGradient><linearGradient x1="50%" y1="100%" x2="50%" y2="0%" id="X"><stop stop-color="gray" stop-opacity=".25" offset="0%"/><stop stop-color="gray" stop-opacity=".12" offset="54%"/><stop stop-color="gray" stop-opacity=".1" offset="100%"/></linearGradient><linearGradient x1="49.999%" y1="99.989%" x2="49.999%" y2="-.006%" id="Y"><stop stop-color="gray" stop-opacity=".25" offset="0%"/><stop stop-color="gray" stop-opacity=".12" offset="54%"/><stop stop-color="gray" stop-opacity=".1" offset="100%"/></linearGradient><linearGradient x1="50.013%" y1="100.234%" x2="50.013%" y2=".057%" id="Z"><stop stop-color="gray" stop-opacity=".25" offset="0%"/><stop stop-color="gray" stop-opacity=".12" offset="54%"/><stop stop-color="gray" stop-opacity=".1" offset="100%"/></linearGradient><linearGradient x1="50.003%" y1="100.087%" x2="50.003%" y2="0%" id="aa"><stop stop-color="gray" stop-opacity=".25" offset="0%"/><stop stop-color="gray" stop-opacity=".12" offset="54%"/><stop stop-color="gray" stop-opacity=".1" offset="100%"/></linearGradient><linearGradient x1="49.971%" y1="100.021%" x2="49.971%" y2="0%" id="ab"><stop stop-color="gray" stop-opacity=".25" offset="0%"/><stop stop-color="gray" stop-opacity=".12" offset="54%"/><stop stop-color="gray" stop-opacity=".1" offset="100%"/></linearGradient><linearGradient x1="50%" y1="100%" x2="50%" y2="0%" id="ac"><stop stop-color="gray" stop-opacity=".25" offset="0%"/><stop stop-color="gray" stop-opacity=".12" offset="54%"/><stop stop-color="gray" stop-opacity=".1" offset="100%"/></linearGradient><linearGradient x1="50.02%" y1="100.111%" x2="50.02%" y2="0%" id="ad"><stop stop-color="gray" stop-opacity=".25" offset="0%"/><stop stop-color="gray" stop-opacity=".12" offset="54%"/><stop stop-color="gray" stop-opacity=".1" offset="100%"/></linearGradient><linearGradient x1="49.981%" y1="100.033%" x2="49.981%" y2="0%" id="ae"><stop stop-color="gray" stop-opacity=".25" offset="0%"/><stop stop-color="gray" stop-opacity=".12" offset="54%"/><stop stop-color="gray" stop-opacity=".1" offset="100%"/></linearGradient><linearGradient x1="49.942%" y1="99.999%" x2="49.942%" y2="0%" id="af"><stop stop-color="gray" stop-opacity=".25" offset="0%"/><stop stop-color="gray" stop-opacity=".12" offset="54%"/><stop stop-color="gray" stop-opacity=".1" offset="100%"/></linearGradient><linearGradient x1="49.958%" y1="99.997%" x2="49.958%" y2="0%" id="ag"><stop stop-color="gray" stop-opacity=".25" offset="0%"/><stop stop-color="gray" stop-opacity=".12" offset="54%"/><stop stop-color="gray" stop-opacity=".1" offset="100%"/></linearGradient><linearGradient x1="50.007%" y1="99.983%" x2="50.007%" y2="0%" id="ah"><stop stop-color="gray" stop-opacity=".25" offset="0%"/><stop stop-color="gray" stop-opacity=".12" offset="54%"/><stop stop-color="gray" stop-opacity=".1" offset="100%"/></linearGradient><linearGradient x1="50%" y1="100.025%" x2="50%" y2="0%" id="ai"><stop stop-color="gray" stop-opacity=".25" offset="0%"/><stop stop-color="gray" stop-opacity=".12" offset="54%"/><stop stop-color="gray" stop-opacity=".1" offset="100%"/></linearGradient><linearGradient x1="49.952%" y1="99.972%" x2="49.952%" y2="0%" id="aj"><stop stop-color="gray" stop-opacity=".25" offset="0%"/><stop stop-color="gray" stop-opacity=".12" offset="54%"/><stop stop-color="gray" stop-opacity=".1" offset="100%"/></linearGradient><linearGradient x1="49.985%" y1="100.087%" x2="49.985%" y2="-.029%" id="ak"><stop stop-color="gray" stop-opacity=".25" offset="0%"/><stop stop-color="gray" stop-opacity=".12" offset="54%"/><stop stop-color="gray" stop-opacity=".1" offset="100%"/></linearGradient><linearGradient x1="49.953%" y1="100.003%" x2="49.953%" y2=".006%" id="al"><stop stop-color="gray" stop-opacity=".25" offset="0%"/><stop stop-color="gray" stop-opacity=".12" offset="54%"/><stop stop-color="gray" stop-opacity=".1" offset="100%"/></linearGradient><linearGradient x1="49.946%" y1="100%" x2="49.946%" y2="0%" id="am"><stop stop-color="gray" stop-opacity=".25" offset="0%"/><stop stop-color="gray" stop-opacity=".12" offset="54%"/><stop stop-color="gray" stop-opacity=".1" offset="100%"/></linearGradient><linearGradient x1="49.95%" y1="99.994%" x2="49.95%" y2=".011%" id="an"><stop stop-color="gray" stop-opacity=".25" offset="0%"/><stop stop-color="gray" stop-opacity=".12" offset="54%"/><stop stop-color="gray" stop-opacity=".1" offset="100%"/></linearGradient><linearGradient x1="49.674%" y1="100%" x2="49.674%" y2="0%" id="ao"><stop stop-color="gray" stop-opacity=".25" offset="0%"/><stop stop-color="gray" stop-opacity=".12" offset="54%"/><stop stop-color="gray" stop-opacity=".1" offset="100%"/></linearGradient><linearGradient x1="50.037%" y1="100%" x2="50.037%" y2="0%" id="ap"><stop stop-color="gray" stop-opacity=".25" offset="0%"/><stop stop-color="gray" stop-opacity=".12" offset="54%"/><stop stop-color="gray" stop-opacity=".1" offset="100%"/></linearGradient><linearGradient x1="49.972%" y1="100%" x2="49.972%" y2="0%" id="aq"><stop stop-color="gray" stop-opacity=".25" offset="0%"/><stop stop-color="gray" stop-opacity=".12" offset="54%"/><stop stop-color="gray" stop-opacity=".1" offset="100%"/></linearGradient><linearGradient x1="49.926%" y1="99.854%" x2="49.926%" y2="-.146%" id="ar"><stop stop-color="gray" stop-opacity=".25" offset="0%"/><stop stop-color="gray" stop-opacity=".12" offset="54%"/><stop stop-color="gray" stop-opacity=".1" offset="100%"/></linearGradient><linearGradient x1="50.052%" y1="100%" x2="50.052%" y2="0%" id="as"><stop stop-color="gray" stop-opacity=".25" offset="0%"/><stop stop-color="gray" stop-opacity=".12" offset="54%"/><stop stop-color="gray" stop-opacity=".1" offset="100%"/></linearGradient><linearGradient x1="50.085%" y1="100.046%" x2="50.085%" y2="-.028%" id="at"><stop stop-color="gray" stop-opacity=".25" offset="0%"/><stop stop-color="gray" stop-opacity=".12" offset="54%"/><stop stop-color="gray" stop-opacity=".1" offset="100%"/></linearGradient><linearGradient x1="49.828%" y1="100%" x2="49.828%" y2="0%" id="au"><stop stop-color="gray" stop-opacity=".25" offset="0%"/><stop stop-color="gray" stop-opacity=".12" offset="54%"/><stop stop-color="gray" stop-opacity=".1" offset="100%"/></linearGradient><linearGradient x1="50%" y1="100%" x2="50%" y2="0%" id="av"><stop stop-color="gray" stop-opacity=".25" offset="0%"/><stop stop-color="gray" stop-opacity=".12" offset="54%"/><stop stop-color="gray" stop-opacity=".1" offset="100%"/></linearGradient><linearGradient x1="49.963%" y1="100.005%" x2="49.963%" y2="0%" id="aw"><stop stop-color="gray" stop-opacity=".25" offset="0%"/><stop stop-color="gray" stop-opacity=".12" offset="54%"/><stop stop-color="gray" stop-opacity=".1" offset="100%"/></linearGradient><linearGradient x1="49.963%" y1="100%" x2="49.963%" y2=".073%" id="ax"><stop stop-color="gray" stop-opacity=".25" offset="0%"/><stop stop-color="gray" stop-opacity=".12" offset="54%"/><stop stop-color="gray" stop-opacity=".1" offset="100%"/></linearGradient><linearGradient x1="49.991%" y1="100%" x2="49.991%" y2="0%" id="ay"><stop stop-color="gray" stop-opacity=".25" offset="0%"/><stop stop-color="gray" stop-opacity=".12" offset="54%"/><stop stop-color="gray" stop-opacity=".1" offset="100%"/></linearGradient><linearGradient x1="49.995%" y1="100%" x2="49.995%" y2="0%" id="az"><stop stop-color="gray" stop-opacity=".25" offset="0%"/><stop stop-color="gray" stop-opacity=".12" offset="54%"/><stop stop-color="gray" stop-opacity=".1" offset="100%"/></linearGradient><linearGradient x1="50.01%" y1="100.03%" x2="50.01%" y2=".03%" id="aA"><stop stop-color="gray" stop-opacity=".25" offset="0%"/><stop stop-color="gray" stop-opacity=".12" offset="54%"/><stop stop-color="gray" stop-opacity=".1" offset="100%"/></linearGradient><linearGradient x1="50.276%" y1="100.008%" x2="50.276%" y2="0%" id="aB"><stop stop-color="gray" stop-opacity=".25" offset="0%"/><stop stop-color="gray" stop-opacity=".12" offset="54%"/><stop stop-color="gray" stop-opacity=".1" offset="100%"/></linearGradient><linearGradient x1="50%" y1="99.758%" x2="50%" y2="-.226%" id="aC"><stop stop-color="gray" stop-opacity=".25" offset="0%"/><stop stop-color="gray" stop-opacity=".12" offset="54%"/><stop stop-color="gray" stop-opacity=".1" offset="100%"/></linearGradient><linearGradient x1="50.011%" y1="100%" x2="50.011%" y2="0%" id="aD"><stop stop-color="gray" stop-opacity=".25" offset="0%"/><stop stop-color="gray" stop-opacity=".12" offset="54%"/><stop stop-color="gray" stop-opacity=".1" offset="100%"/></linearGradient></defs><g transform="translate(195)" fill="none" fill-rule="evenodd"><ellipse fill="#2EA52C" fill-rule="nonzero" opacity=".1" cx="561.428" cy="417.886" rx="187.378" ry="25.417"/><ellipse fill="#2EA52C" fill-rule="nonzero" opacity=".1" cx="791.511" cy="362.781" rx="78.983" ry="10.716"/><ellipse fill="#2EA52C" fill-rule="nonzero" opacity=".1" cx="216.37" cy="405.627" rx="78.983" ry="10.716"/><ellipse fill="#2EA52C" fill-rule="nonzero" opacity=".1" cx="79.263" cy="358.069" rx="78.983" ry="10.716"/><path d="M323.453 79.231s-.019-.057 0 0z" fill="url(#a)" fill-rule="nonzero"/><path d="M308.063 130.276l-4.482 3.026c0-2.117 7.882-10.535 7.882-10.535-2.04-1.149-9.262 4.482-9.262 4.482.853-3.687 7.231-8.15 7.231-8.15-.555-.287-5.478 2.203-5.478 2.203 1.61-3.4 8.246-8.322 8.246-8.322-.824-.527-5.68 1.57-5.91 1.666.26-.182 8.343-5.851 7.663-6.023-.68-.173-6.838 1.1-6.838 1.1-.48-2.163 9.577-12.363 9.577-12.363s1.254-1.771.804-1.302c-.45.47-5.114 2.088-5.114 2.088.067-3.19 9.788-8.131 9.788-8.131l-4.425-.173 2.873-3.131c-.134.105-4.692 3.6-4.788 2.576-.096-1.025 4.29-5.143 5.229-5.746.939-.603 3.83-.115 3.83-.115s-1.263-3.649-1.503-4.175c.7.574 10.621 4.788 10.621 4.788l.862.172c2.318.45 8.62 1.724 9.578 2.395.957.67 5.746 1.58 8.504 2.116l1.916.364-6.973 44.158h-1.915c-1.14 0-2.27-.095-3.4-.191a57.46 57.46 0 0 1-5.315-.728c-3.544-.66-8.198-1.542-11.79-2.24a195.77 195.77 0 0 1-4.923-1.006c-3.553-.834-7.987 1.915-9.002 1.915-1.015 0-7.126 5.085-7.126 5.085.048-1.005 3.64-5.803 3.64-5.803z" fill="url(#b)" fill-rule="nonzero"/><path d="M.22 4.836c.077 0 6.972-2.825 9.271-3.725 2.299-.9 29.871 1.082 31.04 1.168v.173c-.288 0-28.674-2.069-30.963-1.169C7.278 2.183.374 4.97.306 5L.22 4.836z" opacity=".1" transform="translate(307.804 125.363)" fill="url(#c)" fill-rule="nonzero"/><path d="M323.453 79.231s-.019-.057 0 0z" fill="url(#a)" fill-rule="nonzero"/><path d="M.345 5.037A53.556 53.556 0 0 1 6.206.9c1.57-.871 4.645-.249 6.886.201.656.152 1.322.26 1.992.326 1.37 0 8.869 2.126 9.185 2.222.076 0 8.198 1.915 9.223 1.858 1.616.164 3.217.456 4.788.871v.182a31.434 31.434 0 0 0-4.788-.881c-1.054.067-8.946-1.781-9.28-1.858-.077 0-7.787-2.212-9.137-2.222a13.236 13.236 0 0 1-2.021-.325C10.956.852 7.796.22 6.283 1.054A56.601 56.601 0 0 0 .44 5.17l-.096-.134z" opacity=".1" transform="translate(315.466 84.183)" fill="url(#d)" fill-rule="nonzero"/><path d="M.048 1.705C.747.929 8.888.65 9.625.939c.738.287 10.066 1.197 10.535 1.177.153 0 12.259 2.337 15.965 3.065v.172C30.743 4.3 20.476 2.318 20.198 2.298c-.048 0-9.759-.861-10.62-1.197C8.714.766.746 1.235.21 1.82l-.163-.115z" opacity=".1" transform="translate(317.381 88.013)" fill="url(#e)" fill-rule="nonzero"/><path d="M.632 6.254C3.132 2.002 17.24.737 17.373.728 18.877.603 40.358 4.673 41.24 4.846v.172c-.22 0-22.335-4.242-23.81-4.108C13.505 1.245 2.865 2.873.834 6.35l-.2-.096z" opacity=".1" transform="translate(311.635 91.844)" fill="url(#f)" fill-rule="nonzero"/><path d="M.632 4.482C4.616.01 17.258.316 17.382.326c.958 0 22.45 3.217 23.36 3.351v.173c-.22 0-22.402-3.304-23.34-3.342-.125 0-12.67-.316-16.598 4.089l-.172-.115z" opacity=".1" transform="translate(310.677 98.548)" fill="url(#g)" fill-rule="nonzero"/><path d="M.7 7.518C2.192 4.73 6.387 2.729 13.15 1.59A69.63 69.63 0 0 1 23.08.7l21.894 2.499v.182L23.1.88c-.182 0-18.953.144-22.305 6.857l-.163-.077.067-.143z" opacity=".1" transform="translate(306.846 100.463)" fill="url(#h)" fill-rule="nonzero"/><path d="M.163 5.373C2.26 3.074 10.468 1.255 14.395.785c3.687-.44 28.118 3.42 29.162 3.582v.172C43.3 4.54 18.111.527 14.442.958c-3.668.43-12.076 2.298-14.116 4.53l-.163-.115z" opacity=".1" transform="translate(306.846 104.294)" fill="url(#i)" fill-rule="nonzero"/><path d="M.172 2.394L9.434.862a24.73 24.73 0 0 1 7.182-.134l10.267 1.321 11.292 2.136v.172L26.874 2.222 16.597.948a24.74 24.74 0 0 0-7.135.125L.202 2.614l-.03-.22z" opacity=".1" transform="translate(311.635 108.125)" fill="url(#j)" fill-rule="nonzero"/><path d="M1.044 6.972C2.959 3.409 11.484 1.638 16.157.66c.957-.201 1.772-.364 2.231-.498 2.644-.738 27.315 1.743 28.358 1.848v.182c-.258 0-25.686-2.586-28.29-1.858-.47.134-1.255.297-2.242.498-4.472.958-13.791 2.873-15.17 6.627l-.172-.057c.045-.148.103-.292.172-.431z" opacity=".1" transform="translate(303.016 113.87)" fill="url(#k)" fill-rule="nonzero"/><path d="M.45 3.371s4.712-1.484 5.746-1.973C7.231.91 19.461.603 19.978.584l20.945 1.322v.182L19.978.766c-.115 0-12.651.307-13.705.785C5.22 2.031.661 3.467.47 3.543L.45 3.371z" opacity=".1" transform="translate(308.762 115.786)" fill="url(#l)" fill-rule="nonzero"/><path d="M.067 9.5C4.674 3.026 22.219.517 23.79.632l23.589 1.513v.173c-.22 0-22.028-1.399-23.58-1.514C22.248.69 4.8 3.19.24 9.596L.067 9.5z" opacity=".1" transform="translate(302.058 117.701)" fill="url(#m)" fill-rule="nonzero"/><path d="M1.025 9.452C5.18 1.695 23.052-.048 24.69.02l20.86.958v.172L24.69.192C22.957.115 3.333 2.04.66 10.822l-.172-.048c.138-.456.317-.899.537-1.322z" opacity=".1" transform="translate(303.016 122.49)" fill="url(#n)" fill-rule="nonzero"/><path d="M.824 45.212L7.882.661l1.915.364L2.74 45.23c-.66 0-1.312 0-1.915-.019z" opacity=".1" transform="translate(345.155 88.013)" fill="url(#o)" fill-rule="nonzero"/><path d="M346.352 134.193l7.365-46.429 9.032 2.873 6.608 2.107s4.616-.957 6.091 2.404c1.475 3.361-3.227 13.178-.958 15.323 2.27 2.145 21.453 3.83 21.453 3.83s27.87 7.423 30.782 7.863c2.911.44 18.857 9.74 18.857 9.74.872 2.193-9.836 2.289-12.23 2.94-2.394.651-25.246-3.649-26.73-4.961-1.485-1.312-22.746-7.049-22.746-7.049-6.848-3.543-11.244-2.059-11.244-2.059a52.757 52.757 0 0 1-3.304 13.408 3.64 3.64 0 0 1-3.83 2.078l-10.325-.814-8.82-1.254z" fill="url(#p)" fill-rule="nonzero"/><path d="M.24 47.137L7.603.709l9.032 2.873c-1.447 4.491-10.066 32.8-7.576 44.78L.24 47.138z" opacity=".1" transform="translate(346.113 87.056)" fill="url(#q)" fill-rule="nonzero"/><path d="M308.063 130.276l-4.482 3.026c0-2.117 7.882-10.535 7.882-10.535-2.04-1.149-9.262 4.482-9.262 4.482.853-3.687 7.231-8.15 7.231-8.15-.555-.287-5.478 2.203-5.478 2.203 1.61-3.4 8.246-8.322 8.246-8.322-.824-.527-5.68 1.57-5.91 1.666.26-.182 8.343-5.851 7.663-6.023-.68-.173-6.838 1.1-6.838 1.1-.48-2.163 9.577-12.363 9.577-12.363s1.254-1.771.804-1.302c-.45.47-5.114 2.088-5.114 2.088.067-3.19 9.788-8.131 9.788-8.131l-4.425-.173 2.873-3.131c-.134.105-4.692 3.6-4.788 2.576-.096-1.025 4.29-5.143 5.229-5.746.939-.603 3.83-.115 3.83-.115s-1.263-3.649-1.503-4.175c.7.574 10.621 4.788 10.621 4.788l.862.163c-.957.728-1.838 1.388-2.423 1.915a7.058 7.058 0 0 0-2.116 2.586 5.248 5.248 0 0 0 .66 4.31c.738 1.311 1.753 2.451 2.481 3.773.369.544.513 1.21.402 1.858a3.199 3.199 0 0 1-1.254 1.446 24.296 24.296 0 0 0-7.969 11.013 2.969 2.969 0 0 0-.239 1.34c.142.608.41 1.179.785 1.677a6.043 6.043 0 0 1-.775 6.962c-.786.862-1.916 1.618-1.973 2.777.027.653.225 1.287.574 1.839a410.816 410.816 0 0 1 2.337 4.415 195.771 195.771 0 0 1-4.923-1.006c-3.553-.833-7.987 1.916-9.002 1.916-1.015 0-7.126 5.075-7.126 5.075.163-1.024 3.755-5.822 3.755-5.822z" fill="url(#r)" fill-rule="nonzero"/><path d="M458.253 391.023l4.242 16.999s95.275 30.798 126.161 1.915c30.887-28.884-3.4-85.023-3.4-85.023l-20.916-21.49-55.175-6.417h-19.528l-31.384 94.016z" fill="url(#s)" fill-rule="nonzero"/><path d="M.086 94.236l4.243 16.998s95.274 30.8 126.16 1.916c30.887-28.884-3.4-85.023-3.4-85.023l-20.916-21.49L51 .22H31.47L.086 94.236z" opacity=".03" transform="translate(458.167 296.787)" fill="url(#s)" fill-rule="nonzero"/><path d="M689.734 267.166l-9.156 10.458-31.662 56.637-10.774 19.891s-8.141 10.132-7.336 14.365c.804 4.233 3.093 35.693-24.327 38.25-27.42 2.557-86.855-61.607-86.855-61.607l2.423-1.629 53.086-35.903 19.059-20.513 5.095-5.478s24.824-33.366 24.163-38.499c-.66-5.133 24.815-35.932 39.506-34.974 14.692.957 25.792.957 31.011 19.575 5.22 18.617-4.233 39.427-4.233 39.427z" fill="url(#t)" fill-rule="nonzero"/><path fill="url(#u)" fill-rule="nonzero" d="M499.799 50.52h100.637v74.833H499.799z"/><path d="M.45.814h100.637v74.833H.45z" opacity=".1" transform="translate(499.349 49.706)" fill="url(#u)" fill-rule="nonzero"/><path d="M472.293 206.392c0 1.37-.125 3.246-.326 5.363-.756 8.236-2.614 20.111-2.614 20.111s-3.917 20.906-2.94 22.611c.976 1.705-.958 15.639-2.29 18.703-1.33 3.065-9.136 0-9.136 0l-25.859-68.205-1.427-3.764-.565-1.485.594-2.279 2.098-8.265s42.465 10.564 42.465 17.21z" fill="url(#v)" fill-rule="nonzero"/><path d="M590.476 138.943v10.783l-7.844 37.666-16.97 22.37-37.543 4.79-35.915-13.858s-23.828-37.79 3.917-59.06a52.376 52.376 0 0 0 15.898-19.872 63.626 63.626 0 0 0 5.498-25.541 58.416 58.416 0 0 0-.824-11.301s58.766-26.623 49.294 0a29.687 29.687 0 0 0-1.331 14.317 44.1 44.1 0 0 0 4.702 14.04c7.585 14.739 21.118 25.666 21.118 25.666z" fill="url(#w)" fill-rule="nonzero"/><path d="M49.4 12.2a29.687 29.687 0 0 0-1.332 14.318c-14.7 9.34-33.75 8.121-47.139-3.017a58.416 58.416 0 0 0-.824-11.3s58.766-26.576 49.294 0z" opacity=".1" transform="translate(516.588 72.69)" fill="url(#x)" fill-rule="nonzero"/><ellipse fill="url(#y)" fill-rule="nonzero" cx="543.136" cy="64.723" rx="39.506" ry="38.824"/><path d="M108.366 26.03v10.783l-7.843 37.666L83.552 96.85l-37.543 4.788-35.915-13.857s-23.828-37.79 3.917-59.06A52.376 52.376 0 0 0 29.91 8.849c-21.702 81.632 24.546 77.4 24.546 77.4 42.312 0 33.798-77.572 32.773-85.914 7.605 14.768 21.137 25.695 21.137 25.695z" opacity=".1" transform="translate(482.11 112.913)" fill="url(#z)" fill-rule="nonzero"/><path d="M188.336 59.625c-1.638 5.459-5.555 25.34-5.555 25.34s-1.101.431-2.873 1.226c-6.704 3.055-23.282 11.492-24.508 22.027a3.926 3.926 0 0 0-.057.469c-.958 13.474-13.054 42.032-19.25 54.865-6.197 12.833 2.94 26.633 2.94 26.633l-12.45 2.873s-17.259 2.299-31.903-1.245c-14.643-3.543-12.737 5.746-21.874 2.567-9.137-3.18-39.18-5.459-44.055-8.341-4.875-2.883-9.137-28.549-6.532-31.767 2.605-3.217 10.775-70.868 10.775-70.868S.019 53.237.67 33.662C1.322 14.087 25.16 13.14 25.16 13.14s9.165-3.16 16.932-6.445a99.157 99.157 0 0 0 4.29-1.915C52.828 1.743 67.337 3.065 73.2 3.764c1.532.191 2.47.325 2.47.325-.842 2.873-1.599 5.689-2.288 8.38-13.322 52.567 2.317 68.282 14.241 72.918a26.817 26.817 0 0 0 10.89 1.838c14.997 0 23.607-9.758 28.434-22.716C136.523 38.834 131.18.594 131.18.594s30.37 12.181 49.955 24.382c19.585 12.201 8.84 29.19 7.202 34.65z" opacity=".1" transform="translate(438.054 115.786)" fill="url(#A)" fill-rule="nonzero"/><path d="M626.39 173.486c-1.637 5.459-5.554 25.34-5.554 25.34s-1.102.431-2.874 1.226c-6.704 3.055-23.282 11.492-24.508 22.027a3.926 3.926 0 0 0-.057.469c-.958 13.474-13.054 42.032-19.25 54.865-6.197 12.833 2.94 26.633 2.94 26.633l-12.45 2.873s-17.259 2.308-31.902-1.245c-14.644-3.553-12.738 5.747-21.875 2.567-9.136-3.18-39.18-5.459-44.055-8.341-4.875-2.883-9.136-28.549-6.531-31.767 2.605-3.217 10.774-70.868 10.774-70.868s-32.974-30.167-32.323-49.742c.651-19.575 24.489-20.523 24.489-20.523s9.165-3.16 16.932-6.445a99.157 99.157 0 0 0 4.29-1.915c6.446-3.036 20.956-1.714 26.817-1.015 1.532.191 2.471.325 2.471.325a251.78 251.78 0 0 0-2.289 8.38c-13.322 52.567 2.318 68.282 14.241 72.918a26.817 26.817 0 0 0 10.89 1.838c14.998 0 23.608-9.758 28.434-22.716 9.578-25.675 4.234-63.915 4.234-63.915s30.369 12.181 49.954 24.382c19.586 12.201 8.84 29.19 7.202 34.65z" fill="url(#B)" fill-rule="nonzero"/><path d="M45.731 17.822v5.746l-.325-.402C31.624 6.005 9.299 13.59 2.576 16.405c-1.273.536-1.992.9-1.992.9s.383-2.202.565-4.664c.09-1.253.09-2.51 0-3.763L3.247.613S45.73 11.176 45.73 17.823z" opacity=".1" transform="translate(426.562 188.57)" fill="url(#C)" fill-rule="nonzero"/><path d="M448.78 145.57l-8.504 10.917s-14.366 34.323-13.044 36.89c1.322 2.567-.086 10.592-.086 10.592s28.818-14.73 45.137 6.273v-10.765s1.638-4.491 2.29-5.746c.65-1.254 0-11.233 0-11.233L448.78 145.57z" fill="url(#D)" fill-rule="nonzero"/><path d="M464.124 273.276a5.114 5.114 0 0 1-.336 1.063c-4.166 9.3-35.35-4.28-35.35-4.28s-.258-1.284-.67-3.362c-1.647-8.36-5.564-29.746-3.467-33.854 2.605-5.133 2.874-21.174 2.874-21.174 8.734-15.4 4.329-46.524 4.329-46.524 3.917-6.704-2.28-12.833-2.28-12.833s-54.207-31.45-16.98-35.616c37.226-4.166 44.41 40.088 41.47 44.924-2.941 4.837 2.278 43.881 2.278 43.881l5.22 30.234s5.162 26.193 2.912 37.541z" fill="url(#E)" fill-rule="nonzero"/><path fill="url(#F)" fill-rule="nonzero" d="M621.123 424.599l-9.692-.479-37.687-1.82-.047-1.177-.805-19.144 28.617-14.394.038-.02.364.26.737.507.795.555 16.349 11.464z"/><path d="M31.404 1.973l-.096.105L1.56 34.314.757 15.17 29.373.776l.403.24z" opacity=".1" transform="translate(572.135 386.809)" fill="url(#G)" fill-rule="nonzero"/><path d="M36.26 9.155C32.092 18.455.91 4.875.91 4.875S.65 3.59.24 1.513C4.395-.2 9.691-.555 16.683 1.35c9.04 2.471 15.323 5.287 19.575 7.805z" opacity=".1" transform="translate(427.52 265.184)" fill="url(#H)" fill-rule="nonzero"/><path d="M462.495 408.022s-18.282-8.983-19.26-13.791c-.976-4.808-6.205-19.9-8.494-23.109-2.29-3.208-16.282-25.024-19.586-34.323-3.304-9.3-13.063-35.616-5.88-45.566 7.183-9.95 11.425-29.19 34.938-22.774 23.512 6.417 28.07 15.074 28.07 15.074l2.577 5.459s56.85 51.915 57.827 53.553c.977 1.638 31.346 24.086 31.346 24.086l37.543 22.141-31.672 34.333s-40.157-15.4-41.46-21.816c-1.302-6.416-12.335-12.191-12.335-12.191l-15.094-5.746-38.52 24.67z" fill="url(#I)" fill-rule="nonzero"/><path d="M3.477 52.749s6.857 6.704 6.857 9.309c0 2.604 9.462 7.058 9.462 7.058s75.095 45.844 83.916 45.7l15.697 15.581 22.114-45.01-27.688-21.433-57.827-50.987S45.272 5.909 39.39 4.942C33.511 3.974 3.477-9.491.871 16.492c-2.604 25.981 2.606 36.257 2.606 36.257z" opacity=".1" transform="translate(420.815 278.591)" fill="url(#J)" fill-rule="nonzero"/><path d="M3.438 52.759s6.858 6.703 6.858 9.308c0 2.605 9.452 7.058 9.452 7.058s75.105 45.844 83.916 45.7l15.697 15.582 22.123-45.01-27.65-21.434-57.826-50.986S45.272 5.918 39.4 4.95C33.53 3.984 3.486-9.48.87 16.501c-2.614 25.982 2.567 36.258 2.567 36.258z" opacity=".1" transform="translate(418.9 280.507)" fill="url(#K)" fill-rule="nonzero"/><path d="M422.338 331.34s6.857 6.704 6.857 9.309c0 2.605 9.453 7.058 9.453 7.058s75.105 45.844 83.916 45.7l15.697 15.582 22.123-45.011-27.65-21.433-57.826-50.987s-10.737-7.058-16.607-8.025c-5.871-.967-35.963-14.432-38.577 11.55-2.615 25.981 2.614 36.257 2.614 36.257z" fill="url(#L)" fill-rule="nonzero"/><path d="M422.338 331.34s6.857 6.704 6.857 9.309c0 2.605 9.453 7.058 9.453 7.058s75.105 45.844 83.916 45.7l15.697 15.582 22.123-45.011-27.65-21.433-57.826-50.987s-10.737-7.058-16.607-8.025c-5.871-.967-35.963-14.432-38.577 11.55-2.615 25.981 2.614 36.257 2.614 36.257z" fill="url(#L)" fill-rule="nonzero"/><path d="M.086.498s19.73 32.14 30.427 34.994C41.211 38.345.086.498.086.498z" opacity=".1" transform="translate(429.435 350.417)" fill="url(#M)" fill-rule="nonzero"/><path fill="url(#N)" fill-rule="nonzero" d="M582.967 359.659l-2.969 16.472-2.72 15.122-1.168 6.502-25.705-8.016 2.624-14.097.144-.785 1.714-9.184z"/><path d="M27.17 18.809l-1.168 6.502L.297 17.296 2.92 3.189c3.764-4.788 13.657-.958 13.657-.958 13.743-1.609 9.099 14.117 9.099 14.117a5.258 5.258 0 0 1 1.494 2.46z" opacity=".1" transform="translate(550.108 372.444)" fill="url(#O)" fill-rule="nonzero"/><path d="M580.027 444.605c-6.848-6.091-31.672-8.964-39.832-8.964s-4.894-2.557-4.894-2.557l-5.401-3.83c-3.687-2.634-1.992-8.85-.556-12.527.68-1.714 1.293-2.873 1.293-2.873s2.05-15.084 4.09-19.585c2.04-4.5 16.942-11.3 16.942-11.3-1.264-13.523 15.017-7.327 15.017-7.327 13.743-1.599 9.098 14.126 9.098 14.126 2.615 1.916 3.266 12.182 2.615 15.716-.651 3.534 2.28 14.757 2.28 14.757s2.748 10.152 4.414 16.08c.326 1.14.604 2.136.815 2.873 1.302 4.444-5.88 5.41-5.88 5.41z" fill="url(#P)" fill-rule="nonzero"/><path d="M52.905 28.108c-6.848-6.091-31.672-8.964-39.832-8.964s-4.894-2.557-4.894-2.557l-5.402-3.83C-.91 10.122.785 3.906 2.222.23l7.307 6.416s-2.087 1.61 0 1.61h8.534S45.492 14 57.943 19.842c.325 1.14.603 2.136.813 2.873 1.331 4.425-5.851 5.392-5.851 5.392z" opacity=".1" transform="translate(527.123 416.497)" fill="url(#Q)" fill-rule="nonzero"/><ellipse cx="2.212" cy="2.049" rx="1.312" ry="1.293" opacity=".1" transform="translate(548.192 386.809)" fill="url(#R)" fill-rule="nonzero"/><ellipse cx="1.963" cy="1.705" rx="1.312" ry="1.293" opacity=".1" transform="translate(551.066 397.343)" fill="url(#R)" fill-rule="nonzero"/><ellipse cx="2.212" cy="1.753" rx="1.312" ry="1.293" opacity=".1" transform="translate(550.108 393.513)" fill="url(#R)" fill-rule="nonzero"/><ellipse cx="1.963" cy="2.002" rx="1.312" ry="1.293" opacity=".1" transform="translate(551.066 402.132)" fill="url(#R)" fill-rule="nonzero"/><ellipse cx="1.398" cy="1.523" rx="1.312" ry="1.293" opacity=".1" transform="translate(545.32 407.878)" fill="url(#R)" fill-rule="nonzero"/><path d="M19.298 36.823l-9.692-.44a3.352 3.352 0 0 1 0-1.82s7.106-6.704-4.655-19.46c0 0 .68-2.998 3.4-2.232 0 0-6.455-10.668-7.432-11.76A.852.852 0 0 1 .804.594l.795.546 16.349 11.492 1.35 24.19z" opacity=".1" transform="translate(601.825 387.767)" fill="url(#S)" fill-rule="nonzero"/><path d="M704.502 400.35a20.379 20.379 0 0 1-2.519 10.535 21.002 21.002 0 0 1-4.587 5.823h-.086a72.12 72.12 0 0 1-30.178 5.353c-13.35-.507-30.264-.46-35.963 2.519 0 0-19.719 5.41-17.756-2.29 0 0 7.097-6.703-4.654-19.46 0 0 .68-2.997 3.4-2.23 0 0-6.455-10.669-7.432-11.76-.546-.595.957-4.79 2.337-8.447.411-1.073.823-2.098 1.187-2.979.642-1.56 1.111-2.653 1.111-2.653.22.125 1.37.805 3.055 1.695 3.17 1.648 8.256 3.984 12.872 4.683 7.097 1.092 13.226 3.372 24.489 0 11.263-3.37 16.157-8.015 31.461-2.442 15.305 5.574 22.928 11.358 23.263 21.654z" fill="url(#T)" fill-rule="nonzero"/><path d="M100.762 25.034a20.379 20.379 0 0 1-2.519 10.534C95.504 24.23 91.99 17.267 80.19 8.514c-12.977-9.577-33.05.843-33.05.843s-16.282.718-28.168.718A26.175 26.175 0 0 1 3.323 5.114 17.114 17.114 0 0 1 .862 2.978l3.649-.842 4.166-.958c3.17 1.647 8.256 3.984 12.872 4.683 7.096 1.092 13.226 3.371 24.489 0s16.156-8.016 31.46-2.442c15.305 5.574 22.929 11.32 23.264 21.615z" opacity=".1" transform="translate(603.74 375.317)" fill="url(#U)" fill-rule="nonzero"/><path d="M86.358.852s-8.811 13.159-8.486 17.009c.326 3.85-7.183 11.55-7.183 11.55s-8.16 8.618-8.16 12.19c0 3.573-15.026 34.2-15.026 34.2S27.64 94.225 23.349 97.108c-4.29 2.882-14.691 22.457-18.934 25.024C.172 124.699.25 143.202.25 143.202l29.958-30.761s33.3 33.136 35.253 33.777c1.954.642 7.834-26.949 7.834-26.949s18.293-17.238 23.513-21.94c5.22-4.702 25.398-36.67 25.398-36.67s18.35-33.854 16.722-43.756C137.3 7.001 121.784 12.89 86.357.853z" opacity=".1" transform="translate(548.192 231.665)" fill="url(#V)" fill-rule="nonzero"/><path d="M86.425.852s-8.82 13.159-8.486 17.009c.336 3.85-7.182 11.55-7.182 11.55s-8.17 8.618-8.17 12.19c0 3.573-15.017 34.2-15.017 34.2S27.64 94.225 23.416 97.108c-4.223 2.882-14.691 22.457-18.943 25.024C.22 124.699.316 143.202.316 143.202s34.411-22.027 47.254 28.04l11.751-16.816s4.253-8.85 6.206-8.208c1.954.642 7.835-26.949 7.835-26.949s18.282-17.238 23.512-21.94c5.229-4.702 25.398-36.67 25.398-36.67s18.38-33.854 16.713-43.756c-1.667-9.902-20.725-7.336-52.56-16.05z" opacity=".1" transform="translate(551.066 231.665)" fill="url(#W)" fill-rule="nonzero"/><path d="M29.986.622l-2.969 16.473C16.904 10.209 5.823 13.369.201 15.82l1.714-9.184L29.986.622z" opacity=".1" transform="translate(552.981 359.036)" fill="url(#X)" fill-rule="nonzero"/><path d="M636.514 232.517s-8.821 13.159-8.495 17.009c.325 3.85-7.183 11.55-7.183 11.55s-8.16 8.618-8.16 12.19c0 3.573-15.017 34.2-15.017 34.2s-19.911 18.425-24.164 21.308c-4.252 2.882-14.691 22.457-18.934 25.024-4.242 2.566-4.156 21.069-4.156 21.069s34.41-22.027 47.254 28.04l11.751-16.816s4.243-8.85 6.206-8.208c1.963.642 7.834-26.949 7.834-26.949s18.283-17.238 23.503-21.94c5.22-4.702 25.408-36.67 25.408-36.67s18.398-33.854 16.712-43.756c-1.685-9.902-16.654-39.466-52.56-16.05z" fill="url(#Y)" fill-rule="nonzero"/><path d="M.67 7.087s48.423-17.985 75.66 5.746L.67 7.087z" opacity=".1" transform="translate(484.025 257.522)" fill="url(#Z)" fill-rule="nonzero"/><path d="M.872.67s38.759 6.503 53.45 5.22C69.013 4.606.872.67.872.67z" opacity=".1" transform="translate(488.814 275.718)" fill="url(#aa)" fill-rule="nonzero"/><path d="M1.168.105S-1.877 19.91 5.363 24.718C12.603 29.525 1.168.105 1.168.105z" opacity=".1" transform="translate(477.321 129.193)" fill="url(#ab)" fill-rule="nonzero"/><path d="M458.253 137.554s10.132 16.041 11.11 24.382" fill="url(#ac)" fill-rule="nonzero" opacity=".1"/><path d="M.057.747s36.566 27.016 33.626 39.466c-2.94 12.45-2.174 0-2.174 0L.057.747z" opacity=".1" transform="translate(485.94 341.798)" fill="url(#ad)" fill-rule="nonzero"/><ellipse cx="2.212" cy="2.04" rx="1.312" ry="1.293" opacity=".1" transform="translate(662.161 390.64)" fill="url(#R)" fill-rule="nonzero"/><ellipse cx="1.695" cy="2.212" rx="1.312" ry="1.293" opacity=".1" transform="translate(667.908 417.455)" fill="url(#R)" fill-rule="nonzero"/><path d="M25.447.603S1.705 23.233 1.81 34.123C1.915 45.01.498 59.145.498 59.145l7.94-28.826L25.447.603z" opacity=".1" transform="translate(625.768 278.591)" fill="url(#ae)" fill-rule="nonzero"/><path d="M38.97.345S-2.72 33.385.824 36.919C4.367 40.452 38.97.345 38.97.345z" opacity=".1" transform="translate(614.275 256.565)" fill="url(#af)" fill-rule="nonzero"/><path d="M.24.517s20.045 9.165 18.934 12.766C18.063 16.883.239.517.239.517z" opacity=".1" transform="translate(588.417 355.206)" fill="url(#ag)" fill-rule="nonzero"/><ellipse cx="1.733" cy="1.705" rx="1.312" ry="1.293" opacity=".1" transform="translate(632.472 397.343)" fill="url(#R)" fill-rule="nonzero"/><ellipse cx="2.097" cy="2.088" rx="1.312" ry="1.293" opacity=".1" transform="translate(614.275 394.47)" fill="url(#R)" fill-rule="nonzero"/><ellipse cx="2.097" cy="2.155" rx="1.312" ry="1.293" opacity=".1" transform="translate(647.796 396.386)" fill="url(#R)" fill-rule="nonzero"/><ellipse cx="1.973" cy="1.877" rx="1.312" ry="1.293" opacity=".1" transform="translate(652.584 416.497)" fill="url(#R)" fill-rule="nonzero"/><ellipse cx="1.322" cy="1.484" rx="1.312" ry="1.293" opacity=".1" transform="translate(656.415 394.47)" fill="url(#R)" fill-rule="nonzero"/><ellipse cx="1.647" cy="1.877" rx="1.312" ry="1.293" opacity=".1" transform="translate(660.246 416.497)" fill="url(#R)" fill-rule="nonzero"/><ellipse cx="1.571" cy="1.532" rx="1.312" ry="1.293" opacity=".1" transform="translate(640.134 398.301)" fill="url(#R)" fill-rule="nonzero"/><ellipse cx="2.117" cy="2.212" rx="1.312" ry="1.293" opacity=".1" transform="translate(643.007 417.455)" fill="url(#R)" fill-rule="nonzero"/><ellipse cx="1.456" cy="2.155" rx="1.312" ry="1.293" opacity=".1" transform="translate(624.81 396.386)" fill="url(#R)" fill-rule="nonzero"/><path d="M72.816.833c-.326 1.762-.45 2.873-.45 2.873S54.082 32.264 41.344 36.114c0 0-28.866 20.906-40.675 21.146l53.087-35.904L72.816.833z" opacity=".1" transform="translate(521.376 286.253)" fill="url(#ah)" fill-rule="nonzero"/><path d="M615.616 210.232l-2.03 9.788s-.115.65-.345 1.8c-1.523 7.93-7.844 39.543-12.977 45.969-5.871 7.383-7.5 21.174-7.5 21.174s-18.282 28.558-31.02 32.408c0 0-49.629 35.932-45.377 14.106 4.253-21.825 32.965-30.473 32.965-30.473s3.917-7.384 3.917-8.983c0-1.6 8.495-11.55 8.495-11.55s7.509-13.484 7.834-16.366c.326-2.883 13.408-55.833 13.408-55.833l7.73-.488 24.9-1.552z" fill="url(#ai)" fill-rule="nonzero"/><path d="M31.988.594l-2.03 9.787s-.115.651-.345 1.8c-9.96 1.782-26.443 4.013-28.732-.21-1.053-1.915 1.8-5.612 6.206-9.797l24.9-1.58z" opacity=".1" transform="translate(583.628 209.638)" fill="url(#aj)" fill-rule="nonzero"/><path d="M620.845 218.41s-16.53 3.669-27.381 3.669h-1.58c-3.716-.144-6.532-.824-7.394-2.395-1.073-1.915 1.916-5.746 6.426-9.998 6.005-5.66 14.768-12.162 20.563-16.28 3.582-2.548 6.024-4.195 6.024-4.195l3.342 9.615s-.364 1.715-.756 4.147c-.853 5.267-1.791 13.896.756 15.438z" fill="url(#ak)" fill-rule="nonzero"/><path d="M41.814 59.3c3.23 7.66 6.541 15.297 9.932 22.907-1.11.564-2.288.98-3.506 1.236-6.014 1.264-12.728-1.198-18.618-3.688-8.81-3.715-18.378-8.14-22.362-16.711-2.94-6.33-2.174-13.657-3.305-20.523C2.998 36.593.536 30.914.125 24.928c-.527-6.8 1.513-13.465 2.681-20.187a99.157 99.157 0 0 0 4.29-1.916C13.543-.21 28.053 1.111 33.914 1.81a23.328 23.328 0 0 0-.335 4.175 23.94 23.94 0 0 0 .517 4.53c1.456 7.298 5.555 14.222 5.574 21.71 0 4.646-1.57 9.204-1.446 13.858.124 4.655 1.81 8.974 3.591 13.216z" opacity=".1" transform="translate(477.321 115.786)" fill="url(#al)" fill-rule="nonzero"/><path d="M61.917 59.615c-1.638 5.46-5.555 25.34-5.555 25.34s-.364 1.715-.757 4.147c-.718-.957-1.408-1.915-2.107-2.873-.45-.641-.957-1.293-1.388-1.915a18.369 18.369 0 0 0-5.105-4.788 8.993 8.993 0 0 0-4.789-1.341c-2.739.076-5.2 1.58-7.661 2.768-9.894 4.836-23.637 4.376-30.13-4.415A21.46 21.46 0 0 1 .594 64.5C10.17 38.824 4.827.584 4.827.584s30.37 12.182 49.955 24.383c19.585 12.2 8.772 29.19 7.135 34.648z" opacity=".1" transform="translate(564.474 113.87)" fill="url(#am)" fill-rule="nonzero"/><path d="M527.142 39.995c-1.217 3.687 0 7.662-.355 11.56-.862 9.088-10.132 15.428-12.23 24.315-1.618 6.809 1.236 13.867.958 20.849-.364 7.872-4.789 15.246-4.664 23.137.115 9.012 6.062 17.238 6.09 26.23 0 4.655-1.58 9.214-1.445 13.868.134 4.654 1.915 8.964 3.687 13.206a1204.21 1204.21 0 0 0 9.941 22.908c-6.819 3.486-15.065.527-22.133-2.452-8.82-3.725-18.378-8.13-22.363-16.711-2.93-6.34-2.164-13.656-3.304-20.523-.957-5.928-3.419-11.607-3.83-17.602-.537-6.962 1.618-13.81 2.767-20.705a71.823 71.823 0 0 0-2.24-32.81c-1.916-6.158-4.646-12.096-5.862-18.426-1.216-6.33-.68-13.407 3.39-18.426 4.425-5.478 11.933-7.44 17.498-11.798 5.909-4.635 9.29-11.713 11.435-18.838 1.82-6.062 3.448-13.091 9.089-16.118a14.922 14.922 0 0 1 7.441-1.532c8.62.201 16.636 5.038 25.284 5.564 4.932.307 9.826-.814 14.73-1.37 12.153-1.397 24.9.738 35.254 7.164 10.353 6.426 17.957 17.373 19.058 29.343.652 7.183-.957 14.433-.268 21.606a34.313 34.313 0 0 0 9.577 20.561c3.41 3.486 7.605 6.302 10.238 10.39a27.35 27.35 0 0 1 3.62 11.024c4.224 29.353-12.344 58.418-9.577 87.972.44 4.721 1.916 10.113 6.35 12.01-2.203 3.351-7.518 3.179-10.85.957-3.334-2.222-5.345-5.918-7.778-9.098-2.432-3.18-5.87-6.196-9.922-6.081-2.739.076-5.2 1.57-7.661 2.777-9.894 4.789-23.637 4.358-30.14-4.424-4.903-6.627-4.252-15.668-2.95-23.76 1.303-8.093 2.998-16.731-.364-24.24-2.509-5.62-7.805-10.658-6.905-16.73.68-4.645 4.789-7.92 7.806-11.559 5.746-6.953 7.882-16.28 7.661-25.206-.22-8.926-2.518-17.717-4.788-26.375-1.916-7.039-3.831-14.307-8.553-19.929a18.848 18.848 0 0 0-18.484-6.637c-2.873.508-5.593-.727-8.62.106a9.462 9.462 0 0 0-6.588 5.803z" fill="url(#an)" fill-rule="nonzero"/><g opacity=".1" fill-rule="nonzero"><path d="M144.252 27.188c.182-4.443.67-8.906.47-13.34-.183 4.444-.68 8.906-.47 13.34z" fill="url(#ao)" transform="translate(470.617 28.637)"/><path d="M43.557 49.56c.076-.783.204-1.56.383-2.327 2.107-8.888 11.368-15.227 12.23-24.316.106-1.49.087-2.986-.057-4.472-1.054 8.906-10.094 15.198-12.173 23.942a22.878 22.878 0 0 0-.383 7.173z" fill="url(#ap)" transform="translate(470.617 28.637)"/><path d="M10.458 75.35a71.823 71.823 0 0 0-3.15-23.54c-1.916-6.157-4.646-12.086-5.862-18.416a32.971 32.971 0 0 1-.46-3.38 29.687 29.687 0 0 0 .46 8.188c1.216 6.33 3.965 12.268 5.861 18.426a71.9 71.9 0 0 1 3.151 18.722z" fill="url(#aq)" transform="translate(470.617 28.637)"/><path d="M44.965 128.32c.364-3.62 1.322-7.202 1.312-10.851a20.57 20.57 0 0 0-.144-2.299c-.373 3.831-1.407 7.537-1.302 11.349.048.584.048 1.187.134 1.8z" fill="url(#ar)" transform="translate(470.617 28.637)"/><path d="M40.33 88.5c.728-6.877 4.195-13.456 4.52-20.419a28.174 28.174 0 0 0-.086-3.706c-.69 7.47-4.674 14.509-4.578 22.027.01.737.067 1.408.144 2.097z" fill="url(#as)" transform="translate(470.617 28.637)"/><path d="M161.357 173.215a9.578 9.578 0 0 1-7.662-1.36c-3.333-2.26-5.344-5.908-7.776-9.098-2.433-3.189-5.871-6.186-9.922-6.071-2.74.076-5.2 1.57-7.662 2.767-9.903 4.789-23.646 4.367-30.15-4.414a21.24 21.24 0 0 1-3.83-11.493c-.326 5.852.383 11.675 3.83 16.28 6.504 8.783 20.247 9.252 30.15 4.425 2.452-1.206 4.913-2.7 7.662-2.777 4.05-.115 7.489 2.873 9.922 6.081 2.432 3.209 4.443 6.838 7.776 9.098 3.333 2.26 8.62 2.433 10.851-.957a8.16 8.16 0 0 1-3.189-2.48z" fill="url(#at)" transform="translate(470.617 28.637)"/><path d="M157.976 154.406c.709-23.779 11.234-47.328 10.535-70.992-.728 23.645-11.253 47.194-10.535 70.992z" fill="url(#au)" transform="translate(470.617 28.637)"/><path d="M96.816 119.825a26.91 26.91 0 0 0-1.915-12.795c-1.973-4.396-5.632-8.447-6.704-12.919-.09.33-.161.666-.211 1.006-.89 6.071 4.396 11.109 6.915 16.73a23.338 23.338 0 0 1 1.915 7.978z" fill="url(#av)" transform="translate(470.617 28.637)"/><path d="M36.326 160.162c-8.81-3.716-18.378-8.13-22.362-16.711-2.931-6.33-2.165-13.647-3.305-20.523-.957-5.89-3.38-11.493-3.83-17.488a32.11 32.11 0 0 0 0 4.703c.46 5.995 2.873 11.674 3.83 17.602 1.14 6.866.374 14.183 3.305 20.523 3.984 8.619 13.551 12.986 22.362 16.711 7.068 2.979 15.324 5.938 22.133 2.452a440.553 440.553 0 0 1-1.79-4.07c-6.446 2.222-13.888-.47-20.343-3.199z" fill="url(#aw)" transform="translate(470.617 28.637)"/><path d="M90.15 12.048c4.693 5.621 6.704 12.89 8.553 19.929 2.203 8.293 4.405 16.673 4.788 25.225.058-1.226.087-2.442.058-3.658-.192-8.954-2.51-17.717-4.789-26.384-1.915-7.03-3.83-14.298-8.552-19.92A18.858 18.858 0 0 0 71.724.594c-2.873.517-5.593-.718-8.62.115a9.462 9.462 0 0 0-6.55 5.842c-.58 2.204-.727 4.5-.431 6.76.085-.65.229-1.29.43-1.915a9.481 9.481 0 0 1 6.551-5.841c2.998-.834 5.747.402 8.62-.106a18.848 18.848 0 0 1 18.426 6.599z" fill="url(#ax)" transform="translate(470.617 28.637)"/></g><path d="M119.974.067S135.182 39.859 99.919 55.9c0 0-63.21-7.02-82.594-1.916C-2.059 59.09-2.672 16.118 6.187 13.551 15.046 10.985 119.974.067 119.974.067z" opacity=".1" transform="translate(469.66 202.935)" fill="url(#ay)" fill-rule="nonzero"/><path d="M588.656 201.077s15.209 39.791-20.055 55.832c0 0-63.21-7.02-82.603-1.915-19.394 5.105-19.988-37.867-11.138-40.433 8.849-2.567 113.796-13.484 113.796-13.484z" fill="url(#az)" fill-rule="nonzero"/><path d="M.134.948L5.67 33.193S7.058 8.86.134.948z" opacity=".1" transform="translate(457.209 212.511)" fill="url(#aA)" fill-rule="nonzero"/><path d="M2.74.575S1.483 15.007.89 19.498C.298 23.99 5.01 1.906 2.74.575z" opacity=".1" transform="translate(533.827 175.162)" fill="url(#aB)" fill-rule="nonzero"/><path d="M551.669 382.969s13.408 23.329 24.115 6.8" fill="url(#aC)" fill-rule="nonzero" opacity=".1"/><path d="M612.159 400.61s32.63 16.672 20.734 23.27" fill="url(#aD)" fill-rule="nonzero" opacity=".1"/><path d="M313.282 131.865l-4.386 3.008c0-2.107 7.71-10.477 7.71-10.477-2.002-1.15-9.06 4.453-9.06 4.453.833-3.668 7.077-8.102 7.077-8.102-.555-.288-5.363 2.183-5.363 2.183 1.58-3.37 8.064-8.284 8.064-8.284-.805-.517-5.555 1.57-5.746 1.667.249-.182 8.15-5.823 7.45-5.995-.698-.173-6.703 1.091-6.703 1.091-.47-2.145 9.376-12.296 9.376-12.296s1.226-1.762.785-1.303c-.44.46-5.009 2.088-5.009 2.088.067-3.18 9.577-8.102 9.577-8.102l-4.329-.163 2.874-3.112c-.134.096-4.597 3.572-4.655 2.557-.057-1.015 4.195-5.114 5.114-5.746.92-.632 3.774-.125 3.774-.125s-1.226-3.63-1.466-4.146c.68.565 10.382 4.73 10.382 4.73l.843.163c2.27.46 8.39 1.724 9.347 2.385.958.66 5.584 1.58 8.313 2.116l1.916.364-6.896 43.977h-1.915c-1.111 0-2.222-.096-3.333-.192a53.265 53.265 0 0 1-5.191-.727c-3.467-.661-8.016-1.533-11.493-2.222-2.174-.431-3.945-.805-4.788-1.006-3.477-.823-7.815 1.915-8.811 1.915-.996 0-6.963 5.057-6.963 5.057-.01-.986 3.505-5.756 3.505-5.756z" fill="#E4E3F9" fill-rule="nonzero"/><path d="M313.244 131.78c.067 0 6.81-2.807 9.07-3.697 2.26-.891 29.2 1.072 30.35 1.149v.182c-.278 0-28.033-2.06-30.264-1.169-2.232.891-9.003 3.678-9.07 3.697l-.086-.163zM320.848 91.01a56.036 56.036 0 0 1 5.747-4.117c1.542-.862 4.54-.25 6.704.2.63.152 1.27.26 1.915.327 1.35 0 8.677 2.116 8.984 2.212.076 0 8.016 1.915 9.021 1.848a29.91 29.91 0 0 1 4.731.872v.172a30.514 30.514 0 0 0-4.683-.872c-1.034.058-8.744-1.771-9.07-1.848-.086 0-7.661-2.203-8.945-2.212a12.863 12.863 0 0 1-1.972-.326c-2.05-.411-5.134-1.044-6.618-.22a56.122 56.122 0 0 0-5.747 4.099l-.067-.134z" fill="#000" fill-rule="nonzero" opacity=".1"/><path d="M322.438 91.509c.68-.766 8.62-1.044 9.357-.766.738.277 9.836 1.187 10.315 1.178.153 0 11.99 2.327 15.61 3.045v.172c-5.276-1.043-15.323-3.026-15.582-3.035-.047 0-9.577-.862-10.381-1.198-.805-.335-8.62.135-9.156.719l-.163-.115zM317.39 99.85c2.453-4.242 16.282-5.487 16.378-5.497 1.465-.134 22.43 3.917 23.33 4.09v.172c-.22 0-21.836-4.214-23.282-4.09-3.831.336-14.241 1.964-16.281 5.411l-.144-.086zM316.462 104.754c3.888-4.454 16.281-4.138 16.367-4.138.958 0 21.951 3.199 22.852 3.333v.172c-.22 0-21.913-3.284-22.823-3.323-.124 0-12.393-.316-16.233 4.07l-.163-.114z" fill="#000" fill-rule="nonzero" opacity=".1"/><path d="M312.775 109.686c1.465-2.778 5.564-4.789 12.201-5.9a66.68 66.68 0 0 1 9.711-.89l21.405 2.49v.172l-21.395-2.48c-.172 0-18.532.143-21.807 6.818l-.163-.076s.029-.096.048-.134z" fill="#000" fill-rule="nonzero" opacity=".1"/><path d="M312.248 111.352c2.05-2.28 10.075-4.099 13.916-4.559 3.61-.44 27.496 3.4 28.511 3.563v.172c-.24 0-24.9-3.993-28.463-3.562-3.563.43-11.81 2.289-13.801 4.5l-.163-.114z" fill="#000" fill-rule="nonzero" opacity=".1"/><path d="M316.94 112.204l9.051-1.522a23.695 23.695 0 0 1 7.03-.135l10.085 1.312 11.052 2.127v.172l-11.043-2.126-10.037-1.303a23.37 23.37 0 0 0-6.981.125l-9.05 1.523-.106-.173zM309.365 122.48c1.916-3.543 10.21-5.305 14.778-6.273.958-.2 1.733-.364 2.183-.498 2.577-.737 26.702 1.734 27.727 1.84v.181c-.25 0-25.112-2.576-27.66-1.848-.46.134-1.225.297-2.193.498-4.376.957-13.484 2.873-14.835 6.598l-.172-.067c.05-.147.107-.29.172-.43z" fill="#000" fill-rule="nonzero" opacity=".1"/><path d="M314.374 120.795c.048 0 4.607-1.475 5.65-1.964 1.045-.488 12.978-.785 13.485-.804l20.438 1.274v.182l-20.418-1.274c-.115 0-12.374.306-13.409.785-1.034.479-5.487 1.916-5.679 1.973l-.067-.172z" fill="#000" fill-rule="nonzero" opacity=".1"/><path d="M307.479 128.8c4.491-6.435 21.654-8.934 23.196-8.829 1.541.105 22.841 1.494 23.052 1.513v.173l-23.072-1.504c-1.522-.115-18.57 2.365-22.985 8.744l-.191-.096z" fill="#000" fill-rule="nonzero" opacity=".1"/><path d="M309.346 133.522c4.06-7.719 21.52-9.462 23.139-9.385l20.4.958v.172l-20.4-.958c-1.696-.086-20.879 1.83-23.493 10.535h-.173c.132-.457.308-.9.527-1.322z" fill="#000" fill-rule="nonzero" opacity=".1"/><path d="M350.308 134.796l6.905-44.321 1.915.363-6.895 43.977c-.651 0-1.293 0-1.925-.02z" fill="#000" fill-rule="nonzero" opacity=".1"/><path d="M350.768 135.763l7.202-46.198 8.83 2.873 6.455 2.097s4.52-.958 5.957 2.394c1.436 3.352-3.151 13.11-.958 15.218 2.193 2.107 20.974 3.83 20.974 3.83s27.2 7.375 30.073 7.806c2.873.43 18.417 9.691 18.417 9.691.852 2.184-9.577 2.29-11.962 2.93-2.385.642-24.68-3.629-26.136-4.931-1.456-1.303-22.239-7.02-22.239-7.02-6.704-3.524-10.994-2.04-10.994-2.04a52.91 52.91 0 0 1-3.228 13.302 3.553 3.553 0 0 1-3.745 2.078l-10.027-.823-8.62-1.207z" fill="#535461" fill-rule="nonzero"/><path d="M350.768 135.763l7.202-46.198 8.83 2.873c-1.38 4.453-9.884 32.56-7.403 44.532l-8.63-1.207z" fill="#000" fill-rule="nonzero" opacity=".1"/><path d="M313.282 131.865l-4.386 3.008c0-2.107 7.71-10.477 7.71-10.477-1.992-1.15-9.06 4.453-9.06 4.453.833-3.668 7.077-8.102 7.077-8.102-.555-.297-5.363 2.183-5.363 2.183 1.58-3.38 8.064-8.284 8.064-8.284-.805-.517-5.555 1.57-5.746 1.667.249-.182 8.15-5.823 7.45-5.995-.698-.173-6.703 1.091-6.703 1.091-.47-2.154 9.376-12.306 9.376-12.306s1.226-1.752.785-1.293c-.44.46-5.009 2.079-5.009 2.079.067-3.17 9.577-8.093 9.577-8.093l-4.319-.163 2.873-3.112c-.134.096-4.597 3.572-4.654 2.557-.058-1.015 4.194-5.114 5.114-5.746.92-.632 3.773-.125 3.773-.125s-1.226-3.63-1.465-4.146c.68.565 10.382 4.73 10.382 4.73l.843.163c-.891.728-1.791 1.38-2.366 1.916a7.068 7.068 0 0 0-2.069 2.576 5.305 5.305 0 0 0 .642 4.29c.728 1.303 1.714 2.442 2.433 3.754.36.544.501 1.205.392 1.849a3.16 3.16 0 0 1-1.235 1.446 24.124 24.124 0 0 0-7.787 10.956c-.177.42-.26.875-.239 1.33.143.603.407 1.17.776 1.667a6.12 6.12 0 0 1-.757 6.934c-.776.852-1.858 1.609-1.915 2.748.013.653.205 1.289.555 1.839.766 1.456 1.523 2.92 2.29 4.396-2.175-.44-3.947-.805-4.79-1.006-3.476-.823-7.814 1.915-8.8 1.915-.987 0-6.973 5.057-6.973 5.057.01-.986 3.524-5.756 3.524-5.756z" fill="#2EA52C" fill-rule="nonzero"/><path d="M460.13 391.29l4.156 16.913s93.158 30.646 123.355 1.916c30.197-28.73-3.323-84.611-3.323-84.611l-20.429-21.385-53.958-6.388h-19.154l-30.647 93.556z" fill="#5E52AD" fill-rule="nonzero"/><path d="M460.13 391.29l4.156 16.913s93.158 30.646 123.355 1.916c30.197-28.73-3.323-84.611-3.323-84.611l-20.429-21.385-53.958-6.388h-19.154l-30.647 93.556z" fill="#000" fill-rule="nonzero" opacity=".03"/><path d="M686.478 268.047l-8.945 10.372-30.963 56.35-10.535 19.795s-7.959 10.075-7.174 14.288c.786 4.214 3.027 35.511-23.79 38.059-26.816 2.547-84.92-61.292-84.92-61.292l2.365-1.628 51.908-35.721 18.647-20.39 4.98-5.448s24.27-33.194 23.627-38.308c-.641-5.114 24.26-35.75 38.625-34.792 14.366.958 25.227.958 30.331 19.47 5.105 18.512-4.156 39.245-4.156 39.245z" fill="#5E52AD" fill-rule="nonzero"/><path fill="#784D55" fill-rule="nonzero" d="M500.756 52.512h98.406v74.459h-98.406z"/><path fill="#000" fill-rule="nonzero" opacity=".1" d="M500.756 52.512h98.406v74.459h-98.406z"/><path d="M473.864 207.599c0 1.36-.125 3.227-.316 5.334-.738 8.188-2.558 20.025-2.558 20.025s-3.83 20.8-2.873 22.496c.958 1.695-.957 15.562-2.24 18.607-1.284 3.046-8.936 0-8.936 0l-25.275-67.86-1.408-3.745-.545-1.475.574-2.27 2.06-8.217s41.517 10.516 41.517 17.105zM589.422 140.484v10.726l-7.661 37.484-16.598 22.256-36.71 4.789-35.119-13.772s-23.301-37.608 3.831-58.801a51.907 51.907 0 0 0 15.544-19.776 64.162 64.162 0 0 0 5.373-25.407 58.923 58.923 0 0 0-.805-11.243s57.463-26.49 48.202 0a30.099 30.099 0 0 0-1.302 14.24 44.818 44.818 0 0 0 4.597 13.973c7.422 14.662 20.648 25.531 20.648 25.531z" fill="#F8BDC5" fill-rule="nonzero"/><path d="M565.48 86.71a30.099 30.099 0 0 0-1.303 14.242c-14.338 9.3-33.083 8.081-46.095-2.998a58.923 58.923 0 0 0-.805-11.243s57.463-26.48 48.202 0z" fill="#000" fill-rule="nonzero" opacity=".1"/><ellipse fill="#F8BDC5" fill-rule="nonzero" cx="543.136" cy="66.638" rx="38.625" ry="38.623"/><path d="M589.422 140.484v10.726l-7.661 37.484-16.598 22.256-36.71 4.789-35.119-13.772s-23.301-37.608 3.831-58.801a51.907 51.907 0 0 0 15.544-19.776c-21.223 81.25 24.02 77.036 24.02 77.036 41.373 0 33.05-77.218 32.045-85.473 7.422 14.662 20.648 25.531 20.648 25.531z" fill="#000" fill-rule="nonzero" opacity=".1"/><path d="M624.542 176.77c-1.6 5.431-5.43 25.217-5.43 25.217s-1.073.421-2.797 1.216c-6.608 3.036-22.765 11.492-23.943 21.94v.47c-.958 13.407-12.766 41.821-18.829 54.587-6.062 12.766 2.873 26.5 2.873 26.5l-12.134 2.872s-16.923 2.232-31.289-1.283c-14.365-3.515-12.45 5.746-21.386 2.557-8.935-3.19-38.308-5.43-43.097-8.303-4.789-2.873-8.936-28.405-6.388-31.604 2.547-3.198 10.535-70.542 10.535-70.542s-32.237-30.014-31.605-49.483c.632-19.47 23.943-20.428 23.943-20.428s8.964-3.14 16.56-6.407a97.927 97.927 0 0 0 4.194-1.915c6.302-3.026 20.495-1.705 26.174-1.015 1.504.192 2.414.326 2.414.326a252.154 252.154 0 0 0-2.232 8.341c-13.025 52.299 2.26 67.938 13.926 72.544a25.793 25.793 0 0 0 10.774 1.848c14.663 0 23.09-9.7 27.774-22.6 9.338-25.542 4.147-63.59 4.147-63.59s29.69 12.124 48.844 24.257c19.154 12.134 8.571 29.047 6.972 34.496z" fill="#000" fill-rule="nonzero" opacity=".1"/><path d="M624.542 174.856c-1.6 5.43-5.43 25.215-5.43 25.215s-1.073.422-2.797 1.216c-6.608 3.036-22.765 11.493-23.943 21.94v.47c-.958 13.408-12.766 41.822-18.829 54.588-6.062 12.766 2.873 26.499 2.873 26.499l-12.134 2.873s-16.923 2.231-31.289-1.283c-14.365-3.515-12.45 5.746-21.386 2.557-8.935-3.19-38.308-5.43-43.097-8.304-4.789-2.873-8.936-28.404-6.388-31.603 2.547-3.199 10.535-70.543 10.535-70.543s-32.237-30.013-31.605-49.483c.632-19.47 23.943-20.427 23.943-20.427s8.964-3.141 16.56-6.407a97.927 97.927 0 0 0 4.194-1.915c6.302-3.027 20.495-1.705 26.174-1.015 1.504.191 2.414.325 2.414.325a252.154 252.154 0 0 0-2.232 8.342c-13.025 52.298 2.26 67.937 13.926 72.544a25.793 25.793 0 0 0 10.774 1.848c14.663 0 23.09-9.701 27.774-22.601 9.338-25.541 4.147-63.59 4.147-63.59s29.69 12.124 48.844 24.258c19.154 12.134 8.571 29.046 6.972 34.496z" fill="#EB6475" fill-rule="nonzero"/><path d="M473.864 207.599v5.746l-.316-.403c-13.476-17.075-35.302-9.576-41.882-6.703-1.245.536-1.915.9-1.915.9s.373-2.193.546-4.645c.09-1.246.09-2.498 0-3.744l2.059-8.217s41.508 10.477 41.508 17.066z" fill="#000" fill-rule="nonzero" opacity=".1"/><path d="M450.878 147.083l-8.322 10.831s-14.031 34.151-12.748 36.698c1.284 2.548-.086 10.535-.086 10.535s28.176-14.643 44.142 6.244v-10.678s1.59-4.472 2.231-5.746c.642-1.274 0-11.176 0-11.176l-25.217-36.708z" fill="#EB6475" fill-rule="nonzero"/><path d="M465.876 274.138c-.07.365-.179.722-.325 1.063-4.07 9.251-34.565-4.262-34.565-4.262s-.258-1.273-.66-3.342c-1.61-8.322-5.44-29.592-3.39-33.681 2.547-5.114 2.786-21.07 2.786-21.07 8.543-15.322 4.233-46.293 4.233-46.293 3.831-6.704-2.231-12.766-2.231-12.766s-53-31.288-16.607-35.434c36.393-4.147 43.423 39.887 40.55 44.694-2.873 4.808 2.231 43.709 2.231 43.709l5.105 30.08s5.076 26.011 2.873 37.302zM619.39 424.695l-9.472-.47-36.854-1.81-.047-1.178-.786-19.048 27.985-14.317.038-.02.355.26.718.507.776.546 15.984 11.406z" fill="#F8BDC5" fill-rule="nonzero"/><path fill="#000" fill-rule="nonzero" opacity=".1" d="M602.198 389.06l-.095.105-29.086 32.072-.786-19.048 27.985-14.317.393.24zM465.55 275.201c-4.07 9.251-34.564-4.262-34.564-4.262s-.258-1.273-.66-3.342c4.07-1.705 9.242-2.059 16.08-.163 8.868 2.462 14.978 5.258 19.145 7.767z"/><path d="M464.286 408.203s-17.88-8.954-18.838-13.742c-.958-4.789-6.062-19.795-8.303-22.984-2.242-3.19-15.956-24.9-19.155-34.16-3.199-9.262-12.766-35.435-5.746-45.328s11.176-29.046 34.162-22.668c22.985 6.378 27.458 15.007 27.458 15.007l2.518 5.43s55.548 51.657 56.506 53.275c.958 1.619 30.647 23.942 30.647 23.942l36.72 22.027-30.945 34.19s-39.266-15.324-40.54-21.711c-1.274-6.388-12.067-12.125-12.067-12.125l-14.75-5.746-37.667 24.593z" fill="#5E52AD" fill-rule="nonzero"/><path d="M426.935 331.915s6.704 6.704 6.704 9.251c0 2.547 9.242 7.03 9.242 7.03s73.438 45.614 82.058 45.47l15.323 15.495 21.626-44.829-27.085-21.28-56.505-50.756s-10.535-7.02-16.281-7.978c-5.747-.957-35.11-14.365-37.668 11.492-2.557 25.858 2.586 36.105 2.586 36.105z" fill="#000" fill-rule="nonzero" opacity=".1"/><path d="M425.02 333.83s6.704 6.704 6.704 9.251c0 2.548 9.242 7.03 9.242 7.03s73.438 45.614 82.057 45.47l15.324 15.496 21.625-44.83-27.084-21.279-56.506-50.757s-10.535-7.02-16.28-7.977c-5.747-.958-35.111-14.366-37.668 11.492-2.557 25.857 2.586 36.104 2.586 36.104z" fill="#000" fill-rule="nonzero" opacity=".1"/><path d="M425.02 331.915s6.704 6.704 6.704 9.251c0 2.547 9.242 7.03 9.242 7.03s73.438 45.614 82.057 45.47l15.324 15.495 21.625-44.829-27.084-21.28-56.506-50.756s-10.535-7.02-16.28-7.978c-5.747-.957-35.111-14.365-37.668 11.492-2.557 25.858 2.586 36.105 2.586 36.105z" fill="#5E52AD" fill-rule="nonzero"/><path d="M425.02 331.915s6.704 6.704 6.704 9.251c0 2.547 9.242 7.03 9.242 7.03s73.438 45.614 82.057 45.47l15.324 15.495 21.625-44.829-27.084-21.28-56.506-50.756s-10.535-7.02-16.28-7.978c-5.747-.957-35.111-14.365-37.668 11.492-2.557 25.858 2.586 36.105 2.586 36.105z" fill="#5E52AD" fill-rule="nonzero"/><path d="M432.04 351.365s19.288 31.977 29.756 34.821c10.468 2.845-29.756-34.82-29.756-34.82z" fill="#000" fill-rule="nonzero" opacity=".1"/><path fill="#F8BDC5" fill-rule="nonzero" d="M582.086 360.09l-2.902 16.386-2.662 15.045-1.14 6.474-25.14-7.978 2.567-14.03.143-.776 1.676-9.136z"/><path d="M576.522 391.52l-1.14 6.475-25.14-7.978 2.605-14.03c3.678-4.721 13.35-.957 13.35-.957 13.409-1.6 8.898 14.049 8.898 14.049a5.171 5.171 0 0 1 1.427 2.442z" fill="#000" fill-rule="nonzero" opacity=".1"/><path d="M579.213 444.605c-6.704-6.072-30.973-8.945-38.95-8.945-7.978 0-4.79-2.547-4.79-2.547l-5.276-3.831c-3.61-2.614-1.916-8.801-.546-12.45.66-1.705 1.264-2.873 1.264-2.873s2.002-15.007 4.003-19.479c2.002-4.472 16.56-11.224 16.56-11.224-1.236-13.408 14.681-7.288 14.681-7.288 13.408-1.6 8.898 14.05 8.898 14.05 2.557 1.915 3.198 12.123 2.557 15.638-.642 3.515 2.231 14.662 2.231 14.662s2.691 10.104 4.32 16.003c.316 1.13.584 2.116.794 2.873 1.274 4.453-5.746 5.41-5.746 5.41z" fill="#FFC075" fill-rule="nonzero"/><path d="M579.213 444.605c-6.704-6.072-30.973-8.945-38.95-8.945-7.978 0-4.79-2.547-4.79-2.547l-5.276-3.831c-3.61-2.614-1.916-8.801-.546-12.45l7.145 6.388s-2.04 1.6 0 1.6h8.39s26.815 5.678 38.998 11.491c.316 1.13.584 2.117.795 2.873 1.254 4.463-5.766 5.42-5.766 5.42z" fill="#000" fill-rule="nonzero" opacity=".1"/><ellipse fill="#000" fill-rule="nonzero" opacity=".1" cx="550.242" cy="389.136" rx="1.283" ry="1.283"/><ellipse fill="#000" fill-rule="nonzero" opacity=".1" cx="552.809" cy="399.278" rx="1.283" ry="1.283"/><ellipse fill="#000" fill-rule="nonzero" opacity=".1" cx="552.119" cy="395.514" rx="1.283" ry="1.283"/><ellipse fill="#000" fill-rule="nonzero" opacity=".1" cx="552.809" cy="404.344" rx="1.283" ry="1.283"/><ellipse fill="#000" fill-rule="nonzero" opacity=".1" cx="546.641" cy="409.583" rx="1.283" ry="1.283"/><path d="M619.39 424.695l-9.472-.47a3.313 3.313 0 0 1 0-1.81s6.943-6.646-4.55-19.364c0 0 .661-2.978 3.324-2.222 0 0-6.312-10.61-7.27-11.693a.852.852 0 0 1-.114-.517l.775.546 15.985 11.406 1.321 24.124z" fill="#000" fill-rule="nonzero" opacity=".1"/><path d="M700.92 400.57a20.522 20.522 0 0 1-2.5 10.459 20.81 20.81 0 0 1-4.481 5.794h-.087a69.543 69.543 0 0 1-29.507 5.315c-13.054-.489-29.594-.45-35.168 2.518 0 0-19.279 5.383-17.363-2.279 0 0 6.943-6.646-4.55-19.364 0 0 .662-2.979 3.324-2.222 0 0-6.311-10.611-7.27-11.693-.526-.594.901-4.789 2.29-8.409.402-1.063.804-2.087 1.159-2.959a186.943 186.943 0 0 1 1.091-2.643c.211.124 1.332.804 2.989 1.685 3.093 1.638 8.064 3.965 12.584 4.664 6.934 1.083 12.93 3.352 23.943 0 11.014-3.352 15.803-7.977 30.762-2.432 14.96 5.545 22.43 11.33 22.784 21.567z" fill="#FFC075" fill-rule="nonzero"/><path d="M700.92 400.57a20.522 20.522 0 0 1-2.5 10.459c-2.68-11.282-6.11-18.196-17.65-26.92-12.69-9.577-32.323.842-32.323.842s-15.918.709-27.535.709a25.294 25.294 0 0 1-15.323-4.932 16.54 16.54 0 0 1-2.404-2.126l3.563-.834 4.08-.957c3.093 1.637 8.063 3.965 12.584 4.664 6.934 1.082 12.93 3.352 23.943 0 11.014-3.352 15.802-7.978 30.762-2.433s22.449 11.291 22.803 21.529z" fill="#000" fill-rule="nonzero" opacity=".1"/><path d="M632.52 233.57s-8.62 13.092-8.294 16.923c.326 3.83-7.03 11.492-7.03 11.492s-7.978 8.62-7.978 12.124c0 3.505-14.681 34.027-14.681 34.027s-19.48 18.33-23.627 21.203c-4.147 2.873-14.366 22.342-18.513 24.9-4.147 2.556-4.07 20.944-4.07 20.944l29.287-30.646s32.562 32.963 34.478 33.605c1.915.642 7.661-26.815 7.661-26.815s17.881-17.162 22.986-21.826c5.104-4.663 24.833-36.487 24.833-36.487s17.948-33.624 16.349-43.517c-1.6-9.893-16.76-3.936-51.401-15.926z" fill="#000" fill-rule="nonzero" opacity=".1"/><path d="M635.393 233.57s-8.62 13.092-8.294 16.923c.326 3.83-7.03 11.492-7.03 11.492s-7.977 8.62-7.977 12.124c0 3.505-14.682 34.027-14.682 34.027s-19.48 18.33-23.627 21.203c-4.147 2.873-14.366 22.342-18.513 24.9-4.147 2.556-4.07 20.944-4.07 20.944s33.644-21.902 46.21 27.897l11.492-16.74s4.147-8.801 6.063-8.16c1.915.642 7.662-26.815 7.662-26.815s17.88-17.161 22.985-21.825c5.105-4.664 24.834-36.488 24.834-36.488s17.947-33.624 16.348-43.517c-1.6-9.892-20.275-7.345-51.401-15.964z" fill="#000" fill-rule="nonzero" opacity=".1"/><path d="M582.086 360.09l-2.873 16.386c-9.893-6.848-20.725-3.707-26.232-1.265l1.676-9.136 27.43-5.985z" fill="#000" fill-rule="nonzero" opacity=".1"/><path d="M634.435 233.57s-8.62 13.092-8.294 16.923c.326 3.83-7.03 11.492-7.03 11.492s-7.977 8.62-7.977 12.124c0 3.505-14.682 34.027-14.682 34.027s-19.48 18.33-23.627 21.203c-4.147 2.873-14.366 22.342-18.513 24.9-4.147 2.556-4.07 20.944-4.07 20.944s33.645-21.902 46.21 27.897l11.493-16.74s4.147-8.801 6.062-8.16c1.916.642 7.662-26.815 7.662-26.815s17.88-17.161 22.985-21.825c5.105-4.664 24.834-36.488 24.834-36.488s17.948-33.624 16.348-43.517c-1.6-9.892-16.281-39.245-51.4-15.964z" fill="#5E52AD" fill-rule="nonzero"/><path d="M485.988 265.51s47.35-17.89 74.013 5.745l-74.013-5.746zM490.873 277.241s37.897 6.464 52.263 5.19c14.365-1.273-52.263-5.19-52.263-5.19zM479.926 130.889s-2.979 19.699 4.099 24.487c7.078 4.789-4.099-24.487-4.099-24.487zM460.13 139.096s9.922 15.964 10.87 24.267M487.272 343.053s35.751 26.815 32.878 39.264c-2.873 12.45-2.126 0-2.126 0l-30.752-39.264z" fill="#000" fill-rule="nonzero" opacity=".1"/><ellipse fill="#000" fill-rule="nonzero" opacity=".1" cx="661.682" cy="392.938" rx="1.283" ry="1.283"/><ellipse fill="#000" fill-rule="nonzero" opacity=".1" cx="666.806" cy="419.791" rx="1.283" ry="1.283"/><path d="M648.81 280.028s-23.176 22.496-23.1 33.365c.077 10.87-1.283 24.9-1.283 24.9l7.758-28.73 16.626-29.535zM650.803 257.848s-40.76 32.887-37.351 36.392c3.41 3.505 37.35-36.392 37.35-36.392zM587.641 356.154s19.605 9.117 18.513 12.698c-1.092 3.582-18.513-12.698-18.513-12.698z" fill="#000" fill-rule="nonzero" opacity=".1"/><ellipse fill="#000" fill-rule="nonzero" opacity=".1" cx="632.194" cy="399.278" rx="1.283" ry="1.283"/><ellipse fill="#000" fill-rule="nonzero" opacity=".1" cx="614.745" cy="396.798" rx="1.283" ry="1.283"/><ellipse fill="#000" fill-rule="nonzero" opacity=".1" cx="647.527" cy="398.77" rx="1.283" ry="1.283"/><ellipse fill="#000" fill-rule="nonzero" opacity=".1" cx="652.086" cy="418.508" rx="1.283" ry="1.283"/><ellipse fill="#000" fill-rule="nonzero" opacity=".1" cx="655.189" cy="396.204" rx="1.283" ry="1.283"/><ellipse fill="#000" fill-rule="nonzero" opacity=".1" cx="659.259" cy="418.508" rx="1.283" ry="1.283"/><ellipse fill="#000" fill-rule="nonzero" opacity=".1" cx="639.511" cy="400.054" rx="1.283" ry="1.283"/><ellipse fill="#000" fill-rule="nonzero" opacity=".1" cx="642.863" cy="419.791" rx="1.283" ry="1.283"/><ellipse fill="#000" fill-rule="nonzero" opacity=".1" cx="624.427" cy="398.77" rx="1.283" ry="1.283"/><path d="M593.071 287.88c-.316 1.753-.44 2.874-.44 2.874s-17.881 28.414-30.331 32.245c0 0-28.224 20.8-39.775 21.069l51.909-35.722 18.637-20.465z" fill="#000" fill-rule="nonzero" opacity=".1"/><path d="M614.007 211.42l-1.982 9.701s-.115.651-.336 1.8c-1.494 7.882-7.661 39.342-12.69 45.758-5.746 7.346-7.336 21.07-7.336 21.07s-17.88 28.414-30.33 32.244c0 0-48.528 35.75-44.372 14.04 4.157-21.71 32.237-30.32 32.237-30.32s3.83-7.346 3.83-8.945c0-1.6 8.304-11.492 8.304-11.492s7.346-13.408 7.662-16.28c.316-2.874 13.092-55.546 13.092-55.546l7.557-.488 24.364-1.542z" fill="#F8BDC5" fill-rule="nonzero"/><path d="M614.007 211.42l-1.982 9.701s-.115.651-.336 1.8c-9.74 1.772-25.858 3.984-28.118-.21-1.025-1.916 1.762-5.584 6.072-9.75l24.364-1.541z" fill="#000" fill-rule="nonzero" opacity=".1"/><path d="M619.112 219.55s-16.157 3.678-26.816 3.678h-1.542c-3.63-.144-6.388-.814-7.231-2.375-1.044-1.915 1.848-5.746 6.282-9.95 5.871-5.632 14.443-12.105 20.113-16.214 3.495-2.528 5.89-4.166 5.89-4.166l3.256 9.577s-.355 1.705-.738 4.118c-.775 5.22-1.695 13.8.786 15.332z" fill="#EB6475" fill-rule="nonzero"/><path d="M519.671 176.445a953.819 953.819 0 0 0 9.712 22.793 13.409 13.409 0 0 1-3.429 1.226c-5.88 1.264-12.45-1.188-18.197-3.668-8.62-3.697-17.976-8.092-21.864-16.625-2.874-6.302-2.127-13.59-3.238-20.418-.957-5.9-3.342-11.55-3.83-17.506-.508-6.762 1.484-13.408 2.624-20.112a97.928 97.928 0 0 0 4.195-1.915c6.301-3.026 20.495-1.705 26.174-1.015a24.094 24.094 0 0 0-.326 4.156 23.75 23.75 0 0 0 .508 4.51c1.418 7.26 5.43 14.146 5.45 21.597 0 4.625-1.542 9.165-1.418 13.79.125 4.626 1.896 8.964 3.64 13.187zM624.542 174.856c-1.6 5.43-5.43 25.215-5.43 25.215s-.355 1.705-.738 4.118c-.708-.957-1.379-1.915-2.059-2.873-.44-.641-.89-1.283-1.36-1.915a18.273 18.273 0 0 0-4.99-4.721 8.735 8.735 0 0 0-4.712-1.332c-2.681.077-5.085 1.57-7.489 2.758-9.673 4.789-23.12 4.348-29.469-4.395a21.643 21.643 0 0 1-3.764-11.98c9.338-25.542 4.147-63.59 4.147-63.59s29.69 12.124 48.844 24.257c19.154 12.134 8.62 29.008 7.02 34.458z" fill="#000" fill-rule="nonzero" opacity=".1"/><path d="M527.496 42.035c-1.188 3.668 0 7.662-.345 11.492-.843 9.04-9.903 15.323-11.962 24.191-1.58 6.771 1.207 13.8.891 20.744-.354 7.843-4.655 15.17-4.559 22.984.115 8.964 5.929 17.133 5.957 26.097 0 4.635-1.542 9.174-1.417 13.8.124 4.625 1.867 8.916 3.61 13.14a953.82 953.82 0 0 0 9.712 22.792c-6.704 3.467-14.73.517-21.635-2.442-8.62-3.697-17.977-8.093-21.865-16.626-2.873-6.301-2.117-13.589-3.237-20.417-.958-5.9-3.343-11.55-3.831-17.507-.517-6.933 1.59-13.752 2.71-20.609a72.704 72.704 0 0 0-2.155-32.628c-1.857-6.13-4.54-12.028-5.746-18.33-1.207-6.301-.67-13.312 3.314-18.33 4.32-5.45 11.665-7.412 17.114-11.75 5.747-4.597 9.08-11.646 11.177-18.733 1.781-6.033 3.371-13.024 8.888-16.04a14.366 14.366 0 0 1 7.269-1.524c8.476.202 16.281 5.01 24.728 5.536 4.789.306 9.577-.805 14.366-1.37 11.885-1.388 24.355.738 34.478 7.135 10.123 6.397 17.565 17.286 18.637 29.2.642 7.144-.957 14.365-.268 21.49a34.476 34.476 0 0 0 9.434 20.494c3.333 3.467 7.441 6.263 10.008 10.334a27.427 27.427 0 0 1 3.543 10.975c4.138 29.19-12.067 58.15-9.366 87.512.43 4.702 1.915 10.065 6.206 11.962-2.145 3.323-7.346 3.16-10.602.957-3.256-2.202-5.23-5.89-7.604-9.06-2.376-3.17-5.747-6.157-9.702-6.042-2.682.076-5.086 1.57-7.49 2.758-9.672 4.788-23.119 4.348-29.469-4.396-4.788-6.598-4.166-15.59-2.873-23.645 1.293-8.054 2.93-16.644-.345-24.114-2.46-5.593-7.661-10.611-6.761-16.645.67-4.625 4.683-7.881 7.662-11.492 5.622-6.914 7.71-16.166 7.518-25.072-.192-8.906-2.452-17.63-4.712-26.25-1.83-7-3.774-14.231-8.361-19.824a18.264 18.264 0 0 0-18.072-6.608c-2.816.508-5.469-.718-8.4.106a9.338 9.338 0 0 0-6.445 5.755z" fill="#784D55" fill-rule="nonzero"/><g opacity=".1" fill="#000" fill-rule="nonzero"><path d="M613.28 57.789c.172-4.425.65-8.859.45-13.273-.173 4.424-.661 8.858-.45 13.273zM514.816 80.045c.073-.78.198-1.554.373-2.317 2.06-8.85 11.12-15.15 11.962-24.191a28.834 28.834 0 0 0 0-4.453c-1.044 8.868-9.883 15.121-11.914 23.855a22.983 22.983 0 0 0-.421 7.106zM482.445 105.702a72.56 72.56 0 0 0-3.065-23.416c-1.867-6.129-4.55-12.028-5.746-18.33a32.244 32.244 0 0 1-.45-3.361 30.166 30.166 0 0 0 .45 8.15c1.187 6.301 3.83 12.2 5.746 18.33a72.78 72.78 0 0 1 3.065 18.627zM516.195 158.384c.354-3.592 1.293-7.164 1.283-10.794a20.11 20.11 0 0 0-.143-2.279c-.364 3.764-1.38 7.499-1.274 11.291.019.594.067 1.197.134 1.782zM511.665 118.793c.718-6.847 4.109-13.407 4.425-20.322.05-1.23.025-2.46-.077-3.687-.68 7.432-4.568 14.442-4.482 21.921 0 .7.057 1.399.134 2.088zM630.01 203.078a9.262 9.262 0 0 1-7.45-1.35c-3.266-2.25-5.23-5.89-7.605-9.06-2.375-3.17-5.746-6.157-9.702-6.043-2.681.077-5.085 1.571-7.489 2.759-9.673 4.788-23.12 4.347-29.469-4.396a21.27 21.27 0 0 1-3.726-11.435c-.325 5.813.364 11.607 3.726 16.223 6.35 8.744 19.796 9.203 29.47 4.396 2.403-1.188 4.788-2.682 7.488-2.758 3.965-.115 7.317 2.873 9.702 6.043s4.339 6.809 7.605 9.06c3.265 2.25 8.456 2.413 10.611-.958a7.978 7.978 0 0 1-3.16-2.48zM626.697 184.356c.69-23.645 10.985-47.08 10.257-70.629-.67 23.53-10.956 46.955-10.257 70.629zM566.897 149.956a27.197 27.197 0 0 0-1.84-12.728c-1.915-4.376-5.506-8.408-6.55-12.852-.086.326-.153.652-.21.958-.872 6.033 4.3 11.052 6.76 16.644a23.75 23.75 0 0 1 1.84 7.978zM507.748 190.092c-8.62-3.696-17.977-8.092-21.865-16.625-2.873-6.302-2.117-13.59-3.237-20.418-.958-5.87-3.304-11.492-3.774-17.4a31.841 31.841 0 0 0 0 4.682c.45 5.957 2.874 11.607 3.831 17.507 1.12 6.828.374 14.116 3.237 20.417 3.889 8.533 13.246 12.929 21.865 16.626 6.915 2.959 14.97 5.909 21.635 2.442-.584-1.35-1.159-2.7-1.752-4.051-6.35 2.202-13.629-.47-19.94-3.18zM560.375 42.725c4.587 5.593 6.531 12.823 8.36 19.824 2.165 8.245 4.31 16.587 4.655 25.1.067-1.216.086-2.432.058-3.639-.182-8.916-2.452-17.63-4.712-26.25-1.83-7-3.774-14.23-8.361-19.824a18.255 18.255 0 0 0-18.073-6.608c-2.815.508-5.468-.718-8.399.115a9.309 9.309 0 0 0-6.407 5.804 18.023 18.023 0 0 0-.421 6.704c.086-.65.227-1.29.421-1.916a9.309 9.309 0 0 1 6.407-5.803c2.93-.834 5.584.392 8.4-.115a18.255 18.255 0 0 1 18.072 6.608z"/></g><path d="M588.599 204.218s14.873 39.59-19.605 55.545c0 0-61.754-6.981-80.765-1.915-19.01 5.066-19.547-37.666-10.889-40.223 8.658-2.557 111.259-13.407 111.259-13.407z" fill="#000" fill-rule="nonzero" opacity=".1"/><path d="M587.641 202.303s14.873 39.59-19.605 55.545c0 0-61.754-6.981-80.764-1.915-19.011 5.066-19.547-37.666-10.89-40.223 8.658-2.557 111.259-13.407 111.259-13.407z" fill="#EB6475" fill-rule="nonzero"/><path d="M459.249 214.638l5.41 32.082s1.36-24.22-5.41-32.082zM536.728 177.068s-1.235 14.365-1.81 18.837c-.574 4.473 4.013-17.544 1.81-18.837z" fill="#000" fill-rule="nonzero" opacity=".1"/><path d="M551.477 383.256s13.121 23.205 23.58 6.761M610.626 400.83s31.902 16.615 20.275 23.156" stroke="#000" opacity=".1"/><path d="M271.985 285.285c-.392 1.38-2.164 2.5-4.721 3.4-9.817 3.486-31.26 3.888-31.26 3.888l-40.445-.957-20.016-2.873a83.813 83.813 0 0 1-9.5-3.323c-2.386-1.054-4.387-2.213-4.79-3.285 0 0 28.454-12.297 59.38-9.96 30.924 2.337 53.249 6.474 51.352 13.11z" fill="#534D72" fill-rule="nonzero"/><path d="M271.985 285.285c-.392 1.38-2.164 2.5-4.721 3.4-9.817 3.486-31.26 3.888-31.26 3.888l-40.445-.957-20.016-2.873a83.813 83.813 0 0 1-9.5-3.323c-2.386-1.054-4.387-2.213-4.79-3.285 0 0 28.454-12.297 59.38-9.96 30.924 2.337 53.249 6.474 51.352 13.11z" fill="#000" fill-rule="nonzero" opacity=".1"/><path d="M271.372 288.302l-1.197 25.264-.536 11.32-1.772 37.349-.479 10.247-1.302 27.36c-31.097 15.43-97.966 0-97.966 0l-1.034-27.36-.508-13.407-1.292-34.218-.527-13.963-.9-24.048c37.6 12.431 107.513 1.456 107.513 1.456z" fill="#534D72" fill-rule="nonzero"/><path d="M270.175 313.566l-.536 11.32H165.247l-.527-13.963c13.476 4.213 69.885 20.12 105.455 2.643zM267.867 362.254l-.479 10.247H167.086l-.508-13.407c15.755 4.769 67.098 18.244 101.29 3.16z" fill="#000" fill-rule="nonzero" opacity=".1"/><ellipse fill="#000" fill-rule="nonzero" opacity=".1" cx="217.615" cy="321.495" rx="25.169" ry="10.649"/><ellipse fill="#2EA52C" fill-rule="nonzero" cx="217.615" cy="320.882" rx="25.169" ry="10.649"/><ellipse fill="#000" fill-rule="nonzero" opacity=".1" cx="220.355" cy="288.407" rx="37.801" ry="4.779"/><ellipse fill="#2EA52C" fill-rule="nonzero" cx="220.565" cy="288.81" rx="37.801" ry="4.779"/><path d="M271.985 285.697c-.392 1.37-2.164 2.49-4.721 3.4-6.637-17.506-49.62-12.785-49.62-12.785-30.982-1.915-47.139 6.704-51.573 9.577-2.385-1.044-4.387-2.212-4.789-3.275 0 0 28.454-12.297 59.379-9.96 30.925 2.336 53.22 6.397 51.324 13.043z" fill="#000" fill-rule="nonzero" opacity=".1"/><path d="M271.985 285.285c-.392 1.38-2.164 2.5-4.721 3.4-6.637-17.506-49.62-12.785-49.62-12.785-30.982-1.915-47.139 6.704-51.573 9.577-2.385-1.053-4.387-2.212-4.789-3.285 0 0 28.454-12.296 59.379-9.96 30.925 2.337 53.22 6.417 51.324 13.053z" fill="#534D72" fill-rule="nonzero"/><path d="M167.929 394.288s-6.618 3.055-.412 8.131c6.206 5.076 47.35 8.322 57.722 6.407 0 0 37.705-2.03 42.628-7.422 0 0 .115-3.64-1.695-3.754 0 0-14.567 6.445-46.727 5.89-32.16-.556-53.135-2.759-51.516-9.252z" fill="#000" fill-rule="nonzero" opacity=".1"/><path d="M167.929 394.69s-6.618 3.056-.412 8.14c6.206 5.086 47.35 8.333 57.722 6.398 0 0 37.705-2.03 42.628-7.412 0 0 .115-3.649-1.695-3.754 0 0-14.567 6.435-46.727 5.88-32.16-.556-53.135-2.777-51.516-9.251zM166.722 362.216c-3.984-1.12-19.432-7.26-11.694-33.519 0 0 8.332-28.156 13.408-34.86 0 0-.88-1.57-2.126 0-1.245 1.571-4.98 10.88-4.98 10.88s-16.166 30.578-8.035 48.161c2.806 6.072 7.863 9.577 13.283 11.493" fill="#534D72" fill-rule="nonzero"/><path d="M161.215 282.614s-.507 4.481 2.691 6.1c3.2 1.618 93.445 13.206 107.466 2.873 0 0 2.03-6.302 0-6.1-2.03.2-80.889 13.79-110.157-2.873z" fill="#000" fill-rule="nonzero" opacity=".1"/><path d="M161.215 282.202s-.507 4.482 2.691 6.11c3.2 1.628 93.445 13.197 107.466 2.873 0 0 2.03-6.302 0-6.1-2.03.2-80.889 13.79-110.157-2.883z" fill="#534D72" fill-rule="nonzero"/><ellipse fill="#000" fill-rule="nonzero" opacity=".1" cx="168.379" cy="294.546" rx="4.626" ry="4.626"/><ellipse fill="#534D72" fill-rule="nonzero" cx="167.728" cy="293.838" rx="4.626" ry="4.626"/><path d="M48.127 284.73c.24.824 1.312 1.504 2.874 2.05 5.937 2.106 18.905 2.346 18.905 2.346l24.47-.546 12.105-1.724a51.307 51.307 0 0 0 5.747-2.011c1.436-.632 2.653-1.34 2.92-1.982 0 0-17.238-7.442-35.895-6.024-18.656 1.417-32.246 3.869-31.126 7.891z" fill="#534D72" fill-rule="nonzero"/><path d="M48.127 284.73c.24.824 1.312 1.504 2.874 2.05 5.937 2.106 18.905 2.346 18.905 2.346l24.47-.546 12.105-1.724a51.307 51.307 0 0 0 5.747-2.011c1.436-.632 2.653-1.34 2.92-1.982 0 0-17.238-7.442-35.895-6.024-18.656 1.417-32.246 3.869-31.126 7.891z" fill="#000" fill-rule="nonzero" opacity=".1"/><path d="M48.53 286.55l.718 15.275.326 6.847 1.072 22.601.297 6.206.776 16.549c18.81 9.327 59.264 0 59.264 0l.622-16.55.307-8.101.785-20.695.316-8.438.546-14.547c-22.746 7.49-65.03.853-65.03.853z" fill="#534D72" fill-rule="nonzero"/><path d="M49.248 301.825l.326 6.847h63.123l.316-8.437c-8.131 2.547-42.245 12.172-63.765 1.59zM50.646 331.254l.297 6.206h60.662l.307-8.102c-9.53 2.854-40.579 11.051-61.266 1.896z" fill="#000" fill-rule="nonzero" opacity=".1"/><ellipse fill="#000" fill-rule="nonzero" opacity=".1" cx="81.044" cy="306.623" rx="15.228" ry="6.436"/><ellipse fill="#2EA52C" fill-rule="nonzero" cx="81.044" cy="306.259" rx="15.228" ry="6.436"/><ellipse fill="#FFF" fill-rule="nonzero" opacity=".5" cx="81.044" cy="306.259" rx="15.228" ry="6.436"/><ellipse fill="#000" fill-rule="nonzero" opacity=".1" cx="79.387" cy="286.607" rx="22.87" ry="2.892"/><ellipse fill="#2EA52C" fill-rule="nonzero" cx="79.263" cy="286.856" rx="22.87" ry="2.892"/><ellipse fill="#FFF" fill-rule="nonzero" opacity=".5" cx="79.387" cy="286.885" rx="22.87" ry="2.892"/><path d="M48.127 284.97c.24.833 1.312 1.513 2.874 2.058 4.022-10.591 30.034-7.728 30.034-7.728 18.742-1.14 28.511 4.07 31.193 5.746 1.436-.642 2.653-1.34 2.92-1.992 0 0-17.238-7.432-35.895-6.024-18.656 1.408-32.246 3.927-31.126 7.94z" fill="#000" fill-rule="nonzero" opacity=".1"/><path d="M48.127 284.73c.24.824 1.312 1.504 2.874 2.05 4.022-10.592 30.034-7.729 30.034-7.729 18.742-1.13 28.511 4.07 31.193 5.746 1.436-.632 2.653-1.34 2.92-1.982 0 0-17.238-7.442-35.895-6.024-18.656 1.417-32.246 3.917-31.126 7.939z" fill="#534D72" fill-rule="nonzero"/><path d="M111.098 350.657s4.003 1.848.249 4.922c-3.755 3.074-28.646 5.037-34.91 3.83 0 0-22.812-1.225-25.79-4.49 0 0-.068-2.203 1.024-2.27 0 0 8.811 3.897 28.262 3.562 19.452-.335 32.141-1.628 31.165-5.554z" fill="#000" fill-rule="nonzero" opacity=".1"/><path d="M111.098 350.896s4.003 1.848.249 4.922c-3.755 3.075-28.646 5.047-34.91 3.88 0 0-22.812-1.236-25.79-4.492 0 0-.068-2.203 1.024-2.27 0 0 8.811 3.898 28.262 3.562 19.452-.335 32.141-1.666 31.165-5.602zM111.825 331.254c2.414-.68 11.752-4.386 7.078-20.274 0 0-5.047-17.028-8.112-21.069 0 0 .536-.958 1.283 0 .747.958 3.017 6.57 3.017 6.57s9.77 18.492 4.866 29.132a13.465 13.465 0 0 1-8.036 6.953" fill="#534D72" fill-rule="nonzero"/><path d="M115.168 283.102s.306 2.72-1.628 3.697c-1.935.976-56.506 7.987-65 1.714 0 0-1.236-3.83 0-3.687 1.235.143 48.92 8.36 66.628-1.724z" fill="#000" fill-rule="nonzero" opacity=".1"/><path d="M115.168 282.863s.306 2.71-1.628 3.687c-1.935.976-56.506 7.987-65 1.723 0 0-1.236-3.83 0-3.687 1.235.144 48.92 8.36 66.628-1.723z" fill="#534D72" fill-rule="nonzero"/><ellipse fill="#000" fill-rule="nonzero" opacity=".1" cx="110.82" cy="290.323" rx="2.797" ry="2.796"/><ellipse fill="#534D72" fill-rule="nonzero" cx="111.222" cy="289.901" rx="2.797" ry="2.796"/><path d="M747.715 288.312c.24.833 1.312 1.503 2.873 2.059 5.938 2.097 18.905 2.346 18.905 2.346l24.46-.555 12.106-1.724a50.598 50.598 0 0 0 5.746-2.011c1.447-.632 2.653-1.332 2.874-1.983 0 0-17.24-7.431-35.896-6.024-18.656 1.408-32.208 3.908-31.068 7.892z" fill="#534D72" fill-rule="nonzero"/><path d="M747.715 288.312c.24.833 1.312 1.503 2.873 2.059 5.938 2.097 18.905 2.346 18.905 2.346l24.46-.555 12.106-1.724a50.598 50.598 0 0 0 5.746-2.011c1.447-.632 2.653-1.332 2.874-1.983 0 0-17.24-7.431-35.896-6.024-18.656 1.408-32.208 3.908-31.068 7.892z" fill="#000" fill-rule="nonzero" opacity=".1"/><path d="M748.088 290.131l.728 15.323.326 6.848 1.063 22.6.297 6.197.785 16.549c18.81 9.337 59.254 0 59.254 0l.623-16.549.306-8.102.786-20.695.316-8.447.555-14.547c-22.765 7.47-65.039.823-65.039.823z" fill="#534D72" fill-rule="nonzero"/><path d="M748.816 305.397l.326 6.847h63.114l.316-8.447c-8.122 2.557-42.246 12.192-63.756 1.6zM750.205 334.864l.297 6.197h60.662l.306-8.102c-9.52 2.882-40.578 11.032-61.265 1.905z" fill="#000" fill-rule="nonzero" opacity=".1"/><ellipse fill="#000" fill-rule="nonzero" opacity=".1" cx="780.603" cy="310.214" rx="15.228" ry="6.436"/><ellipse fill="#2EA52C" fill-rule="nonzero" cx="780.603" cy="309.84" rx="15.228" ry="6.436"/><ellipse fill="#000" fill-rule="nonzero" opacity=".2" cx="780.603" cy="309.84" rx="15.228" ry="6.436"/><ellipse fill="#000" fill-rule="nonzero" opacity=".1" cx="778.946" cy="290.198" rx="22.87" ry="2.892"/><ellipse fill="#2EA52C" fill-rule="nonzero" cx="778.821" cy="290.438" rx="22.87" ry="2.892"/><ellipse fill="#000" fill-rule="nonzero" opacity=".2" cx="779.808" cy="290.198" rx="22.87" ry="2.892"/><path d="M747.715 288.56c.24.824 1.312 1.504 2.873 2.05 4.013-10.592 30.024-7.728 30.024-7.728 18.743-1.13 28.512 4.07 31.193 5.746 1.447-.632 2.653-1.341 2.874-1.983 0 0-17.24-7.44-35.896-6.023-18.656 1.417-32.208 3.916-31.068 7.939z" fill="#000" fill-rule="nonzero" opacity=".1"/><path d="M747.715 288.312c.24.833 1.312 1.503 2.873 2.059 4.013-10.592 30.024-7.738 30.024-7.738 18.743-1.13 28.512 4.07 31.193 5.746 1.447-.632 2.653-1.331 2.874-1.983 0 0-17.24-7.431-35.896-6.023-18.656 1.407-32.208 3.955-31.068 7.939z" fill="#534D72" fill-rule="nonzero"/><path d="M770.662 285.285s-.039 0 0 0z" fill="#9D9CB5" fill-rule="nonzero"/><path d="M790.084 300.742l.527 2.433c-.958-.374-3.19-5.19-3.19-5.19-.852.67.346 4.72.346 4.72-1.456-1.005-2.28-4.5-2.28-4.5-.11.903-.11 1.816 0 2.72-1.197-1.284-2.183-4.961-2.183-4.961-.364.258-.297 2.69-.297 2.806 0-.144-1.092-4.569-1.293-4.29a24.726 24.726 0 0 0-.7 3.092c-1.015-.172-3.696-6.234-3.696-6.234s-.546-.843-.422-.565c.062.845.062 1.693 0 2.538-1.37-.584-1.838-5.574-1.838-5.574l-.824 1.848-.862-1.78c0 .076.747 2.623.297 2.47-.45-.153-1.485-2.72-1.59-3.227-.105-.508.613-1.667.613-1.667s-1.79-.096-2.059-.086c.364-.201 3.83-3.677 3.83-3.677s.077-.135.221-.345a26.92 26.92 0 0 1 2.672-3.63 22.237 22.237 0 0 0 2.375-3.246c.297-.45.489-.766.489-.766l17.976 10.697-.345.823c-.21.48-.43.958-.67 1.418a26.016 26.016 0 0 1-1.226 2.126 735.09 735.09 0 0 1-2.988 4.616 98.129 98.129 0 0 1-1.283 1.915c-.958 1.36-.546 3.726-.728 4.156-.182.431.958 3.908.958 3.908-.688-.79-1.3-1.644-1.83-2.548z" fill="#E4E3F9" fill-rule="nonzero"/><path d="M790.036 300.742v-4.587c0-1.14 5.594-12.498 5.833-12.976h.077c-.067.124-5.814 11.817-5.823 12.947-.01 1.13 0 4.55 0 4.588l-.087.028z" fill="#000" fill-rule="nonzero" opacity=".1"/><path d="M770.662 285.285s-.039 0 0 0z"/><path d="M773.66 290.285a25.923 25.923 0 0 1-.786-3.209c-.096-.823.7-2.02 1.274-2.873a5.9 5.9 0 0 0 .479-.795 42.377 42.377 0 0 1 2.538-3.514s2.231-3.141 2.384-3.592a14.92 14.92 0 0 1 1.207-1.915h.067c-.45.605-.85 1.246-1.197 1.915-.153.46-2.299 3.486-2.394 3.62-.096.135-2.29 2.921-2.529 3.496-.137.28-.3.546-.488.795-.536.814-1.35 2.05-1.255 2.873.197 1.077.456 2.142.776 3.189l-.077.01z" fill="#000" fill-rule="nonzero" opacity=".1"/><path d="M774.157 289.681c-.21-.43 1.063-3.936 1.312-4.194.25-.259 2.242-4.07 2.318-4.272.077-.2 3.113-4.788 4.06-6.253h.068c-1.38 2.107-3.994 6.12-4.051 6.234-.058.115-2.05 3.984-2.337 4.3a14.135 14.135 0 0 0-1.293 4.099l-.077.086zM776.896 293.34c-1.417-1.81.46-8.016.48-8.083.2-.651 5.64-9.05 5.87-9.414l.067.048c-.048.086-5.66 8.743-5.861 9.394-.527 1.724-1.647 6.532-.488 7.997l-.068.058zM778.87 294.604c-1.255-2.471 1.053-7.786 1.072-7.834.182-.402 5.248-8.974 5.459-9.337h.077c-.058.086-5.277 8.935-5.46 9.327 0 .058-2.307 5.325-1.072 7.767l-.077.077z" fill="#000" fill-rule="nonzero" opacity=".1"/><path d="M780.354 297.065c-.958-1.12-1.092-3.247-.422-6.33.333-1.49.775-2.952 1.322-4.377l4.789-8.858h.067l-4.789 8.858c0 .077-3.19 8.073-.862 10.669l-.067.057-.038-.02z" fill="#000" fill-rule="nonzero" opacity=".1"/><path d="M780.986 297.592c-.632-1.293 0-5.095.46-6.848.46-1.752 6.301-11.348 6.55-11.76l.077.048c-.067.096-6.1 10.103-6.541 11.731-.44 1.628-1.082 5.536-.47 6.79l-.076.039z" fill="#000" fill-rule="nonzero" opacity=".1"/><path d="M782.183 295.705l.958-4.204a10.965 10.965 0 0 1 1.168-3.074l2.337-4.138 2.873-4.424h.067l-2.873 4.424-2.327 4.128c-.536.956-.93 1.985-1.169 3.055l-.957 4.204-.077.029zM785.315 300.79c-1.216-1.427-.517-5.363-.134-7.517.076-.45.143-.815.163-1.035.134-1.245 5.44-11.29 5.67-11.722h.066c0 .106-5.516 10.458-5.65 11.693 0 .22-.086.585-.173 1.044-.364 2.06-1.12 6.35.269 7.595l-.058.067a1.235 1.235 0 0 1-.153-.125z" fill="#000" fill-rule="nonzero" opacity=".1"/><path d="M785.468 298.31s.163-2.26.144-2.797a61.807 61.807 0 0 1 2.011-5.995l4.137-8.619h.077l-4.137 8.62s-2.04 5.43-2.012 5.956c.03.527-.124 2.72-.134 2.816l-.086.019z" fill="#000" fill-rule="nonzero" opacity=".1"/><path d="M787.728 302.725c-2.001-3.084-.076-10.975.24-11.626.316-.652 4.654-9.663 4.702-9.75h.067c0 .087-4.377 9.108-4.693 9.75-.316.641-2.231 8.485-.249 11.492l-.067.134z" fill="#000" fill-rule="nonzero" opacity=".1"/><path d="M790.113 302.744c-2.643-3.122-.335-11.013 0-11.703l3.994-8.686h.076l-3.993 8.696c-.336.718-2.874 9.395.469 12.057v.067a3.113 3.113 0 0 1-.546-.431z" fill="#000" fill-rule="nonzero" opacity=".1"/><path d="M797.851 285.17l-18.024-10.773c.297-.45.489-.766.489-.766l17.88 10.697-.345.843z" fill="#000" fill-rule="nonzero" opacity=".1"/><path d="M798.34 285.161l-18.8-11.234 2.796-3.332 2.04-2.433s.374-2.135 2.088-2.174c1.714-.038 5.143 3.678 6.446 3.074 1.302-.603 5.344-8.437 5.344-8.437s7.987-10.534 8.677-11.703c.69-1.168 7.441-6.301 7.441-6.301 1.102 0-.699 4.578-.833 5.746-.134 1.168-5.9 10.084-6.704 10.534-.805.45-6.953 8.428-6.953 8.428-2.701 2.289-2.816 4.415-2.816 4.415a25.15 25.15 0 0 1 5.22 3.744c.51.535.608 1.342.24 1.983l-2.127 4.242-2.06 3.448z" fill="#535461" fill-rule="nonzero"/><path d="M798.34 285.161l-18.8-11.234 2.796-3.332c1.686 1.379 12.45 10.017 18.044 11.032l-2.04 3.534z" fill="#000" fill-rule="nonzero" opacity=".1"/><path d="M790.084 300.742l.527 2.433c-.958-.374-3.19-5.19-3.19-5.19-.852.67.346 4.72.346 4.72-1.456-1.005-2.28-4.5-2.28-4.5-.23.191 0 2.72 0 2.72-1.197-1.284-2.183-4.961-2.183-4.961-.374.258-.297 2.681-.297 2.806 0-.144-1.092-4.569-1.293-4.29a24.726 24.726 0 0 0-.7 3.092c-1.015-.172-3.696-6.234-3.696-6.234s-.546-.843-.422-.565c.062.845.062 1.693 0 2.538-1.37-.584-1.838-5.574-1.838-5.574l-.824 1.848-.862-1.78c0 .066.747 2.623.297 2.47-.45-.153-1.485-2.72-1.59-3.227-.105-.508.613-1.667.613-1.667s-1.79-.096-2.059-.086c.364-.201 3.83-3.677 3.83-3.677l.221-.345c.163.517.287 1.025.412 1.37.141.5.4.96.757 1.34a2.442 2.442 0 0 0 1.972.479c.7-.086 1.37-.316 2.06-.393.299-.068.613-.013.871.153.216.213.36.488.412.786a11.3 11.3 0 0 0 3.39 5.305c.154.152.34.267.546.335.281.057.571.057.853 0a2.873 2.873 0 0 1 2.873 1.542c.23.48.373 1.083.852 1.322.289.102.599.129.9.077l2.308-.22a98.126 98.126 0 0 1-1.283 1.915c-.958 1.36-.546 3.725-.728 4.156-.182.43.958 3.907.958 3.907a16.941 16.941 0 0 1-1.753-2.605z" fill="#2EA52C" fill-rule="nonzero"/><path d="M790.18 300.742l.536 2.433c-.91-.374-3.189-5.19-3.189-5.19-.852.67.345 4.72.345 4.72-1.456-1.005-2.28-4.5-2.28-4.5-.23.191 0 2.72 0 2.72-1.197-1.284-2.183-4.961-2.183-4.961-.374.258-.297 2.681-.297 2.806 0-.144-1.092-4.569-1.293-4.29a24.726 24.726 0 0 0-.699 3.092c-1.015-.172-3.697-6.234-3.697-6.234s-.555-.843-.43-.565c.06.845.06 1.693 0 2.538-1.37-.584-1.84-5.574-1.84-5.574l-.833 1.848-.852-1.78c0 .066.747 2.623.297 2.47-.45-.153-1.485-2.72-1.59-3.227-.105-.508.613-1.667.613-1.667s-1.8-.096-2.06-.086c.355-.201 3.832-3.677 3.832-3.677l.22-.345c.163.517.287 1.025.412 1.37.141.5.4.96.756 1.34a2.442 2.442 0 0 0 1.973.479c.7-.086 1.36-.316 2.06-.393.299-.067.612-.012.87.153.216.213.36.488.413.786a11.3 11.3 0 0 0 3.39 5.305c.152.15.335.265.536.335.285.057.578.057.862 0a2.873 2.873 0 0 1 2.873 1.542c.23.48.374 1.083.853 1.322.288.102.598.129.9.077l2.308-.22c-.574.861-1.044 1.57-1.283 1.915-.958 1.36-.546 3.725-.728 4.156-.182.43.958 3.907.958 3.907a16.434 16.434 0 0 1-1.753-2.605z" fill="#000" fill-rule="nonzero" opacity=".2"/><path d="M810.656 354.238s4.003 1.849.25 4.923c-3.755 3.074-28.637 5.037-34.91 3.83 0 0-22.813-1.225-25.791-4.481 0 0-.067-2.203 1.025-2.27 0 0 8.82 3.888 28.271 3.553 19.452-.335 32.142-1.628 31.155-5.555z" fill="#000" fill-rule="nonzero" opacity=".1"/><path fill="#534D72" fill-rule="nonzero" d="M766.524 292.296h31.126v10.908h-31.126zM810.656 354.487s4.003 1.849.25 4.923c-3.755 3.074-28.637 5.037-34.91 3.83 0 0-22.813-1.225-25.791-4.491 0 0-.067-2.203 1.025-2.27 0 0 8.82 3.898 28.271 3.563 19.452-.335 32.142-1.628 31.155-5.555zM811.432 334.836c2.413-.68 11.76-4.386 7.077-20.274 0 0-5.037-17.028-8.111-21.07 0 0 .536-.957 1.293 0 .756.958 3.007 6.58 3.007 6.58s9.778 18.502 4.855 29.133a13.408 13.408 0 0 1-8.035 6.952"/><path d="M814.717 286.693s.306 2.71-1.628 3.687c-1.935.977-56.506 7.987-65 1.724 0 0-1.227-3.83 0-3.697 1.225.135 48.977 8.37 66.628-1.714z" fill="#000" fill-rule="nonzero" opacity=".1"/><path d="M814.717 286.444s.306 2.71-1.628 3.697c-1.935.986-56.506 7.987-65 1.714 0 0-1.227-3.83 0-3.687 1.225.144 48.977 8.36 66.628-1.724z" fill="#534D72" fill-rule="nonzero"/><ellipse fill="#000" fill-rule="nonzero" opacity=".1" cx="810.388" cy="293.914" rx="2.797" ry="2.796"/><ellipse fill="#534D72" fill-rule="nonzero" cx="810.781" cy="293.483" rx="2.797" ry="2.796"/><path d="M313.81 152.302a28.183 28.183 0 0 0-1.093 4.032 4.022 4.022 0 0 0 1.341 3.754 1.36 1.36 0 0 0 1.054.287c.766-.162.957-1.149.957-1.915 0-1.542 0-3.084-.095-4.635a12.038 12.038 0 0 0-.393-3.103 3.6 3.6 0 0 0-1.57-2.212c-.355.785.095 2.643-.202 3.792zM330.77 161.745a28.835 28.835 0 0 0-1.082 4.032 3.984 3.984 0 0 0 1.34 3.754c.292.24.67.348 1.045.297.776-.163.958-1.15.958-1.916 0-1.541 0-3.083-.087-4.625a12.612 12.612 0 0 0-.402-3.113 3.572 3.572 0 0 0-1.561-2.202c-.326.795.096 2.633-.21 3.773zM322.687 149.39c.196-.549.35-1.112.46-1.685a1.685 1.685 0 0 0-.565-1.57.536.536 0 0 0-.44-.125c-.326.067-.413.48-.422.814v1.916c0 .44.057.878.172 1.302.076.396.311.742.651.958.202-.355.02-1.12.144-1.61z" fill="#2EA52C" fill-rule="nonzero"/><ellipse fill="#2EA52C" fill-rule="nonzero" cx="331.383" cy="383.764" rx="7.212" ry="1.168"/><ellipse fill="#2EA52C" fill-rule="nonzero" cx="337.407" cy="384.453" rx="7.212" ry="1.168"/><ellipse fill="#2EA52C" fill-rule="nonzero" cx="339.917" cy="381.57" rx="7.212" ry="1.168"/><ellipse fill="#2EA52C" fill-rule="nonzero" cx="344.619" cy="384.941" rx="7.212" ry="1.168"/></g></svg>
