<svg viewBox="0 0 1110 446" xmlns="http://www.w3.org/2000/svg"><defs><linearGradient x1="49.996%" y1="100.001%" x2="49.996%" y2=".016%" id="a"><stop stop-color="gray" stop-opacity=".25" offset="0%"/><stop stop-color="gray" stop-opacity=".12" offset="54%"/><stop stop-color="gray" stop-opacity=".1" offset="100%"/></linearGradient></defs><g transform="translate(85)" fill="none" fill-rule="evenodd"><ellipse fill="#2EA52C" fill-rule="nonzero" opacity=".1" cx="470" cy="388.668" rx="470" ry="57.181"/><path d="M498.587 36.63h-20.91c.013-1.613.114-3.226.302-4.83.656-5.705 2.674-14.961 8.93-19.304 5.843-4.056 13.452 2.062 10.467 8.533l-.076.177c-1.118 2.34-1.152 5.251-.782 7.919a33.178 33.178 0 0 0 2.069 7.506z" fill="#2EA52C" fill-rule="nonzero"/><path d="M498.587 36.63h-20.91c.013-1.613.114-3.226.302-4.83a43.737 43.737 0 0 1 18.497-2.675 33.178 33.178 0 0 0 2.11 7.506z" fill="#000" fill-rule="nonzero" opacity=".1"/><path d="M512.149 58.788c-5.423 4.418-13.007 4.485-20.768 2.592-15.89-3.888-32.48-16.056-32.48-16.056a37.11 37.11 0 0 1 3.633-3.518c6.541-5.621 21.532-15.56 41.602-10.62a20.548 20.548 0 0 1 12.15 8.13c3.32 4.863 5.052 11.99-4.137 19.472z" fill="#2EA52C" fill-rule="nonzero"/><path d="M505.759 49.927s-12.09-10.309-28.747 3.366" fill="#000" fill-rule="nonzero" opacity=".1"/><path d="M165.753 136.77s-38.962-30.008-40.921-2.802c-1.96 27.206 7.844 52.738 16.252 54.976 8.408 2.239 24.669-52.173 24.669-52.173z" fill="#2EA52C" fill-rule="nonzero"/><path d="M165.753 136.77s-38.962-30.008-40.921-2.802c-1.96 27.206 7.844 52.738 16.252 54.976 8.408 2.239 24.669-52.173 24.669-52.173z" fill="#000" fill-rule="nonzero" opacity=".2"/><path d="M140.243 146.313s.917 25.035 8.694 21.038c7.777-3.997-3.649-19.919-8.694-21.038z" fill="#000" fill-rule="nonzero" opacity=".1"/><path d="M261.485 350.118a45.76 45.76 0 0 1-4.204 11.066c-.48.91-1 1.843-1.572 2.794-9.173 15.265-30.378 21.602-30.378 18.236 0-3.366-2.094-12.068-7.424-9.543-5.33 2.524-13.453 1.969-13.453 1.969-14.672-1.12-12.191-15.593-7.331-27.854a112.983 112.983 0 0 1 5.532-11.781c1.833-3.366 3.203-5.57 3.203-5.57l56.056 8.978s1.252 4.426-.43 11.705z" fill="#2EA52C" fill-rule="nonzero"/><path d="M491.381 61.38c-15.89-3.888-32.48-16.056-32.48-16.056a37.11 37.11 0 0 1 3.633-3.518 177.85 177.85 0 0 1 7.298 4.082 138.733 138.733 0 0 1 21.55 15.492zM261.485 350.118c-15.21-1.363-37.239-5.108-58.855-15.071 1.833-3.366 3.203-5.57 3.203-5.57l56.055 8.978s1.278 4.384-.403 11.663z" fill="#000" fill-rule="nonzero" opacity=".1"/><path d="M497.578 277.303s-1.01 17.983-11.149 38.305a97.108 97.108 0 0 1-34.817 39.113s-8.963 7.296-9.526-12.9c0 0-3.927-4.207-30.832 14.18 0 0-16.235 9.93-11.77-31.498v-.076c0-.025-.404.261-1.144.707h-.05a150.92 150.92 0 0 1-10.83 6.025c-8.87 4.46-20.364 8.996-26.064 6.135a85.886 85.886 0 0 1-9.535 29.95c-5.65 10.29-14.562 20.355-28.52 24.9a20.04 20.04 0 0 1-20.347-4.966l-1.597-1.598s-12.334 8.415-18.497 5.604c-6.163-2.81-11.216-10.653-2.809-25.245 0 0 .446-1.212.993-2.988 1.37-4.502 3.363-12.622.134-13.842 0 0-130.608 6.732-147.978-109.397-17.371-116.128 97.53-158.759 130.036-154.274 0 0 86.323-108.832 205.715-38.709 119.392 70.123 28.587 230.574 28.587 230.574z" fill="#2EA52C" fill-rule="nonzero"/><path d="M263.276 85.438s142.278-.555 132.516 184.013" stroke="#000" opacity=".1"/><path d="M257.28 361.184c-.478.91-1 1.843-1.571 2.794-9.173 15.265-30.378 21.602-30.378 18.236 0-3.366-2.094-12.068-7.424-9.543-5.33 2.524-13.453 1.969-13.453 1.969-14.672-1.12-12.191-15.593-7.331-27.854 13.755 6.909 38.634 17.2 60.158 14.398zM351.861 367.243c-5.65 10.292-14.562 20.356-28.52 24.9a20.04 20.04 0 0 1-20.347-4.965l-1.597-1.598s-12.334 8.415-18.497 5.604c-6.163-2.81-11.216-10.653-2.809-25.245 0 0 .446-1.212.993-2.988 10.989 3.88 40.097 12.135 70.777 4.292z" fill="#000" fill-rule="nonzero" opacity=".2"/><path d="M399.483 324.427c50.725-26.364 59.419-47.402 59.419-47.402" fill="#000" fill-rule="nonzero" opacity=".1"/><path d="M486.429 315.608a97.108 97.108 0 0 1-34.817 39.113s-8.963 7.296-9.526-12.9c0 0-3.927-4.207-30.832 14.18 0 0-16.235 9.93-11.77-31.498l13.452-7.464c28.99 16.131 58.115 6.294 73.493-1.43z" fill="#000" fill-rule="nonzero" opacity=".2"/><path d="M278.418 101.713s28.587-43.758 50.162-30.016c21.574 13.741-3.918 65.074-3.918 65.074s-42.326-.842-46.244-35.058z" fill="#2EA52C" fill-rule="nonzero"/><path d="M278.418 101.713s28.587-43.758 50.162-30.016c21.574 13.741-3.918 65.074-3.918 65.074s-42.326-.842-46.244-35.058z" fill="#000" fill-rule="nonzero" opacity=".2"/><path d="M324.939 89.646s-37.558 18.236-26.064 28.897c11.493 10.662 26.064-28.897 26.064-28.897z" fill="#000" fill-rule="nonzero" opacity=".1"/><path d="M424.43 40.275a155.946 155.946 0 0 0-28.377 5.049l-.26.075c-13.15 3.661-28.083 9.82-38.35 20.096 0 0-23.819-10.098-30.268-8.415 0 0 19.339-23.52 71.341-24.118h.126s13.453 1.144 25.787 7.313z"/><ellipse fill="#000" fill-rule="nonzero" opacity=".1" transform="rotate(-13 224.64 224.853)" cx="224.64" cy="224.853" rx="52.459" ry="43.479"/><ellipse fill="#2EA52C" fill-rule="nonzero" transform="rotate(-13 224.64 223.171)" cx="224.64" cy="223.171" rx="52.459" ry="43.479"/><ellipse fill="#000" fill-rule="nonzero" opacity=".2" transform="rotate(-13 224.64 223.171)" cx="224.64" cy="223.171" rx="52.459" ry="43.479"/><path d="M202.462 223.16s.563 16.275 5.33 11.512c4.767-4.763.278-11.529-5.33-11.512zM229.653 210.773s.555 16.275 5.322 11.512c4.767-4.763.277-11.563-5.322-11.512zM275.66 303.953s11.721 11.504 26.014-4.485" fill="#000" fill-rule="nonzero" opacity=".1"/><path d="M327.175 57.105c6.45-1.683 30.269 8.415 30.269 8.415 10.266-10.275 25.223-16.435 38.348-20.095l2.741-12.438c-52.053.598-71.358 24.118-71.358 24.118z" fill="#000" fill-rule="nonzero" opacity=".15"/><path d="M398.642 32.987l-2.59 12.362a155.946 155.946 0 0 1 28.377-5.05c-12.334-6.193-25.787-7.312-25.787-7.312z" fill="#000" fill-rule="nonzero" opacity=".3"/><path fill="#000" fill-rule="nonzero" opacity=".15" d="M398.533 32.987l-2.724 12.438.26-.076 2.59-12.362z"/><g opacity=".1" fill="#FFF" fill-rule="nonzero"><path d="M285.977 371.207s.446-1.212.992-2.988c1.37-4.502 3.363-12.622.135-13.843 0 0-1.497.076-4.204.068a41.728 41.728 0 0 1-1.825 8.726c-.546 1.776-.992 2.988-.992 2.988-8.408 14.591-3.363 22.443 2.808 25.245l.328.118c-2.48-4.25-2.682-10.873 2.758-20.314zM139.125 244.98C121.746 128.852 240.355 81.66 272.861 86.18l-9.585-.488C230.77 81.206 115.86 123.837 133.24 239.965c5.465 36.513 22.13 60.875 42.4 77.124-17.572-16.157-31.588-39.197-36.515-72.109zM405.36 329.77v-.075c0-.025-.403.26-1.143.707h-.05c-1.136.69-3.027 1.826-5.382 3.139-.84 19.144 4.112 23.293 8.005 23.655-1.976-4.469-3.01-12.674-1.43-27.425zM447.971 347.089s-1.009-1.069-5.465.252c1.16 8.348 4.372 9.257 6.66 8.76a35.372 35.372 0 0 1-1.195-9.012z"/></g><path d="M281.218 349.109s72.871-4.486 80.152-11.782" fill="#000" fill-rule="nonzero" opacity=".1"/><ellipse fill="#FBD56F" fill-rule="nonzero" cx="456.177" cy="329.476" rx="31.58" ry="33.551"/><ellipse fill="#000" fill-rule="nonzero" opacity=".1" cx="456.177" cy="329.476" rx="31.58" ry="33.551"/><ellipse fill="#FBD56F" fill-rule="nonzero" cx="461.626" cy="330.225" rx="31.58" ry="32.802"/><path d="M474.423 359.947l-3.288-1.826s-1.539 6.412-1.034 10.99a2.28 2.28 0 0 0 1.681 1.97c7.568 1.876 43.57 9.879 68.34-1.397a2.255 2.255 0 0 0 1.311-1.827c.311-2.81-.765-8.608-1.194-9.736-.9-2.432-65.816 1.826-65.816 1.826z" fill="#FBD56F" fill-rule="nonzero"/><path d="M474.423 359.947l-3.288-1.826s-1.539 6.412-1.034 10.99a2.28 2.28 0 0 0 1.681 1.97c7.568 1.876 43.57 9.879 68.34-1.397a2.255 2.255 0 0 0 1.311-1.827c.311-2.81-.765-8.608-1.194-9.736-.9-2.432-65.816 1.826-65.816 1.826z" fill="#000" fill-rule="nonzero" opacity=".1"/><ellipse fill="#FBD56F" fill-rule="nonzero" cx="505.7" cy="358.121" rx="34.565" ry="7.801"/><path d="M487.657 348.444l-3.28-1.826s-1.538 6.412-1.034 10.99a2.263 2.263 0 0 0 1.682 1.96c7.567 1.886 43.57 9.888 68.339-1.388a2.272 2.272 0 0 0 1.312-1.826c.302-2.81-.774-8.609-1.203-9.736-.933-2.432-65.816 1.826-65.816 1.826z" fill="#FBD56F" fill-rule="nonzero"/><path d="M487.657 348.444l-3.28-1.826s-1.538 6.412-1.034 10.99a2.263 2.263 0 0 0 1.682 1.96c7.567 1.886 43.57 9.888 68.339-1.388a2.272 2.272 0 0 0 1.312-1.826c.302-2.81-.774-8.609-1.203-9.736-.933-2.432-65.816 1.826-65.816 1.826z" fill="#000" fill-rule="nonzero" opacity=".1"/><ellipse fill="#FBD56F" fill-rule="nonzero" cx="518.9" cy="346.618" rx="34.565" ry="7.801"/><path d="M499.301 333.322l-3.287-1.826s-1.539 6.412-1.034 10.99a2.28 2.28 0 0 0 1.681 1.97c7.567 1.876 43.578 9.878 68.34-1.398a2.28 2.28 0 0 0 1.32-1.826c.302-2.81-.774-8.609-1.203-9.736-.9-2.432-65.817 1.826-65.817 1.826z" fill="#FBD56F" fill-rule="nonzero"/><path d="M499.301 333.322l-3.287-1.826s-1.539 6.412-1.034 10.99a2.28 2.28 0 0 0 1.681 1.97c7.567 1.876 43.578 9.878 68.34-1.398a2.28 2.28 0 0 0 1.32-1.826c.302-2.81-.774-8.609-1.203-9.736-.9-2.432-65.817 1.826-65.817 1.826z" fill="#000" fill-rule="nonzero" opacity=".1"/><ellipse fill="#FBD56F" fill-rule="nonzero" cx="530.579" cy="331.496" rx="34.565" ry="7.801"/><path d="M486.37 317.594l-3.287-1.834s-1.53 6.42-1.035 10.99c.1.94.769 1.724 1.682 1.969 7.567 1.876 43.57 9.88 68.33-1.389a2.272 2.272 0 0 0 1.32-1.826c.304-2.81-.773-8.608-1.201-9.744-.892-2.44-65.809 1.834-65.809 1.834z" fill="#FBD56F" fill-rule="nonzero"/><path d="M486.37 317.594l-3.287-1.834s-1.53 6.42-1.035 10.99c.1.94.769 1.724 1.682 1.969 7.567 1.876 43.57 9.88 68.33-1.389a2.272 2.272 0 0 0 1.32-1.826c.304-2.81-.773-8.608-1.201-9.744-.892-2.44-65.809 1.834-65.809 1.834z" fill="#000" fill-rule="nonzero" opacity=".1"/><ellipse fill="#FBD56F" fill-rule="nonzero" cx="517.647" cy="315.751" rx="34.565" ry="7.801"/><path d="M515.453 304.971l-3.28-1.834s-1.538 6.42-1.033 10.99a2.272 2.272 0 0 0 1.681 1.97c7.567 1.876 43.57 9.879 68.331-1.39a2.289 2.289 0 0 0 1.32-1.825c.303-2.811-.773-8.617-1.202-9.745-.9-2.449-65.817 1.834-65.817 1.834z" fill="#FBD56F" fill-rule="nonzero"/><path d="M515.453 304.971l-3.28-1.834s-1.538 6.42-1.033 10.99a2.272 2.272 0 0 0 1.681 1.97c7.567 1.876 43.57 9.879 68.331-1.39a2.289 2.289 0 0 0 1.32-1.825c.303-2.811-.773-8.617-1.202-9.745-.9-2.449-65.817 1.834-65.817 1.834z" fill="#000" fill-rule="nonzero" opacity=".1"/><ellipse fill="#FBD56F" fill-rule="nonzero" cx="546.73" cy="303.12" rx="34.565" ry="7.801"/><path d="M495.804 296.464l-3.288-1.835s-1.53 6.421-1.034 10.99c.1.942.768 1.724 1.682 1.97 7.567 1.876 43.57 9.879 68.33-1.389a2.272 2.272 0 0 0 1.32-1.826c.303-2.81-.773-8.617-1.202-9.745-.891-2.432-65.808 1.835-65.808 1.835z" fill="#FBD56F" fill-rule="nonzero"/><path d="M495.804 296.464l-3.288-1.835s-1.53 6.421-1.034 10.99c.1.942.768 1.724 1.682 1.97 7.567 1.876 43.57 9.879 68.33-1.389a2.272 2.272 0 0 0 1.32-1.826c.303-2.81-.773-8.617-1.202-9.745-.891-2.432-65.808 1.835-65.808 1.835z" fill="#000" fill-rule="nonzero" opacity=".1"/><ellipse fill="#FBD56F" fill-rule="nonzero" cx="527.081" cy="294.629" rx="34.565" ry="7.801"/><path d="M508.92 280.071l-3.279-1.834s-1.539 6.42-1.034 10.99a2.272 2.272 0 0 0 1.681 1.969c7.567 1.876 43.57 9.88 68.34-1.389a2.264 2.264 0 0 0 1.311-1.826c.303-2.81-.773-8.608-1.202-9.744-.891-2.432-65.817 1.834-65.817 1.834z" fill="#FBD56F" fill-rule="nonzero"/><path d="M508.92 280.071l-3.279-1.834s-1.539 6.42-1.034 10.99a2.272 2.272 0 0 0 1.681 1.969c7.567 1.876 43.57 9.88 68.34-1.389a2.264 2.264 0 0 0 1.311-1.826c.303-2.81-.773-8.608-1.202-9.744-.891-2.432-65.817 1.834-65.817 1.834z" fill="#000" fill-rule="nonzero" opacity=".1"/><ellipse fill="#FBD56F" fill-rule="nonzero" cx="540.206" cy="278.237" rx="34.565" ry="7.801"/><path d="M515.403 260.615l-3.288-1.834s-1.53 6.42-1.034 10.99c.1.941.768 1.724 1.681 1.97 7.568 1.876 43.57 9.879 68.331-1.39a2.272 2.272 0 0 0 1.32-1.825c.303-2.811-.773-8.609-1.202-9.745-.9-2.432-65.808 1.834-65.808 1.834z" fill="#FBD56F" fill-rule="nonzero"/><path d="M515.403 260.615l-3.288-1.834s-1.53 6.42-1.034 10.99c.1.941.768 1.724 1.681 1.97 7.568 1.876 43.57 9.879 68.331-1.39a2.272 2.272 0 0 0 1.32-1.825c.303-2.811-.773-8.609-1.202-9.745-.9-2.432-65.808 1.834-65.808 1.834z" fill="#000" fill-rule="nonzero" opacity=".1"/><ellipse fill="#FBD56F" fill-rule="nonzero" cx="546.671" cy="258.781" rx="34.565" ry="7.801"/><path d="M573.745 364.466l-3.288-1.834s-1.538 6.42-1.034 10.99a2.28 2.28 0 0 0 1.682 1.969c7.567 1.876 43.57 9.88 68.339-1.389a2.28 2.28 0 0 0 1.311-1.834c.312-2.81-.765-8.609-1.193-9.736-.9-2.432-65.817 1.834-65.817 1.834z" fill="#FBD56F" fill-rule="nonzero"/><path d="M573.745 364.466l-3.288-1.834s-1.538 6.42-1.034 10.99a2.28 2.28 0 0 0 1.682 1.969c7.567 1.876 43.57 9.88 68.339-1.389a2.28 2.28 0 0 0 1.311-1.834c.312-2.81-.765-8.609-1.193-9.736-.9-2.432-65.817 1.834-65.817 1.834z" fill="#000" fill-rule="nonzero" opacity=".1"/><ellipse fill="#FBD56F" fill-rule="nonzero" cx="605.022" cy="362.632" rx="34.565" ry="7.801"/><path d="M585.415 349.344l-3.288-1.834s-1.53 6.42-1.034 10.99c.1.941.768 1.724 1.682 1.969 7.567 1.877 43.57 9.88 68.33-1.389a2.272 2.272 0 0 0 1.32-1.826c.303-2.81-.773-8.617-1.202-9.744-.891-2.432-65.808 1.834-65.808 1.834z" fill="#FBD56F" fill-rule="nonzero"/><path d="M585.415 349.344l-3.288-1.834s-1.53 6.42-1.034 10.99c.1.941.768 1.724 1.682 1.969 7.567 1.877 43.57 9.88 68.33-1.389a2.272 2.272 0 0 0 1.32-1.826c.303-2.81-.773-8.617-1.202-9.744-.891-2.432-65.808 1.834-65.808 1.834z" fill="#000" fill-rule="nonzero" opacity=".1"/><ellipse fill="#FBD56F" fill-rule="nonzero" cx="616.692" cy="347.51" rx="34.565" ry="7.801"/><path d="M572.484 333.583l-3.28-1.826s-1.538 6.412-1.034 10.99a2.263 2.263 0 0 0 1.682 1.96c7.567 1.885 43.57 9.888 68.34-1.388a2.255 2.255 0 0 0 1.31-1.826c.303-2.81-.773-8.609-1.202-9.736-.89-2.382-65.816 1.826-65.816 1.826z" fill="#FBD56F" fill-rule="nonzero"/><path d="M572.484 333.583l-3.28-1.826s-1.538 6.412-1.034 10.99a2.263 2.263 0 0 0 1.682 1.96c7.567 1.885 43.57 9.888 68.34-1.388a2.255 2.255 0 0 0 1.31-1.826c.303-2.81-.773-8.609-1.202-9.736-.89-2.382-65.816 1.826-65.816 1.826z" fill="#000" fill-rule="nonzero" opacity=".1"/><ellipse fill="#FBD56F" fill-rule="nonzero" cx="603.769" cy="331.774" rx="34.565" ry="7.801"/><path d="M601.575 320.96l-3.288-1.826s-1.538 6.412-1.034 10.94a2.272 2.272 0 0 0 1.682 1.969c7.567 1.885 43.57 9.88 68.339-1.389a2.255 2.255 0 0 0 1.312-1.826c.302-2.81-.766-8.608-1.194-9.736-.9-2.34-65.817 1.868-65.817 1.868z" fill="#FBD56F" fill-rule="nonzero"/><path d="M601.575 320.96l-3.288-1.826s-1.538 6.412-1.034 10.94a2.272 2.272 0 0 0 1.682 1.969c7.567 1.885 43.57 9.88 68.339-1.389a2.255 2.255 0 0 0 1.312-1.826c.302-2.81-.766-8.608-1.194-9.736-.9-2.34-65.817 1.868-65.817 1.868z" fill="#000" fill-rule="nonzero" opacity=".1"/><ellipse fill="#FBD56F" fill-rule="nonzero" cx="632.852" cy="319.142" rx="34.565" ry="7.801"/><path d="M581.917 312.478l-3.279-1.826s-1.539 6.412-1.034 10.99c.098.94.768 1.72 1.682 1.96 7.567 1.885 43.57 9.88 68.339-1.388a2.255 2.255 0 0 0 1.311-1.826c.303-2.81-.773-8.609-1.202-9.736-.891-2.432-65.817 1.826-65.817 1.826z" fill="#FBD56F" fill-rule="nonzero"/><path d="M581.917 312.478l-3.279-1.826s-1.539 6.412-1.034 10.99c.098.94.768 1.72 1.682 1.96 7.567 1.885 43.57 9.88 68.339-1.388a2.255 2.255 0 0 0 1.311-1.826c.303-2.81-.773-8.609-1.202-9.736-.891-2.432-65.817 1.826-65.817 1.826z" fill="#000" fill-rule="nonzero" opacity=".1"/><ellipse fill="#FBD56F" fill-rule="nonzero" cx="613.203" cy="310.652" rx="34.565" ry="7.801"/><path d="M595.042 296.085l-3.288-1.826s-1.538 6.412-1.034 10.99a2.28 2.28 0 0 0 1.682 1.97c7.567 1.876 43.57 9.879 68.33-1.398a2.28 2.28 0 0 0 1.32-1.826c.303-2.81-.773-8.608-1.202-9.736-.891-2.432-65.808 1.826-65.808 1.826z" fill="#FBD56F" fill-rule="nonzero"/><path d="M595.042 296.085l-3.288-1.826s-1.538 6.412-1.034 10.99a2.28 2.28 0 0 0 1.682 1.97c7.567 1.876 43.57 9.879 68.33-1.398a2.28 2.28 0 0 0 1.32-1.826c.303-2.81-.773-8.608-1.202-9.736-.891-2.432-65.808 1.826-65.808 1.826z" fill="#000" fill-rule="nonzero" opacity=".1"/><ellipse fill="#FBD56F" fill-rule="nonzero" cx="626.319" cy="294.259" rx="34.565" ry="7.801"/><path d="M601.508 276.63l-3.28-1.827s-1.538 6.413-1.034 10.99a2.28 2.28 0 0 0 1.682 1.97c7.567 1.876 43.57 9.879 68.339-1.397a2.255 2.255 0 0 0 1.312-1.826c.302-2.811-.774-8.61-1.203-9.737-.89-2.432-65.816 1.826-65.816 1.826z" fill="#FBD56F" fill-rule="nonzero"/><path d="M601.508 276.63l-3.28-1.827s-1.538 6.413-1.034 10.99a2.28 2.28 0 0 0 1.682 1.97c7.567 1.876 43.57 9.879 68.339-1.397a2.255 2.255 0 0 0 1.312-1.826c.302-2.811-.774-8.61-1.203-9.737-.89-2.432-65.816 1.826-65.816 1.826z" fill="#000" fill-rule="nonzero" opacity=".1"/><ellipse fill="#FBD56F" fill-rule="nonzero" cx="632.793" cy="274.803" rx="34.565" ry="7.801"/><path d="M343.546 34.847c0-18.11 14.133-32.819 31.58-32.819a30.94 30.94 0 0 1 5.103.43A29.842 29.842 0 0 0 369.67.53c-17.438 0-31.572 15.021-31.572 33.551 0 13.919 7.98 25.851 19.338 30.934a46.714 46.714 0 0 1 2.035-1.683 33.027 33.027 0 0 1-15.924-28.485z" fill="#FBD56F" fill-rule="nonzero"/><path d="M343.546 34.847c0-18.11 14.133-32.819 31.58-32.819a30.94 30.94 0 0 1 5.103.43A29.842 29.842 0 0 0 369.67.53c-17.438 0-31.572 15.021-31.572 33.551 0 13.919 7.98 25.851 19.338 30.934a46.714 46.714 0 0 1 2.035-1.683 33.027 33.027 0 0 1-15.924-28.485z" fill="#000" fill-rule="nonzero" opacity=".1"/><path d="M401.249 34.132a35.531 35.531 0 0 1-1.682 10.78c1.917-.463 3.918-.842 5.978-1.28a34.08 34.08 0 0 0 1.152-8.785c0-16.309-11.46-29.823-26.468-32.365 12.25 4.646 21.02 17.05 21.02 31.65z" fill="#FBD56F" fill-rule="nonzero"/><path d="M343.546 34.847a33.027 33.027 0 0 0 15.933 28.493c5.944-4.729 19.052-13.422 40.097-18.454a35.531 35.531 0 0 0 1.681-10.78c0-14.6-8.77-27.004-21.02-31.624a30.94 30.94 0 0 0-5.103-.429c-17.455.026-31.588 14.71-31.588 32.794z" fill="#FBD56F" fill-rule="nonzero"/><path d="M809.838 410.354c-4.81-.169-4.986-2.037-11.166-5.26-3.498-1.817-8.795-7.102-12.746-11.352l-.925-1.001h1.681s-1.547-13.574-.168-16.83c1.38-3.257.345-22.401.345-22.401s.84-14.6-.69-17.992c-1.53-3.391.513-25.11.513-25.11s1.38-12.9 1.682-39.206c.303-26.306-15.134-27.147-15.134-27.147s-2.06-.16-5.188-.463l-.941-.093c2.026-4.207 3.211-7.422 3.211-7.422s-2.58-24.606-3.27-28.847-4.801-21.753-4.801-21.753-2.918-7.464-4.641-12.724c-1.724-5.259-6.87-11.368-6.87-11.368s-9.248-18.328-11.855-21.038c-1.194-1.254-2.875-2.844-4.33-4.208l-.756-.69a30.32 30.32 0 0 0 .622-5.806s-9.627-9.51-10.317-11.882c-.69-2.373-9.786-11.2-9.786-11.2s-5.163-9.501-10.998-9.67a47.59 47.59 0 0 0-8.282.244c1.203-4.443 2.624-9.096 3.893-13.093.143-.446.286-.842.42-1.305a29.498 29.498 0 0 0 10.56-12.782c.118-.278.228-.556.337-.842h.185c.242-.005.484-.028.723-.067 1.926-.328 3.557-2.525 2.665-4.208a.639.639 0 0 0 .564.312c.639 0 1.42-.951 1.572-1.768 0-.143.042-.286.059-.429.017-.143.059-.353.084-.53.025-.177 0-.336 0-.505v-.513-.488-.564-.446c0-.151 0-.454-.05-.682v-.277c-.101-.927-.287-1.843-.555-2.735-.942-3.156-2.935-6.286-2.17-9.484v-.101c.64-2.524 2.792-4.292 4.103-6.513.127-.21.236-.43.345-.648 0-.042.042-.084.059-.118.084-.168.151-.337.219-.505l.134-.328c.059-.143.101-.295.151-.446.05-.152.093-.27.127-.412.033-.144.067-.27.1-.404.034-.135.076-.32.11-.488.033-.169 0-.236.059-.354s.05-.37.067-.555c.017-.185 0-.202 0-.303v-.875-.69-.202c0-.244 0-.488-.067-.733v-.1a12.199 12.199 0 0 0-2.464-5.849 15.053 15.053 0 0 0-12.368-5.36c-1.29.147-2.59.172-3.884.075-2.161-.32-3.986-1.683-5.7-3.012l-14.395-11.1a17.889 17.889 0 0 0-5.44-3.231c-2.035-.623-4.473-.413-5.978 1.077-2.699 2.66-.984 7.237-2.06 10.847-.942 3.13-3.96 5.251-7.08 6.303-3.119 1.052-6.465 1.287-9.677 2.053a5.286 5.286 0 0 0-2.581 1.187 5.052 5.052 0 0 0-1.127 3.61 19.419 19.419 0 0 0 2.237 9.18c.605 1.145 1.337 2.315 1.984 3.493l.16.294.21.404c.11.228.219.446.32.665l.126.286.193.48c0 .1.076.202.11.294.033.093.117.38.176.564a6.25 6.25 0 0 1 .092 3.366c-.496 1.826-1.917 3.232-3.178 4.654a9.15 9.15 0 0 0-2.119 3.938 2.965 2.965 0 0 0 0 1.044v.126c.019.077.041.153.068.227.019.055.041.108.067.16.025.06.053.12.084.177.064.091.137.176.219.252l.126.093c.068.051.141.096.218.134l.143.068.353.092h.101c.185.013.37.013.555 0h.168a4.2 4.2 0 0 0 .522-.067h.193a7.31 7.31 0 0 0 .84-.21c.967-.29 1.906-.662 2.81-1.111V59.007a28.582 28.582 0 0 0 1.857 9.736 29.452 29.452 0 0 0 8.955 12.395c-.05.286-.101.581-.16.884-.84 4.064-2.565 8.146-3.632 7.834a14.34 14.34 0 0 0-3.187-.353h-.933c-.972-.11-1.954-.11-2.926 0a3.075 3.075 0 0 1-1.278-.177 17.373 17.373 0 0 0-8.585-.48c-5.936 1.22-14.974 3.45-17.454 6.118-3.784 4.073-9.249 7.978-15.462 24.943 0 0-3.094 10.35-5.5 11.713.53-.276 1.075-.524 1.632-.74-.32.56-.76 1.043-1.286 1.414.869-.445 1.771-.822 2.699-1.128-1.875 11.058.908 42.681.908 42.681s-2.237 5.453.68 8.685c1.741 1.91 2.683 4.897 3.17 7.018l-.428.656c-1.547 2.399-3.616 5.53-4.97 7.254-2.404 3.055-1.723 12.732-1.723 12.732s-.513 4.578-2.228 6.278c-1.715 1.7-1.38 7.977-1.38 7.977l-4.396 16.57s-4.129 3.728-4.129 5.427c0 1.7-3.262 6.446-3.262 6.446s-4.986 8.146 0 6.96a15.575 15.575 0 0 0 5.045-2.525v1.036c-.143 8.869.84 21.357 7.365 21.357 10.09 0 36.255 12.042 36.255 12.042 5.322 4.073 12.536 2.718 12.536 2.718s-12.772 12.698-12.402 17.966c.37 5.268-7.214 13.91-7.214 13.91l-23.373 45.652c.13 3.182.696 6.33 1.681 9.358l-.336.286c-8.98 8.213-9.762 24.462-9.762 24.462l-2.06 8.315 31.27 13.75s40.55.841 47.596-1.018c7.046-1.86 5.499-9.678-3.783-11.2-9.283-1.524-11.51-5.605-14.605-7.465-2.085-1.262-9.492-9.4-14.091-14.558-.068-.084-.135-.152-.202-.227l1.068-5.891c2.06-1.018 5.154-11.2 5.154-11.2s0-4.073 2.06-5.26c2.06-1.186 6.356-13.405 6.356-13.405s9.249-15.442 8.77-17.478c-.48-2.037 6.726-12.387 6.726-12.387s12.2-11.882 11.678-14.003c-.521-2.12 9.795-12.985 9.795-12.985a34.35 34.35 0 0 0 9.123-10.51l2.976-.488c13.495-2.213 35.91-6.21 38.416-7.33 3.439-1.523 2.75 5.268 1.379 11.033-1.37 5.764-2.405 33.433-.841 37.026 1.564 3.593.84 9.34.84 9.34l-2.06 31.052 1.371 6.623s-4.64 3.728-2.75 5.933c1.893 2.205.177 11.714.177 11.714.16-.06.354-.118.564-.177-.16.37-.32.757-.463 1.153-2.665 7.573-1.135 20.061-1.135 20.061v9.846s47.597.842 58.073.842c10.477 0 24.921-5.092 25.779-9.165.858-4.072-12.057-7.523-16.866-7.7zM674.47 233.696l-3.11.26a24.488 24.488 0 0 1 3.102-.26h.008zm19.01-130.258c.437-1.969.967-4.073 1.556-6.244l-1.556 6.244zm5.886 135.012a12.602 12.602 0 0 1-9.249 0s.168-11.874 1.547-16.83c1.379-4.957 3.262-13.919 3.262-13.919s1.547-12.387 3.094-17.991c1.548-5.605 7.568-36.825 10.653-38.861 3.086-2.036 4.81 1.532 4.81 1.532s.462 0 1.235-.093c.152.32.312.673.497 1.035 3.665 7.414 14.42 22.645 14.42 22.645a24.755 24.755 0 0 1 7.902 7.81c2.926 4.914 3.784 16.46 3.784 16.46s6.533 25.623 9.619 29.183c1.547 1.784.84 2.844-.21 3.458a15.223 15.223 0 0 0-5.424 5.05 65.443 65.443 0 0 0-1.379 2.288 43.946 43.946 0 0 1-3.119-.841c-8.483-2.853-36.818-2.962-41.45-.884l.008-.042z" fill="url(#a)" fill-rule="nonzero"/><path d="M741.7 416.564v9.762s46.572.841 56.83.841c10.257 0 24.382-5.049 25.223-9.088.84-4.04-11.771-7.406-16.48-7.574-4.708-.168-4.876-2.02-10.93-5.217-3.413-1.801-8.601-7.044-12.469-11.26-2.985-3.256-5.187-5.89-5.187-5.89s-25.047-.505-32.278 3.534c-1.682.926-2.817 2.752-3.599 5.05-2.606 7.489-1.11 19.842-1.11 19.842z" fill="#434175" fill-rule="nonzero"/><path d="M742.81 396.696c5.255-1.826 36.003-2.525 41.064-2.642-2.985-3.257-5.187-5.89-5.187-5.89s-25.047-.506-32.278 3.533c-1.665.892-2.817 2.718-3.599 4.999z" fill="#000" fill-rule="nonzero" opacity=".1"/><path d="M607.696 241.017l2.715 1.683 1.018.614 3.952 2.39c21.137 12.74 78.773 47.293 81.934 47.015.841-.067 3.313-.446 6.727-1.001l2.917-.48c13.2-2.196 35.137-6.16 37.592-7.27 3.363-1.515 2.69 5.217 1.345 10.939s-2.354 33.155-.84 36.69c1.513 3.534.84 9.256.84 9.256l-2.018 30.8 1.345 6.563s-4.54 3.703-2.69 5.891.168 11.613.168 11.613c5.38-2.02 41.863-2.693 41.863-2.693s-1.514-13.464-.168-16.662c1.345-3.198.336-22.216.336-22.216s.84-14.474-.673-17.84c-1.513-3.366.505-24.9.505-24.9s1.345-12.791 1.681-38.87c.337-26.078-14.798-26.928-14.798-26.928s-2.017-.16-5.044-.454c-5.995-.572-15.975-1.683-22.651-3.13a36.532 36.532 0 0 1-4.044-1.07c-8.24-2.81-35.986-2.92-40.518-.9a12.198 12.198 0 0 1-9.064 0l-3.53-5.722-33.725 2.878-3.573.303-33.203 2.836-2.287.193-6.112.472z" fill="#565387" fill-rule="nonzero"/><path d="M742.877 266.868c9.796 4.78 19.145-12.168 23.542-21.728-5.994-.572-15.974-1.683-22.65-3.13-4.431 7.371-10.283 20.272-.892 24.858z" fill="#000" fill-rule="nonzero" opacity=".1"/><path d="M713.45 152.364c.209 1.158.61 2.273 1.185 3.298 3.59 7.347 14.117 22.452 14.117 22.452a24.393 24.393 0 0 1 7.735 7.742c2.86 4.88 3.7 16.325 3.7 16.325s6.39 25.405 9.417 28.94c1.513 1.767.84 2.819-.21 3.433a15.022 15.022 0 0 0-5.306 4.965c-4.414 7.102-11.451 21.172-1.547 26.002 13.453 6.564 26.065-27.837 26.065-27.837s-2.523-24.403-3.195-28.611c-.673-4.208-4.7-21.543-4.7-21.543s-2.86-7.405-4.54-12.622c-1.682-5.218-6.727-11.276-6.727-11.276s-9.08-18.169-11.603-20.862c-1.169-1.253-2.808-2.827-4.204-4.157l-2.993-2.743s-17.362 12.463-17.194 16.494z" fill="#EE8E9E" fill-rule="nonzero"/><path d="M599.481 414.544l30.605 13.633s39.677.841 46.571-1.01c6.895-1.851 5.381-9.593-3.7-11.108-9.08-1.515-11.266-5.554-14.293-7.405-2.043-1.246-9.29-9.316-13.789-14.432l-3.7-4.208s-5.885-15.652-22.188-12.117a16.693 16.693 0 0 0-7.937 4.207c-8.786 8.138-9.55 24.252-9.55 24.252l-2.019 8.188z" fill="#434175" fill-rule="nonzero"/><path d="M611.429 243.306l3.952 2.39c21.137 12.74 78.773 47.292 81.934 47.015.841-.068 3.313-.446 6.727-1.002l2.917-.48.11-.193a38.156 38.156 0 0 0 3.85-9.433c3.54-13.456-13.906-23.756-13.906-23.756l-3.7-2.878c-4.204-7.086-34.472-13.784-34.472-13.784l-3.901-2.625-2.077-1.397-.555-.37-4.734-3.182-23.702 1.683-7.045 4.528-.74.48-2.615 1.682-2.043 1.322zM611.025 382.045c6.432 22.275 33.32 15.004 33.32 15.004l.505-2.827c-2.17-2.466-3.7-4.208-3.7-4.208s-5.885-15.652-22.188-12.117a16.693 16.693 0 0 0-7.937 4.148z" fill="#000" fill-rule="nonzero" opacity=".1"/><path d="M603.996 280.93c9.922 0 35.473 11.949 35.473 11.949 5.213 4.04 12.276 2.693 12.276 2.693s-12.444 12.622-12.108 17.84c.337 5.217-7.054 13.8-7.054 13.8l-22.87 45.265c1.682 32.138 34.633 23.226 34.633 23.226l1.345-7.574c2.018-1.01 5.045-11.108 5.045-11.108s0-4.039 2.017-5.217c2.018-1.178 6.222-13.296 6.222-13.296s9.08-15.315 8.576-17.335c-.504-2.02 6.558-12.277 6.558-12.277s11.94-11.782 11.435-13.885c-.504-2.104 9.585-12.875 9.585-12.875a34.031 34.031 0 0 0 8.92-10.427 38.156 38.156 0 0 0 3.894-9.458c2.85-10.839-7.937-19.607-12.25-22.603-1.043-.732-1.682-1.12-1.682-1.12l-3.7-2.877c-1.908-3.223-9.248-6.37-16.614-8.836-5.33-1.776-10.711-3.206-14.15-4.065a197.6 197.6 0 0 1-3.733-.892l-3.901-2.625-1.37-.918-1.254-.841-4.775-3.19-10.544.75-13.158.934-7.037 4.56-3.364 2.172-13.141 8.415s-.345 3.24-.454 7.573v1.027c-.16 8.836.782 21.215 7.18 21.215z" fill="#565387" fill-rule="nonzero"/><path d="M654.603 92.457l3.532 12.622s6.221 21.711 6.894 23.226c.673 1.515 16.984 16.83 17.657 17.167.672.336 9.55 5.377 9.55 5.377s.707-27.77 0-35.84a23.01 23.01 0 0 1 .438-5.293c1.068-6.328 3.784-15.61 6.037-22.763 1.883-5.983 3.439-10.477 3.439-10.477s-39.34-1.683-37.995 2.188c.504 1.465.344 3.905-.152 6.362-.84 4.03-2.522 8.087-3.548 7.767a14.282 14.282 0 0 0-3.12-.345c-1.412-.042-2.732.009-2.732.009z" fill="#EE8E9E" fill-rule="nonzero"/><path d="M664.037 85.026a29.08 29.08 0 0 0 34.708 1.927 433.522 433.522 0 0 1 3.438-10.477s-39.34-1.683-37.995 2.188c.505 1.465.345 3.905-.151 6.362z" fill="#000" fill-rule="nonzero" opacity=".1"/><path d="M711.777 61.674a29.021 29.021 0 0 1-1.455 9.089 23.768 23.768 0 0 1-.84 2.23 29.09 29.09 0 0 1-27.403 17.784 29.093 29.093 0 0 1-26.643-18.904 28.717 28.717 0 0 1-1.817-9.652v-.538a29.121 29.121 0 0 1 14.4-25.628 29.07 29.07 0 0 1 29.376 0 29.121 29.121 0 0 1 14.399 25.628l-.017-.009z" fill="#EE8E9E" fill-rule="nonzero"/><path d="M654.603 92.457l3.532 12.622s6.221 21.711 6.894 23.226c.673 1.515 16.984 16.83 17.657 17.167.672.336 9.55 5.377 9.55 5.377s.707-27.77 0-35.84a23.01 23.01 0 0 1 .438-5.293l-2.287 9.332.168 18.682 1.346 1.01-3.027 4.544v-3.366s-10.762-10.435-12.444-14.81c-1.682-4.377-7.735-12.304-7.735-12.304s-6.895-11.596-7.063-13.615c-.126-1.574-3.027-5.218-4.296-6.732-1.413-.05-2.733 0-2.733 0zM713.45 152.364c.209 1.158.61 2.273 1.185 3.298 3.683-.378 16.202-2.718 18.96-17.04l-2.993-2.743s-17.32 12.454-17.152 16.485zM596.79 259.757c3.364-2.407 6.626-5.68 8.552-6.589 2.858-1.346 7.23-5.722 7.23-5.722s1.11-.758 2.809-1.75c3.119-1.835 8.24-4.486 12.157-4.814 3.506-.294 15.134-1.043 24.383-1.616l11.973-.74s10.93-3.871 15.639-1.347a49.386 49.386 0 0 0 10.593 3.871v-1.001l-3.53-5.722-37.298 3.18-4.784-3.222-23.702 1.683-7.037 4.56-6.07.522 2.715 1.683-13.142 8.415s-.412 3.762-.487 8.61z" fill="#000" fill-rule="nonzero" opacity=".1"/><path d="M591.914 261.213a15.222 15.222 0 0 0 4.927-2.525c3.363-2.398 6.6-5.671 8.526-6.572 2.858-1.346 7.23-5.722 7.23-5.722s8.913-6.059 14.967-6.564c1.681-.134 5.095-.378 9.248-.648 4.154-.27 9.249-.597 13.722-.841l7.13-.446 6.213-.387s10.93-3.871 15.639-1.347a49.386 49.386 0 0 0 10.594 3.871s.168-11.781 1.513-16.662c1.345-4.88 3.195-13.792 3.195-13.792s1.513-12.286 3.027-17.84c1.513-5.554 7.39-36.522 10.417-38.541 3.027-2.02 4.709 1.515 4.709 1.515s20.179-.337 20.515-22.545c0 0-9.417-9.424-10.09-11.78-.672-2.357-9.585-11.109-9.585-11.109s-5.044-9.424-10.762-9.593a45.7 45.7 0 0 0-8.096.253l-4.843 19.775.168 18.682 1.345 1.01-3.027 4.544v-3.366s-10.762-10.435-12.443-14.811c-1.682-4.376-7.736-12.303-7.736-12.303s-6.894-11.596-7.062-13.615c-.168-2.02-4.877-7.431-4.877-7.431-.95-.11-1.909-.11-2.859 0a2.966 2.966 0 0 1-1.252-.177 16.735 16.735 0 0 0-8.408-.471c-5.81 1.203-14.655 3.417-17.077 6.059-3.699 4.04-9.08 7.91-15.134 24.74l32.614 11.781-2.841 5.319-25.956 49.38s-.84 1.405-2.026 3.24c-1.513 2.38-3.54 5.486-4.868 7.194-2.354 3.03-1.682 12.623-1.682 12.623s-.504 4.544-2.186 6.227c-1.681 1.683-1.345 7.91-1.345 7.91l-4.372 16.326s-4.036 3.702-4.036 5.385c0 1.683-3.195 6.396-3.195 6.396s-4.843 8.07.06 6.858z" fill="#434175" fill-rule="nonzero"/><path d="M764.057 273.364s-10.586 3.526-13.453 8.575c-2.867 5.05 13.453-8.575 13.453-8.575zM758.684 262.256c-.336.505-14.512 14.735-13.62 18.169.89 3.433 13.62-18.169 13.62-18.169zM680.836 272.355s-15.773 7.455-17.152 10.737c-1.38 3.282 17.152-10.737 17.152-10.737zM679.827 281.94s-14.294 6.058-16.21 7.573c-1.918 1.515 16.21-7.574 16.21-7.574zM673.269 294.873s-6.315 4.713-9.804 1.01c-3.49-3.703 9.804-1.01 9.804-1.01zM697.013 172.055c-.337.505-21.356 38.373-26.906 41.234-5.549 2.861 26.906-41.234 26.906-41.234zM695.97 186.36c0 .842-20.515 44.76-23.878 45.265-3.364.505 23.878-45.264 23.878-45.264zM617.979 214.627s-9.905 21.18-13.79 22.384c-3.884 1.203 13.79-22.384 13.79-22.384zM616.297 205.21s-3.414 7.397-5.49 7.397c-2.077 0 5.49-7.397 5.49-7.397zM711.777 61.674a29.021 29.021 0 0 1-1.455 9.089 23.768 23.768 0 0 1-.84 2.23 8.547 8.547 0 0 1-4.062-1.793 10.095 10.095 0 0 1-3.052-3.265 40.963 40.963 0 0 1-1.488-4.25 9.88 9.88 0 0 0-7.979-6.05c.967 1.683-.572 3.913-2.463 4.208-1.892.294-3.734-.842-5.045-2.247-1.312-1.406-2.245-3.114-3.54-4.52-1.295-1.405-3.144-2.524-5.045-2.246-1.681.252-2.968 1.532-4.372 2.482-1.404.951-3.363 1.59-4.708.573-.757-.564-1.127-1.523-1.85-2.138-1.858-1.557-4.75.05-6.12 2.062-2.111 3.113-3.364 4.998-6.139 6.404v-.539a29.121 29.121 0 0 1 14.4-25.627 29.07 29.07 0 0 1 29.376 0 29.121 29.121 0 0 1 14.399 25.627h-.017z" fill="#000" fill-rule="nonzero" opacity=".1"/><path d="M659.757 54.967c1.37-2.02 4.263-3.627 6.121-2.061.723.606 1.093 1.565 1.85 2.137 1.345 1.018 3.313.379 4.708-.572 1.396-.951 2.7-2.23 4.372-2.483 1.892-.294 3.734.842 5.045 2.247 1.312 1.406 2.237 3.114 3.54 4.52 1.303 1.405 3.144 2.524 5.045 2.238 1.9-.287 3.43-2.525 2.463-4.208a9.864 9.864 0 0 1 7.97 6.05c.422 1.442.92 2.86 1.489 4.25.764 1.3 1.81 2.414 3.06 3.257 1.539 1.136 3.414 2.087 5.297 1.759 1.884-.329 3.481-2.525 2.607-4.208.597.917 1.892-.362 2.085-1.439a15.379 15.379 0 0 0-.387-7.102c-.925-3.13-2.875-6.228-2.127-9.408.597-2.525 2.741-4.317 4.044-6.547 2.312-3.955 1.682-9.257-1.11-12.892a14.633 14.633 0 0 0-12.107-5.31c-1.262.14-2.534.162-3.8.067-2.11-.311-3.902-1.683-5.583-2.987l-14.1-10.99a17.284 17.284 0 0 0-5.322-3.215c-1.985-.614-4.372-.404-5.886 1.069-2.64 2.642-.967 7.186-2.026 10.763-.917 3.096-3.868 5.2-6.92 6.244-3.052 1.043-6.323 1.279-9.467 2.036a5.177 5.177 0 0 0-2.522 1.178 5.052 5.052 0 0 0-1.102 3.585 19.46 19.46 0 0 0 2.186 9.097c1.631 3.139 4.204 6.362 3.304 9.787-.487 1.809-1.883 3.197-3.11 4.611-2.657 3.063-3.557 7.574 1.454 6.008 4.851-1.514 6.205-3.475 8.93-7.48z" fill="#434175" fill-rule="nonzero"/><g opacity=".1" fill="#000" fill-rule="nonzero"><path d="M715.4 63.164c-.201 1.077-1.488 2.356-2.093 1.439.84 1.683-.723 3.862-2.606 4.207-1.884.345-3.75-.63-5.297-1.759a10.095 10.095 0 0 1-3.052-3.265c-.707-1.32-.934-2.852-1.489-4.25a9.897 9.897 0 0 0-7.979-6.05c.976 1.683-.571 3.922-2.463 4.208-1.892.286-3.733-.842-5.045-2.247-1.312-1.405-2.245-3.105-3.54-4.519-1.294-1.414-3.144-2.524-5.044-2.247-1.682.261-2.968 1.532-4.373 2.483-1.404.95-3.363 1.599-4.708.58-.757-.572-1.118-1.531-1.841-2.137-1.867-1.565-4.76.042-6.13 2.053-2.715 4.006-4.069 5.983-8.895 7.507-1.58.496-2.573.387-3.111-.093-1.051 2.432-.572 4.57 3.11 3.408 4.827-1.523 6.18-3.492 8.896-7.498 1.37-2.02 4.263-3.627 6.13-2.061.723.605 1.084 1.565 1.841 2.137 1.354 1.018 3.313.379 4.708-.572 1.396-.951 2.7-2.23 4.373-2.483 1.891-.294 3.733.842 5.044 2.247 1.312 1.405 2.237 3.114 3.54 4.519 1.303 1.405 3.145 2.525 5.045 2.238 1.9-.286 3.439-2.524 2.463-4.207a9.864 9.864 0 0 1 7.98 6.05 40.963 40.963 0 0 0 1.488 4.25 10.095 10.095 0 0 0 3.052 3.257c1.547 1.136 3.413 2.087 5.297 1.758 1.883-.328 3.48-2.524 2.606-4.207.605.917 1.892-.362 2.094-1.44.26-1.451.31-2.934.15-4.4a9.16 9.16 0 0 1-.15 1.094zM652.45 48.656c0-.05 0-.084.043-.135.916-3.416-1.682-6.64-3.304-9.778a19.502 19.502 0 0 1-2.086-7.11c-.062.44-.096.884-.1 1.329a19.562 19.562 0 0 0 2.186 9.097c1.143 2.145 2.698 4.333 3.262 6.597zM716.922 40.106c-1.303 2.23-3.447 4.031-4.044 6.547a7.31 7.31 0 0 0 0 3.223c.622-2.465 2.724-4.25 4.01-6.454a10.948 10.948 0 0 0 1.296-7.102 10.188 10.188 0 0 1-1.262 3.786z"/></g><path d="M613.573 192.293c.221.93.392 1.871.513 2.82 0 0 13.284 31.135 14.966 32.978.513.572 2.463 3.366 4.918 6.976l2.817 4.157c5.045 7.574 10.754 16.132 10.754 16.132l12.477 10.906s27.065 2.163 35.666-6.623a33.213 33.213 0 0 0-1.681-1.119l-3.7-2.878c-1.909-3.223-9.249-6.37-16.614-8.836-6.81.05-12.385.606-12.385.606l-1.765-4.67-1.85-4.873-9.442-24.757s-6.07-31.295-8.089-32.819c-2.017-1.523-1.505-6.227-1.505-6.227s3.692-13.296 2.346-15.147c-1.345-1.851 2.186-15.475 2.186-15.475a13.773 13.773 0 0 0-1.614-3.779l-25.955 49.38s-.883 1.414-2.043 3.248z" fill="#000" fill-rule="nonzero" opacity=".1"/><path d="M643.505 142.442s-3.531 13.624-2.186 15.476c1.345 1.851-2.354 15.147-2.354 15.147s-.496 4.712 1.513 6.227c2.01 1.515 8.088 32.819 8.088 32.819l13.024 34.333s40.762-4.039 36.566 8.752c-4.196 12.791-37.835 10.098-37.835 10.098l-12.444-10.94s-16.816-25.413-18.497-27.264c-1.682-1.852-14.966-32.979-14.966-32.979s-.673-6.227-3.532-9.425c-2.858-3.198-.672-8.609-.672-8.609s-3.532-40.695.168-45.576c3.7-4.88 29.26-2.701 33.127 11.941z" fill="#EE8E9E" fill-rule="nonzero"/><path d="M622.662 116.86l-10.594 6.396s-3.027 10.266-5.381 11.613c0 0 21.188-11.781 37.154 15.307 0 0-.504-3.526 1.682-5.21 2.186-1.682 1.681-8.92 1.681-8.92a29.155 29.155 0 0 0 1.514-3.534c1.513-3.702-6.357-24.908-26.056-15.652z" fill="#000" fill-rule="nonzero" opacity=".1"/><path d="M622.325 116.187l-10.594 6.396s-3.026 10.266-5.38 11.613c0 0 21.187-11.782 37.154 15.307 0 0-.505-3.526 1.681-5.21 2.186-1.682 1.682-8.92 1.682-8.92a29.155 29.155 0 0 0 1.513-3.534c1.547-3.702-6.39-24.908-26.056-15.652z" fill="#434175" fill-rule="nonzero"/><ellipse fill="#FBD56F" fill-rule="nonzero" cx="527.913" cy="377.341" rx="31.58" ry="33.551"/><ellipse fill="#000" fill-rule="nonzero" opacity=".1" cx="527.913" cy="377.341" rx="31.58" ry="33.551"/><ellipse fill="#FBD56F" fill-rule="nonzero" cx="533.362" cy="378.09" rx="31.58" ry="32.802"/><path d="M356.771 22.367L388.654 6.38l11.77 10.796 2.8 7.717 2.943 12.968-2.59 5.68-20.388 3.72s-10.863-.632-12.545.21c-1.681.841-8.542 2.297-8.542 2.297l-5.33-13.136V22.367z" fill="#FBD56F" fill-rule="nonzero"/></g></svg>
