<svg viewBox="0 0 1110 446" xmlns="http://www.w3.org/2000/svg"><defs><linearGradient x1="50.015%" y1="100%" x2="50.015%" y2=".008%" id="a"><stop stop-color="gray" stop-opacity=".25" offset="0%"/><stop stop-color="gray" stop-opacity=".12" offset="54%"/><stop stop-color="gray" stop-opacity=".1" offset="100%"/></linearGradient></defs><g fill="none" fill-rule="evenodd"><g transform="translate(145 102)"><path d="M199.416 215.799c-22.565 34.604-16.382 78.617-16.382 78.617s42.768-12.093 65.333-46.697c22.565-34.605 16.382-78.617 16.382-78.617s-42.768 12.092-65.333 46.697z" fill="#3F3D56" fill-rule="nonzero"/><path d="M182.914 294.013s-.55-.088-1.56-.292a101.49 101.49 0 0 1-3.273-.719c-12.12-2.858-44.343-12.517-65.41-37.915-26.367-31.802-25.257-76.232-25.257-76.232s40.317 6.55 66.883 35.11a81.29 81.29 0 0 1 3.36 3.815c22.943 27.67 25.082 64.902 25.251 74.106.024 1.38.006 2.127.006 2.127z" fill="#2EA52C" fill-rule="nonzero"/><path d="M166.652 215.799c22.565 34.604 16.382 78.617 16.382 78.617s-42.768-12.093-65.333-46.697c-22.565-34.605-16.382-78.617-16.382-78.617s42.768 12.092 65.333 46.697z" stroke="#3F3D56" stroke-width="2"/><path d="M182.908 291.886c-.596.719-1.122 1.332-1.554 1.835-.959 1.093-1.502 1.665-1.502 1.665s-.66-.83-1.77-2.384c-6.096-8.497-25.702-38.71-24.188-73.609.081-1.829.216-3.639.403-5.429a81.29 81.29 0 0 1 3.36 3.816c22.943 27.67 25.082 64.902 25.251 74.106z" fill="#000" fill-rule="nonzero" opacity=".1"/><path d="M216.366 221.917c-1.783 41.273-32.421 73.47-32.421 73.47s-27.746-34.72-25.963-75.993c1.784-41.273 32.422-73.47 32.422-73.47s27.746 34.72 25.962 75.993z" fill="#2EA52C" fill-rule="nonzero"/><path d="M183.945 294.218l6.736-146.61" stroke="#3F3D56" stroke-width="2"/><ellipse fill="#EAF6E9" fill-rule="nonzero" cx="410" cy="309.704" rx="410" ry="33.469"/><path d="M478.99 2.137s5.419 17.612-35.224 37.933c-40.643 20.322 4.064 41.998 4.064 41.998l47.417 10.838s48.772-6.774 54.19-14.902c5.42-8.129 14.903-35.224 12.194-39.289a63.342 63.342 0 0 0-6.774-8.128s-32.515-5.42-31.16-20.322c1.355-14.902-44.707-8.128-44.707-8.128z" fill="#FDA57D" fill-rule="nonzero"/><path d="M478.99 2.137s5.419 17.612-35.224 37.933c-40.643 20.322 4.064 41.998 4.064 41.998l47.417 10.838s48.772-6.774 54.19-14.902c5.42-8.129 14.903-35.224 12.194-39.289a63.342 63.342 0 0 0-6.774-8.128s-32.515-5.42-31.16-20.322c1.355-14.902-44.707-8.128-44.707-8.128z" fill="#000" fill-rule="nonzero" opacity=".1"/><path d="M500.666 78.004s-52.21-3.819-53.2-39.843c0 0-18.603-2.155-24.022 3.264-5.419 5.419-23.031 9.483-23.031 23.031 0 13.548 29.805 54.19 29.805 54.19s16.257 54.192 9.483 63.675c-6.773 9.484-8.128 33.87-8.128 33.87s67.738-5.42 78.576 0c10.839 5.418 54.191 5.418 56.9 0 2.71-5.42-2.709-73.158-2.709-73.158s12.193-16.257 9.484-35.224l32.514-37.934s-12.193-36.579-31.16-36.579c0 0-25.74-6.774-26.418-3.387-.677 3.387 12.87 41.32-48.094 48.095z" fill="#2EA52C" fill-rule="nonzero"/><path d="M378.737 197.224s12.193 18.966 43.352 23.03c31.16 4.065 36.58-6.773 33.87-9.483-2.71-2.71-35.224-14.902-35.224-14.902l-18.967-14.903-23.031 16.258zM600.92 180.966l-35.225 20.322s-46.062-2.71-28.45 10.838c17.612 13.548 50.126 8.129 50.126 8.129l31.16-14.903-17.612-24.386z" fill="#FDA57D" fill-rule="nonzero"/><path d="M424.799 216.19s-32.515 79.932 6.774 92.125c39.288 12.193 147.67 9.483 172.056-6.774 24.386-16.257 31.16-37.934 27.095-44.707-4.064-6.774-31.16-25.741-50.126-27.096-18.967-1.355-155.8-13.548-155.8-13.548z" fill="#2F2E41" fill-rule="nonzero"/><path d="M424.799 216.19s-32.515 79.932 6.774 92.125c39.288 12.193 147.67 9.483 172.056-6.774 24.386-16.257 31.16-37.934 27.095-44.707-4.064-6.774-31.16-25.741-50.126-27.096-18.967-1.355-155.8-13.548-155.8-13.548z" fill="#000" fill-rule="nonzero" opacity=".05"/><path d="M578.277 221.156s114.767-41.544 113.412 8.582c-1.355 50.127-73.158 63.674-73.158 63.674l-21.676 2.71-119.22 4.064s4.064-21.676-5.42-24.386c0 0 31.16-8.128 32.515-9.483 1.355-1.355 78.577-28.45 83.996-29.805 5.42-1.355 21.677-12.193 33.87-10.838 0 0 13.547-10.838 28.45-8.129l-41.998 2.71-30.771.901z" fill="#2F2E41" fill-rule="nonzero"/><path d="M578.277 221.156s114.767-41.544 113.412 8.582c-1.355 50.127-73.158 63.674-73.158 63.674l-21.676 2.71-119.22 4.064s4.064-21.676-5.42-24.386c0 0 31.16-8.128 32.515-9.483 1.355-1.355 78.577-28.45 83.996-29.805 5.42-1.355 21.677-12.193 33.87-10.838 0 0 13.547-10.838 28.45-8.129l-41.998 2.71-30.771.901z" fill="#000" fill-rule="nonzero" opacity=".1"/><path fill="#2F2E41" fill-rule="nonzero" d="M558 227.885l14.469 33.013 88.06-31.16 6.774-17.612-23.031-4.064-46.302 8.128-20.082 5.42z"/><path fill="#000" fill-rule="nonzero" opacity=".1" d="M558 227.885l14.469 33.013 88.06-31.16 6.774-17.612-23.031-4.064-46.302 8.128-20.082 5.42z"/><path d="M370.608 267.672s25.74 32.514 55.546 40.643c29.805 8.129 46.062-2.71 46.062-2.71l-9.484-37.933-4.064-24.386-17.612-12.193-35.224-16.257-41.998-13.548s-17.612-2.71-17.612 0 16.257 43.353 16.257 43.353l8.129 23.03z" fill="#2F2E41" fill-rule="nonzero"/><path d="M401.768 285.284s5.419 39.288 12.193 41.998c6.774 2.71 27.095-2.71 32.514-5.42 5.42-2.709 23.84-15.21 23.84-15.21s-64.483-24.078-68.547-21.368z" fill="#3F3D56" fill-rule="nonzero"/><path fill="#FDA57D" fill-rule="nonzero" d="M550.793 293.412l-2.71 31.16-35.903-8.721 12.872-26.503z"/><path d="M541.18 298.02s-12.064 14.36.13 22.488l8.128 6.774s27.095 5.419 29.805 8.128c2.71 2.71 13.548-4.064 13.548-4.064s1.354-40.643 0-43.353c-1.355-2.71-17.612-5.419-18.967-2.71-1.355 2.71-17.612 6.775-27.096 4.065l-5.548 8.672z" fill="#3F3D56" fill-rule="nonzero"/><path d="M432.928 225.674s-94.834-55.546-109.737-35.224c-14.903 20.321-31.16 48.772 12.193 70.448 43.353 21.676 178.83 66.384 178.83 66.384s20.321-31.16 20.321-39.289c0 0-71.803-32.514-83.996-35.224-12.192-2.71-60.964-33.87-67.738-36.579-6.774-2.71-16.257-10.838-16.257-10.838l66.384 20.322z" fill="#2F2E41" fill-rule="nonzero"/><path d="M405.832 57.682l-5.419 4.065s-12.193 31.16-13.548 48.771c-1.354 17.612-17.612 71.803-16.257 78.577 1.355 6.774 2.71 12.193 10.838 18.967 0 0 10.838-24.386 29.805-20.322l23.031-83.996-28.45-46.062zM595.5 57.682l10.838 12.193s6.774 16.257 6.774 20.322c0 4.064 13.548 63.674 14.903 66.384 1.354 2.71 6.773 36.578 0 44.707-6.774 8.129-18.967 13.548-18.967 13.548s8.128-28.45-17.612-29.805l2.71-10.839-24.387-81.286L595.5 57.682z" fill="#2EA52C" fill-rule="nonzero"/><path d="M408.542 150.956v71.361c0 9.377 7.527 17.016 16.902 17.155l149.238 2.21c9.316.139 17.04-7.184 17.398-16.494l2.745-71.37a17.157 17.157 0 0 0-16.896-17.814l-151.982-2.202a17.157 17.157 0 0 0-17.405 17.154z" fill="#3F3D56" fill-rule="nonzero"/><circle fill="#F2F2F2" fill-rule="nonzero" cx="499.989" cy="188.418" r="10.838"/></g><g transform="translate(590 3)" fill-rule="nonzero"><path d="M99.617 127.073a54.562 54.562 0 0 0-15.88-77.875 10.704 10.704 0 0 0-4.812-19.732A20.893 20.893 0 0 0 46.399 5.191a20.886 20.886 0 0 1 30.697 18.445v.543a20.893 20.893 0 1 0-40.494 7.817A10.443 10.443 0 0 0 29.7 47.341a54.56 54.56 0 0 0-28.553 40.01c-2.402 15.625 2.046 31.37 12.135 43.352.197.234.356-.11.782-.514.384-.365 74.668-6.089 84.543-3.43.283.077.92.442 1.01.314zM86.412 41.064v.564a10.45 10.45 0 0 0-8.676-9.7c.201-.344.394-.693.577-1.046a10.45 10.45 0 0 1 8.099 10.182z" fill="url(#a)"/><circle fill="#F55F44" cx="55.041" cy="96.559" r="52.999"/><circle fill="#FDA57D" cx="55.138" cy="106.013" r="46.888"/><path d="M21.21 63.841s5.637 37.215 76.683 16.913l-34.96-30.45L21.21 63.841z" fill="#F55F44"/><circle fill="#F55F44" cx="39.256" cy="44.688" r="10.148"/><circle fill="#F55F44" cx="75.336" cy="44.688" r="10.148"/><circle fill="#F55F44" cx="56.169" cy="27.775" r="20.295"/><path d="M77.591 32.285a10.1 10.1 0 0 0-5.665 1.726 10.147 10.147 0 0 1 9.061 17.97 10.14 10.14 0 0 0-3.437-19.696h.041z" fill="#F55F44"/><path d="M59.551 4.09a20.213 20.213 0 0 0-12.939 4.634c9.204-4.896 20.62-2.024 26.41 6.644 5.79 8.669 4.071 20.315-3.976 26.94a20.295 20.295 0 0 0-9.53-38.217h.035z" fill="#F55F44"/></g></g></svg>
