<svg viewBox="0 0 160 160" xmlns="http://www.w3.org/2000/svg"><path d="M80 0C35.818 0 0 35.818 0 80s35.818 80 80 80 80-35.82 80-80S124.182 0 80 0z" fill="#324D5B"/><path d="M30.4 132.797v-89.6L.3 73.297A80.684 80.684 0 0 0 0 80c0 20.238 7.531 38.707 19.923 52.798H30.4v-.001z" fill="#2B424D"/><path d="M142.4 130.035V91.2L79.96 60.8 17.6 91.2v38.835C32.262 148.3 54.758 160 80 160c25.24 0 47.738-11.7 62.4-29.965z" fill="#DA9C44"/><path d="M30.4 43.2h100.8a3.2 3.2 0 0 1 3.2 3.2V120c0 1.766-1.434 3.2-3.2 3.2H30.4a3.201 3.201 0 0 1-3.2-3.2V46.4a3.2 3.2 0 0 1 3.2-3.2z" fill="#F3F3F3"/><path d="M60.8 51.2H72l6.4-8H67.2l-6.4 8zm48-8l-6.4 8h11.2l6.4-8h-11.2zm-81.6 3.2v4.8H32l6.4-8h-8a3.2 3.2 0 0 0-3.2 3.2z" fill="#26A6D1" fill-rule="nonzero"/><path d="M81.6 51.2h11.2l6.4-8H88l-6.4 8zm-41.6 0h11.2l6.4-8H46.4l-6.4 8zm91.2-8h-1.6l-6.4 8h11.2v-4.8a3.2 3.2 0 0 0-3.2-3.2z" fill="#E2574C" fill-rule="nonzero"/><path d="M117.6 75.2H90.4a2.4 2.4 0 1 0 0 4.8h27.2a2.4 2.4 0 1 0 0-4.8zm-4.8 9.6H90.4a2.4 2.4 0 0 0 0 4.8h22.4a2.401 2.401 0 0 0 0-4.8zm-50.373-6.464l1.091 5.736L54.4 70.398l-12.8 19.2c0 1.768 8.237 3.2 18.4 3.2 10.163 0 18.4-1.432 18.4-3.2l-11.2-16-4.773 4.738zM64 70.398a3.201 3.201 0 0 0 0-6.4 3.201 3.201 0 0 0 0 6.4zm26.4.002h27.2a2.4 2.4 0 1 0 0-4.8H90.4a2.4 2.4 0 1 0 0 4.8z" fill="#DFE1E2" fill-rule="nonzero"/><path d="M142.4 130.035V91.2l-62.44 30.398L17.6 91.2v38.835C32.262 148.3 54.758 160 80 160c25.24 0 47.738-11.7 62.4-29.965z" fill="#F4B459"/><path d="M142.4 91.2L32.946 144.683c13.2 9.62 29.444 15.31 47.027 15.317h.054c25.23-.01 47.717-11.709 62.373-29.965V91.2z" fill="#F6C37A"/></svg>
