<svg viewBox="0 0 160 160" xmlns="http://www.w3.org/2000/svg"><circle fill="#2EA9D3" cx="80" cy="80" r="80"/><path d="M146.053 35.198a82.23 82.23 0 0 0-2.285-3.2h-12.8V18.54a81.25 81.25 0 0 0-3.2-2.539v15.998h-28.8V2.336a81.426 81.426 0 0 0-3.2-.733v30.394h-28.8V1.034a80.487 80.487 0 0 0-3.2.57v30.394h-28.8V13.714a80.594 80.594 0 0 0-3.2 2.286v15.998h-16a80.594 80.594 0 0 0-2.286 3.2h18.284v28.8H1.371a78.176 78.176 0 0 0-.571 3.2h30.968v28.8H1.371c.22 1.079.47 2.141.733 3.2H31.77v28.8H15.765a76.019 76.019 0 0 0 2.539 3.2h13.464V144a82.305 82.305 0 0 0 3.2 2.288v-15.091h28.8v27.2c1.056.213 2.128.397 3.2.571v-27.771h28.8v27.2a78.66 78.66 0 0 0 3.2-.735v-26.465h28.8V144a82.806 82.806 0 0 0 3.2-2.54v-10.263h10.262a78.178 78.178 0 0 0 2.541-3.2h-12.803v-28.8h26.466c.259-1.06.51-2.122.73-3.2h-27.196v-28.8h27.766a84.036 84.036 0 0 0-.568-3.2h-27.198v-28.8l15.085.001zm-82.285 92.799h-28.8v-28.8h28.8v28.8zm0-32h-28.8v-28.8h28.8v28.8zm0-31.999h-28.8v-28.8h28.8v28.8zm32 63.999h-28.8v-28.8h28.8v28.8zm0-32h-28.8v-28.8h28.8v28.8zm0-31.999h-28.8v-28.8h28.8v28.8zm32 63.999h-28.8v-28.8h28.8v28.8zm0-32h-28.8v-28.8h28.8v28.8zm0-31.999h-28.8v-28.8h28.8v28.8z" fill="#43B2D7" fill-rule="nonzero"/><path d="M122.33 61.216l-8.263 8.262a3.14 3.14 0 0 1-4.441 0L95.322 55.174a3.14 3.14 0 0 1 0-4.441l8.264-8.264a3.138 3.138 0 0 1 4.44 0l14.304 14.304a3.141 3.141 0 0 1 0 4.443z" fill="#EFEFEF"/><path d="M112.826 66.278L98.522 51.974a3.14 3.14 0 0 1 0-4.441l-3.2 3.2a3.14 3.14 0 0 0 0 4.441l14.304 14.304a3.14 3.14 0 0 0 4.441 0l3.2-3.2a3.14 3.14 0 0 1-4.441 0z" fill="#D7D7D7"/><path d="M146.3 124.778L66.775 45.25a1.621 1.621 0 0 0-2.29 0L48.45 61.285a1.62 1.62 0 0 0 0 2.29l80.04 80.041a80.41 80.41 0 0 0 17.81-18.838z" fill="#EFC75E"/><path d="M72.795 51.21l-8.33 8.328a1.684 1.684 0 0 0 0 2.379 1.684 1.684 0 0 0 2.38 0l8.33-8.33-2.38-2.377zm4.709 4.774l-4.994 4.994c-.69.69-.69 1.806 0 2.496s1.808.69 2.498 0l4.994-4.992-2.498-2.498zm2.304 12.288l4.994-4.992-2.5-2.496-4.993 4.992a1.766 1.766 0 1 0 2.499 2.496zm7.387-2.662l-8.33 8.328a1.684 1.684 0 0 0 0 2.379 1.68 1.68 0 0 0 2.378 0l8.331-8.328-2.379-2.38zm4.707 4.774l-4.993 4.992a1.77 1.77 0 0 0 0 2.498c.691.69 1.81.69 2.499 0l4.994-4.994-2.5-2.496zm2.306 12.291l4.994-4.997-2.5-2.496-4.993 4.992a1.771 1.771 0 0 0 0 2.5c.691.69 1.81.69 2.499.001zm7.387-2.667l-8.33 8.33a1.682 1.682 0 1 0 2.378 2.38l8.331-8.33-2.379-2.38zm4.707 4.773l-4.993 4.997a1.77 1.77 0 0 0 0 2.497c.691.688 1.81.688 2.499 0l4.994-4.997-2.5-2.497zm2.306 12.294l4.994-4.997-2.5-2.494-4.993 4.994a1.77 1.77 0 0 0 0 2.497c.691.688 1.81.688 2.499 0zm7.387-2.665l-8.33 8.328a1.682 1.682 0 1 0 2.378 2.38l8.331-8.33-2.379-2.378zm4.707 4.774l-4.993 4.994a1.765 1.765 0 1 0 2.499 2.494l4.994-4.99-2.5-2.498zm2.306 12.288l4.994-4.99-2.5-2.498-4.993 4.99a1.77 1.77 0 0 0 0 2.498c.691.691 1.81.691 2.499 0zm7.387-2.662l-8.33 8.328a1.682 1.682 0 1 0 2.378 2.38l8.331-8.328-2.379-2.38zm4.707 4.774l-4.993 4.99a1.77 1.77 0 0 0 0 2.498c.691.691 1.81.691 2.499 0l4.994-4.994-2.5-2.494zm4.8 4.8l-4.993 4.994a1.77 1.77 0 0 0 0 2.497c.691.688 1.81.688 2.499 0l4.994-4.997-2.5-2.494zM72.795 51.21l-8.33 8.328a1.684 1.684 0 0 0 0 2.379 1.684 1.684 0 0 0 2.38 0l8.33-8.33-2.38-2.377zm4.709 4.774l-4.994 4.994c-.69.69-.69 1.806 0 2.496s1.808.69 2.498 0l4.994-4.992-2.498-2.498zm2.304 12.288l4.994-4.992-2.5-2.496-4.993 4.992a1.766 1.766 0 1 0 2.499 2.496zm7.387-2.662l-8.33 8.328a1.684 1.684 0 0 0 0 2.379 1.68 1.68 0 0 0 2.378 0l8.331-8.328-2.379-2.38zm4.707 4.774l-4.993 4.992a1.77 1.77 0 0 0 0 2.498c.691.69 1.81.69 2.499 0l4.994-4.994-2.5-2.496zm2.306 12.291l4.994-4.997-2.5-2.496-4.993 4.992a1.771 1.771 0 0 0 0 2.5c.691.69 1.81.69 2.499.001zm7.387-2.667l-8.33 8.33a1.682 1.682 0 1 0 2.378 2.38l8.331-8.33-2.379-2.38zm4.707 4.773l-4.993 4.997a1.77 1.77 0 0 0 0 2.497c.691.688 1.81.688 2.499 0l4.994-4.997-2.5-2.497zm2.306 12.294l4.994-4.997-2.5-2.494-4.993 4.994a1.77 1.77 0 0 0 0 2.497c.691.688 1.81.688 2.499 0zm7.387-2.665l-8.33 8.328a1.682 1.682 0 1 0 2.378 2.38l8.331-8.33-2.379-2.378zm4.707 4.774l-4.993 4.994a1.765 1.765 0 1 0 2.499 2.494l4.994-4.99-2.5-2.498zm2.306 12.288l4.994-4.99-2.5-2.498-4.993 4.99a1.77 1.77 0 0 0 0 2.498c.691.691 1.81.691 2.499 0zm7.387-2.662l-8.33 8.328a1.682 1.682 0 1 0 2.378 2.38l8.331-8.328-2.379-2.38zm4.707 4.774l-4.993 4.99a1.77 1.77 0 0 0 0 2.498c.691.691 1.81.691 2.499 0l4.994-4.994-2.5-2.494zm4.8 4.8l-4.993 4.994a1.77 1.77 0 0 0 0 2.497c.691.688 1.81.688 2.499 0l4.994-4.997-2.5-2.494z" fill="#D9B556" fill-rule="nonzero"/><path d="M91.213 123.61L47.46 79.896s-13.079-5.34-13.786-4.632c-.747.746 4.575 13.834 4.575 13.834l43.425 43.238c1.248 1.248 4.434.048 6.936-2.448 2.211-2.21 3.25-4.835 2.602-6.278z" fill="#324D5B"/><path fill="#E2574C" d="M97.58 59.296l14.516-14.514 7.918 7.919-14.512 14.513-7.921-7.918z"/><path d="M43.05 89.098s-3.744-9.208-4.501-12.605c-2.49-.87-4.6-1.5-4.874-1.226-.747.746 4.575 13.832 4.575 13.832l43.425 43.24c.837.837 2.547.557 4.336-.462L43.05 89.097z" fill="#2D4552"/><path d="M131.06 141.568L49.617 60.122l-1.163 1.161c-.603.603-.613 1.56-.063 2.197l80.122 80.12a79.636 79.636 0 0 0 2.549-2.032z" fill="#F2D079"/><path d="M90.946 126.54c-.461 1.092-1.255 2.27-2.335 3.348-2.499 2.5-5.688 3.7-6.936 2.45L38.25 89.098s-2.668-6.564-3.959-10.658c-.31-.043-.544-.048-.617.026-.748.745 4.574 13.832 4.574 13.832l43.426 43.24c1.248 1.25 4.435.05 6.936-2.45 2.21-2.21 3.25-4.834 2.601-6.278l-.265-.27z" fill="#2A9AC1"/><path d="M91.389 127.997h-1.242c-.419.64-.925 1.281-1.536 1.891-.499.498-1.024.925-1.555 1.309h3.098c.745-1.138 1.18-2.263 1.235-3.2zm-46.21-28.8h3.215l-3.215-3.2h-3.213l3.213 3.2zM35.2 81.122a79.02 79.02 0 0 1-.907-2.682c-.31-.043-.544-.048-.618.026-.325.323.495 2.968 1.525 5.864v-3.208zm42.115 46.875h-3.213l3.213 3.2h3.215l-3.215-3.2zM67.2 117.925l-3.2-3.187v3.2l3.2 3.187v-3.2z" fill="#3DA3C5" fill-rule="nonzero"/><path d="M128.494 143.613L48.91 64.029l-.456.456a1.62 1.62 0 0 0 0 2.29l78.197 78.198a91.16 91.16 0 0 0 1.843-1.36z" fill="#2A9AC1"/><path d="M67.2 82.318L64 79.12v3.198l3.2 3.2v-3.2zm-18.291-18.29l-.456.457a1.62 1.62 0 0 0 0 2.29l.425.425h3.2l-3.17-3.171zm31.97 35.169h3.2l-3.2-3.2h-3.2l3.2 3.2zm32 28.8h-3.2l3.2 3.2h3.2l-3.2-3.2zM99.2 114.318l-3.2-3.2v3.2l3.2 3.2v-3.2z" fill="#3DA3C5" fill-rule="nonzero"/><path fill="#CB4E44" d="M100.778 56.1l7.92 7.918-3.199 3.2-7.92-7.919z"/><path d="M109.626 69.478L95.322 55.174a3.14 3.14 0 0 1 0-4.441l-1.6 1.6a3.14 3.14 0 0 0 0 4.441l14.304 14.304a3.14 3.14 0 0 0 4.441 0l1.6-1.6a3.14 3.14 0 0 1-4.441 0z" fill="#2A9AC1"/><path d="M98.968 58.824l-3.2-3.2v3.2l3.2 3.2v-3.2zm5.176 8.374h3.2l-3.2-3.2h-3.2l3.2 3.2z" fill="#3DA3C5" fill-rule="nonzero"/><path d="M47.46 79.896s-13.078-5.34-13.785-4.632c-.747.746 4.575 13.834 4.575 13.834l.428.428a10.354 10.354 0 0 0 6.263-2.984 10.342 10.342 0 0 0 2.974-6.19l-.454-.456z" fill="#FFE296"/><path d="M38.549 76.49c-2.49-.87-4.6-1.5-4.874-1.226-.747.746 4.575 13.834 4.575 13.834l.428.428c1.397-.147 2.757-.61 4.013-1.318-.947-2.376-3.525-8.954-4.142-11.718z" fill="#E9CF89"/><path d="M38.34 76.416c-2.4-.834-4.4-1.416-4.666-1.152-.279.278.288 2.277 1.107 4.67a3.187 3.187 0 0 0 2.656-.899 3.173 3.173 0 0 0 .904-2.619z" fill="#2D4552"/></svg>
