<svg viewBox="0 0 160 160" xmlns="http://www.w3.org/2000/svg"><path d="M80 0c44.182 0 80 35.818 80 80s-35.818 80-80 80S0 124.182 0 80 35.818 0 80 0z" fill="#E2574C"/><path d="M41.6 44.8a4.8 4.8 0 0 0-4.8 4.8v97.717A79.596 79.596 0 0 0 80 160c44.182 0 80-35.818 80-80 0-12.634-2.94-24.576-8.154-35.2H41.6z" fill="#E6E6E6"/><path d="M43.2 67.2v83.827A79.616 79.616 0 0 0 80 160c44.182 0 80-35.818 80-80 0-5.482-.554-10.832-1.603-16.002H46.4a3.203 3.203 0 0 0-3.2 3.202z" fill="#2B414D"/><path d="M102.4 75.2H56c-.885 0-1.6.715-1.6 1.6v1.6c0 .885.715 1.6 1.6 1.6h46.4c.885 0 1.6-.715 1.6-1.6v-1.6c0-.885-.715-1.6-1.6-1.6zm-9.6 67.2H56a1.6 1.6 0 0 0-1.6 1.602v1.598c0 .885.715 1.6 1.6 1.6h36.8c.885 0 1.6-.715 1.6-1.6v-1.598a1.6 1.6 0 0 0-1.6-1.602z" fill="#E4E7E7" fill-rule="nonzero"/><path d="M75.2 86.4H56c-.885 0-1.6.715-1.6 1.6v1.6a1.6 1.6 0 0 0 1.6 1.6h19.2a1.6 1.6 0 0 0 1.6-1.6V88c0-.885-.715-1.6-1.6-1.6zm-4.8 22.398H56a1.6 1.6 0 0 0-1.6 1.6V112a1.6 1.6 0 0 0 1.6 1.6h14.4A1.6 1.6 0 0 0 72 112v-1.602a1.6 1.6 0 0 0-1.6-1.6zm57.6 0h-19.2a1.6 1.6 0 0 0-1.6 1.6V112a1.6 1.6 0 0 0 1.6 1.6H128a1.6 1.6 0 0 0 1.6-1.6v-1.602a1.6 1.6 0 0 0-1.6-1.6zM70.4 131.2H56c-.885 0-1.6.715-1.6 1.598v1.6c0 .887.715 1.602 1.6 1.602h14.4c.885 0 1.6-.715 1.6-1.602v-1.6c0-.883-.715-1.598-1.6-1.598z" fill="#E35E53" fill-rule="nonzero"/><path d="M134.4 86.4H84.8c-.885 0-1.6.715-1.6 1.6v1.6a1.6 1.6 0 0 0 1.6 1.6h49.6a1.6 1.6 0 0 0 1.6-1.6V88c0-.885-.715-1.6-1.6-1.6zm-24 33.598H56a1.6 1.6 0 0 0-1.6 1.602v1.6c0 .885.715 1.6 1.6 1.6h54.4c.885 0 1.6-.715 1.6-1.6v-1.6a1.6 1.6 0 0 0-1.6-1.602z" fill="#26A6D1" fill-rule="nonzero"/><path d="M118.4 97.598H56a1.6 1.6 0 0 0-1.6 1.602v1.6c0 .885.715 1.598 1.6 1.598h62.4c.885 0 1.6-.713 1.6-1.598v-1.6a1.6 1.6 0 0 0-1.6-1.602zM80 113.6h19.2a1.6 1.6 0 0 0 1.6-1.6v-1.602a1.6 1.6 0 0 0-1.6-1.6H80a1.6 1.6 0 0 0-1.6 1.6V112a1.6 1.6 0 0 0 1.6 1.6zm22.4 17.6H80c-.885 0-1.6.715-1.6 1.598v1.6c0 .887.715 1.602 1.6 1.602h22.4c.885 0 1.6-.715 1.6-1.602v-1.6c0-.883-.715-1.598-1.6-1.598z" fill="#49B8A4" fill-rule="nonzero"/><path d="M46.4 51.2a3.201 3.201 0 0 0 0 6.4 3.201 3.201 0 0 0 0-6.4zm9.6 0a3.201 3.201 0 0 0 0 6.4 3.201 3.201 0 0 0 0-6.4zm9.6 0a3.201 3.201 0 0 0 0 6.4 3.201 3.201 0 0 0 0-6.4z" fill="#737373" fill-rule="nonzero"/></svg>
