<svg viewBox="0 0 160 160" xmlns="http://www.w3.org/2000/svg"><path d="M80 0c44.182 0 80 35.818 80 80 0 44.184-35.82 80-80 80-44.184 0-80-35.816-80-80C0 35.818 35.816 0 80 0z" fill="#EDEDED"/><path d="M18.128 92.536l10.71-18.518a4.02 4.02 0 0 1 5.487-1.468l78.835 45.439a4.005 4.005 0 0 1 1.469 5.477l-10.71 18.518a4.019 4.019 0 0 1-5.485 1.467L19.598 98.013a4.005 4.005 0 0 1-1.47-5.477z" fill="#BF392B"/><path d="M96 139.202h3.2v-29.258L34.323 72.55a4.02 4.02 0 0 0-5.486 1.468L26.74 77.64 96 139.202z" fill="#AC3327"/><path d="M103.918 141.984l10.71-18.518a4.005 4.005 0 0 0-1.47-5.477l-25.316-14.592-15.456 25.041 26.048 15.013a4.017 4.017 0 0 0 5.484-1.467z" fill="#D6D6D6"/><path d="M29.986 68.878l15.227-14.947a4.09 4.09 0 0 1 5.71 0l64.715 63.528a3.918 3.918 0 0 1 0 5.607l-15.228 14.947a4.085 4.085 0 0 1-5.71 0L29.987 74.485a3.912 3.912 0 0 1 0-5.607z" fill="#E2574C"/><path fill="#C7C7C7" d="M76.462 121.834L96 139.202h3.2v-29.258l-11.358-6.547z"/><path d="M92.8 134.402H96V98.18L50.923 53.93a4.09 4.09 0 0 0-5.71 0l-5.304 5.207L92.8 134.402z" fill="#CB4E44"/><path d="M72.434 116.155L94.7 138.013a4.085 4.085 0 0 0 5.709 0l15.228-14.947a3.918 3.918 0 0 0 0-5.607L93.491 95.72l-21.057 20.436z" fill="#E0E0E0"/><path d="M45.202 49.656l18.528-10.71a4.01 4.01 0 0 1 5.48 1.468l45.462 78.845a4.02 4.02 0 0 1-1.467 5.488l-18.528 10.709a4.01 4.01 0 0 1-5.48-1.47L43.733 55.142a4.02 4.02 0 0 1 1.469-5.486z" fill="#D07C40"/><path d="M88 129.6h6.4V84.102L69.21 40.416a4.008 4.008 0 0 0-5.48-1.469l-4.106 2.373L88 129.6z" fill="#BB6F39"/><path d="M94.677 135.456l18.528-10.709a4.02 4.02 0 0 0 1.467-5.488L99.061 92.187 73.954 107.55l15.243 26.436a4.009 4.009 0 0 0 5.48 1.47z" fill="#EBEBEB"/><path fill="#DADADA" d="M94.4 129.6V95.038l-14.632 8.954L88 129.6z"/><path d="M67.018 36.051l20.888-5.505c2.164-.57 4.387.692 4.966 2.82l23.787 87.319c.58 2.126-.704 4.312-2.867 4.885l-20.888 5.502c-2.165.571-4.386-.691-4.966-2.82L64.15 40.935c-.579-2.126.704-4.313 2.868-4.883z" fill="#F4B459"/><path d="M86.4 120.002h20.8V85.957l-14.326-52.59c-.58-2.129-2.804-3.391-4.967-2.821l-7.539 1.987 6.032 87.469z" fill="#DBA250"/><path d="M91.2 27.2h19.2a4.8 4.8 0 0 1 4.8 4.8v89.6a4.8 4.8 0 0 1-4.8 4.8H91.2a4.8 4.8 0 0 1-4.8-4.8V32a4.8 4.8 0 0 1 4.8-4.8z" fill="#EFC75E"/><path d="M79.926 98.838l8.013 29.415c.58 2.128 2.802 3.39 4.967 2.819l20.89-5.502c2.162-.572 3.446-2.759 2.866-4.885l-7.926-29.096-28.81 7.25z" fill="#F5F5F5"/><path fill="#E1E1E1" d="M86.4 120.002h20.8V91.974l-22.346 5.624z"/><path d="M86.4 121.6a4.8 4.8 0 0 0 4.8 4.8h19.2a4.8 4.8 0 0 0 4.8-4.8V91.2H86.4v30.4z" fill="#FFF"/><path d="M91.2 107.2h6.4V104h-6.4v3.2zm0 6.4h6.4v-3.2h-6.4v3.2zm0 6.4h6.4v-3.2h-6.4v3.2zm0-24v4.8h16V96h-16z" fill="#CCC" fill-rule="nonzero"/><path d="M108 116.8a2.4 2.4 0 1 1-.002 4.802A2.4 2.4 0 0 1 108 116.8z" fill="#B0BBC0"/></svg>
