<svg width="160" height="160" xmlns="http://www.w3.org/2000/svg" xmlns:xlink="http://www.w3.org/1999/xlink"><defs><rect id="a" width="160" height="160" rx="79.946"/></defs><g fill="none" fill-rule="evenodd"><mask id="b" fill="#fff"><use xlink:href="#a"/></mask><use fill="#EDEDED" xlink:href="#a"/><g mask="url(#b)"><path fill="#F8F8F8" d="M44.058 45.534l-.54 10.427-1.449 7.79.994 2.133-2.683 7.934 1.11 12.5 6.392 17.342 15.547 3.836 12.756-8.15-12.047 10.547-6.497 1.678-.1 8.38 2.147 6.241 6.276 6.951 9.752 3.356 6.084-.27 9.506-3.326 8.708-10.52 3.843-6.822-.854-3.271-4.247-2.783-1.033-3.455-2.096-16.015 2.038-4.594 2.34.553 2.12-.895 1.084-1.86.304-3.981 2.195-4.83 1.189-3.441.192-5.105-4.295-4.05-7.385-11.626-8.268-21.44-29.6-3.922-7.266 2.95-4.305 3.535 1.371 6.191z"/><path fill="#F8F8F8" d="M97.521 107.376l1.235 2.131 4.247 2.783.854 3.27-6.638 11.71-6.697 6.053-7.543 2.637-11.283-.18-6.336-3.116-6.154-6.412-1.388-4.554-.242-7.97-2.715 2.457-.965 3.655-8.267 5.153-6.456 4.255-3.56 4.494-1.931 5.873-2.957 13.842-2.076 6.335h113.29l-2.965-12.627-4.611-14.258-6.31-6.835-12.37-6.891-5.55-2.996-2.475-2.757-3.379-4.254-5.37-2.338z"/><path d="M98.965 109.477a.478.478 0 0 0-.209.03l-.027-.23-.026-.207.31.414a11.805 11.805 0 0 0-.048-.007zm41.857 49.848c-.15-1.286-.305-2.615-.48-3.921a121.156 121.156 0 0 0-.68-4.528c-.56-3.281-1.23-6.175-2.047-8.846-.937-3.063-2.105-5.863-3.472-8.324-.63-1.136-1.393-2.331-2.33-3.654a33.405 33.405 0 0 0-2.801-3.478 20.82 20.82 0 0 0-3.28-2.872 14.083 14.083 0 0 0-1.79-1.068 15.49 15.49 0 0 0-1.702-.709c-1.01-.362-2.06-.65-3.077-.93-1.29-.353-2.624-.72-3.884-1.238-.87-.373-1.597-.782-2.223-1.248a7.736 7.736 0 0 1-.739-.665l.038-.136a.628.628 0 0 0-.061-.485.655.655 0 0 0-.563-.332.649.649 0 0 0-.355.105 4.45 4.45 0 0 0-.19-.318 6.996 6.996 0 0 0-.468-.63 3.548 3.548 0 0 0-.814-.731c-.1-.065-.213-.11-.32-.155l-.054-.022c-.1-.041-.21-.054-.308-.065l-.037-.005a.69.69 0 0 0-.097-.007c-.084 0-.164.012-.25.025l-.033.006a.98.98 0 0 0-.279.104l-.034.017c-.09.044-.172.116-.246.187-.172.166-.262.384-.322.556-.061.176-.076.367-.091.552a1.937 1.937 0 0 0-.007.128 13.67 13.67 0 0 0-.386-1.892c-.445-1.59-1.16-2.907-2.127-3.914a6.447 6.447 0 0 0-1.747-1.285 6.88 6.88 0 0 0-1.112-.437c-.442-.132.267-.526-.08-.569-.015-.002-.55-.07-.564-.07-.053 0-.19-.44-.247-.42l-.07.56-.545-.149a3.927 3.927 0 0 1-.025-.593l-.318.204c-.016.036-.03.072-.048.108l-.004.025-.004.024-.003.02v.01l-1.307-.663c.01.026-1.075.11-1.055.141-.004.004.137.359.274.7a3.2 3.2 0 0 1-.146.35l-.003.025-.004.025-.003.02c-.005.04-.01.07-.012.1-.11-.613-.23-1.224-.333-1.74-.076-.381-.152-.762-.23-1.142l-.004-.024c-.36-1.782-.73-3.624-.986-5.454-.031-.235-.06-.471-.087-.707l-.012-.095-.064-.526c-.055-.423-.113-.844-.172-1.266l-.087-.63c-.237-1.791-.358-3.297-.18-4.824.062-.406.146-.807.25-1.189A1.083 1.083 0 0 0 95.346 90c-.487 0-.93.332-1.054.79-.31 1.146-.446 2.428-.404 3.81a1.104 1.104 0 0 0-.318.331 126.272 126.272 0 0 0-2.422 4.019.762.762 0 0 0-.112.163l-.097.196c-.257.447-.52.909-.793 1.39-.05-.662-.09-1.282-.117-1.843a1.239 1.239 0 0 0-.102-.45c.105-.133.212-.27.32-.404l-.154.062-.297.129a.696.696 0 0 0-.084-.099 1.085 1.085 0 0 0-.262-.19c.117.66.243 1.326.364 1.97l.12.637c.018.09.034.18.05.269a.654.654 0 0 0-.124-.01 1.12 1.12 0 0 0-.946.53l-.16.259c-.237.385-.48.782-.756 1.157-.114.14-.224.262-.336.374a1.093 1.093 0 0 0-.609.145c-.21.121-.362.302-.464.552a.998.998 0 0 0-.231.1l-.11.083-.11.084a1.077 1.077 0 0 0-.19.255l-.01-.003-.14-.046a.85.85 0 0 0-.273-.042c-.052 0-.105.003-.16.012a1.106 1.106 0 0 0-1.028.282c-.418.416-.418 1.085 0 1.522.201.21.438.383.702.515-.18.365-.363.674-.558.943-.127.15-.262.288-.402.408a2.745 2.745 0 0 1-.326.192 2.73 2.73 0 0 1-.344.092l-.028.002-.03.002a.909.909 0 0 0-.12-.098 1.01 1.01 0 0 0-.023-.45 1.083 1.083 0 0 0-.497-.643 1.08 1.08 0 0 0-.545-.142c-.405 0-.764.202-.937.528l-.02.037-.02.037a1.091 1.091 0 0 0-1.25.483 1.08 1.08 0 0 0 .294 1.41 6.043 6.043 0 0 1-.131.192c-.085.099-.17.186-.26.266-.046.03-.093.058-.141.084a2.002 2.002 0 0 1-.112.03 1.675 1.675 0 0 1-.16-.001 2.104 2.104 0 0 1-.204-.055 2.504 2.504 0 0 1-.192-.112 3.178 3.178 0 0 1-.323-.331 6.658 6.658 0 0 1-.458-.75.95.95 0 0 0-.267-.31c.189-.152.439-.355.691-.569a3.253 3.253 0 0 1 1.43-.827l.565-.076c.412-.35.82-.703 1.229-1.055l.137-.117c.723-.623 1.372-1.174 1.983-1.686-.099-.543-.2-1.085-.301-1.626l-.132-.699-.013-.07-.17-.901c-.463.208-.895.42-1.323.649-.446.238-.879.496-1.285.767-.399.264-.798.568-1.22.928a9.47 9.47 0 0 0-2.285 2.926l-.019.037.118-.307c.137-.367.247-.66.344-.915.604-1.57 1.272-2.912 2.04-4.104.117-.217.256-.42.412-.6.26-.823.54-1.699.861-2.568l.032-.086.004-.013.006-.015c.402-1.08.817-2.197 1.353-3.234.269-.517.507-.932.752-1.305.124-.19.25-.378.378-.566.19-.105.386-.22.599-.35 1.16-.709 2.32-1.598 3.546-2.719.42-.383.843-.794 1.259-1.222a.655.655 0 0 0-.052.161 6.005 6.005 0 0 1-.075.265c.022.01.04.012.06.014l.017.002c.083-.103.16-.213.228-.328a4.923 4.923 0 0 1-.064-.238 35.685 35.685 0 0 0 1.658-1.841c.46-.548.945-1.14 1.373-1.761.409-.594.78-1.273 1.102-2.019.924-2.131 1.271-4.453 1.607-6.7l.006-.037.003-.02.001-.014.005-.028c.086-.574.203-1.36.334-2.097.027-.154.056-.307.085-.46l.015-.076.004-.024c.038-.198.076-.395.11-.594.067-.397.128-.843.186-1.363.085-.791.144-1.638.185-2.665.027-.701.044-1.417.057-1.992v-.034l.001-.015v-.016l.001-.027v-.028l.001-.027v-.027l.001-.027c.024-1.03.05-2.097.12-3.142.015-.224.032-.448.052-.671.038-.422.09-.851.137-1.221.052-.412.098-.874.141-1.414.07-.892.088-1.79.051-2.669a19.211 19.211 0 0 0-.311-2.672 14.295 14.295 0 0 0-.274-1.194l.007-.055.009-.086c.04-.263.1-.501.188-.726.038-.078.08-.15.13-.223.111-.13.243-.25.36-.355l.152-.14c.233-.218.396-.432.499-.656.137-.293.189-.608.22-.85.034-.28.046-.58.039-.947a18.26 18.26 0 0 0-.092-1.264l-.002-.021v-.013a17.642 17.642 0 0 1-.098-1.4 4.76 4.76 0 0 1 .009-.635c.018-.107.045-.209.08-.303.121-.254.298-.499.454-.708.093-.114.197-.228.318-.348l.082-.08.027-.025c.08-.077.153-.146.223-.222a1.87 1.87 0 0 0 .275-.385c.09-.168.155-.362.2-.593.046-.26.068-.522.063-.78a4.299 4.299 0 0 0-.133-.89c-.042-.175-.09-.346-.15-.553l-.004-.015-.005-.016-.004-.012-.006-.023a7.44 7.44 0 0 1-.22-.91c-.046-.444-.009-.885.039-1.296.052-.462.093-.878.058-1.297a3.493 3.493 0 0 0-.097-.58 3.075 3.075 0 0 0-.762-1.31 4.516 4.516 0 0 0-.776-.635 7.047 7.047 0 0 0-.864-.49c-.445-.219-.913-.406-1.327-.572l-.013-.006-.1-.041a42.746 42.746 0 0 1-.415-.169.255.255 0 0 0-.102-.019.454.454 0 0 0-.217.06.412.412 0 0 0-.148.56l.032.044.031.04c.052.05.114.086.183.105l.078.032a.208.208 0 0 0-.098.081 3.554 3.554 0 0 0-.49-.324 6.056 6.056 0 0 0-1.237-.529.362.362 0 0 0-.11-.017.42.42 0 0 0-.398.303.412.412 0 0 0 .287.504c.165.051.333.111.5.179.384.168.71.351.992.56.145.115.266.232.372.357.048.069.087.134.12.2.018.049.031.095.04.14a.929.929 0 0 1 0 .104c-.01.04-.02.08-.033.117-.026.05-.056.099-.091.152a2.148 2.148 0 0 1-.374.335.458.458 0 0 0-.17.188l.022.025c.194.201.456.473.69.746.236.275.481.575.677.902.098.166.18.332.244.495.054.141.089.285.11.452.02.157.01.313-.027.45a1.306 1.306 0 0 1-.09.229 1.246 1.246 0 0 1-1.11.658h-.014c-.456 0-.889-.149-1.215-.279a14.43 14.43 0 0 1-.53-.225c.192.422.358.798.505 1.152.332.806.6 1.6.798 2.36.115.45.198.845.254 1.207.05.333.108.769.111 1.193.003.397-.03.74-.1 1.05a3.18 3.18 0 0 1-.166.495 1.815 1.815 0 0 1-.36.559c-.641-.917-1.284-1.86-1.906-2.771l-.007-.01-.006-.01-.07-.101-.018-.026-.014-.02c-.27-.397-.54-.793-.813-1.19a88.582 88.582 0 0 0-1.281-1.823c-.183-.253-.394-.54-.63-.854l-.23-.3-.052-.068a29.538 29.538 0 0 1-.718-.964l-.024-.034-.03-.042-.013-.018c-.191-.269-.43-.603-.676-.915a8.824 8.824 0 0 0-.653-.74 4.217 4.217 0 0 0-.298-.266 2.449 2.449 0 0 0-.339-.224l.088-.133c.507-.846.928-1.55 1.338-2.261.058-.1.071-.22.036-.338a.474.474 0 0 0-.233-.288.458.458 0 0 0-.211-.053c-.17 0-.33.095-.419.249-.44.763-.91 1.548-1.252 2.121l-.028.048-.027.044-.011.02c-.723 1.208-1.469 2.458-2.155 3.721-1.402 2.581-2.305 4.738-2.84 6.788a15.755 15.755 0 0 0-.498 3.165 11.51 11.51 0 0 0 .24 2.996.33.33 0 0 0 .024.14l.007.017.007.017.005.022a.293.293 0 0 0 .052.111c.283.67.612 1.315.897 1.858.146.06.29.13.426.208l.323.248.332.256c.15.19.3.38.446.572.118.108.23.23.334.362.09.085.167.163.238.242a.458.458 0 0 1 .228-.152.44.44 0 0 1 .53.299c.183.577.392 1.194.639 1.886a14.147 14.147 0 0 1 .691 1.728 14.157 14.157 0 0 1 1.1 2.928c.13.513.238 1.043.34 1.67a22.602 22.602 0 0 1 .375 1.704c.06.338.112.675.153 1 .075.592.116 1.17.122 1.715v.048l.002.155c0 .762-.05 1.543-.15 2.322a24.426 24.426 0 0 1-1.28 5.293c-.629 1.73-1.403 3.325-2.299 4.74l-.023.036-.023.037-.046.072-.006.01-.02.03-.022.033-.028.043-.024.038c-1.086 1.65-2.287 3.013-3.57 4.05-.354.287-.71.55-1.059.783a11.132 11.132 0 0 1-3.511 1.578.493.493 0 0 1-.145.012.608.608 0 0 0-.17.371.695.695 0 0 0-.372.181l-.01.01-.082.057-.028.018-.041.028c.411-.08.827-.138 1.245-.172.282-.022.565-.034.847-.034.722 0 1.442.074 2.152.212.232.046.362.316.303.528a.434.434 0 0 1-.2.257.458.458 0 0 1-.332.044 11.997 11.997 0 0 0-.594-.1 10.5 10.5 0 0 0-1.156-.081c-.184.145-.36.285-.531.423a.355.355 0 0 0 .165.02c-.268.21-.53.387-.777.523a.896.896 0 0 1-.107.049c-.205.173-.394.336-.578.5a4.87 4.87 0 0 0 1.366 1.06c.136.071.287.135.449.193a19.323 19.323 0 0 1-1.076 3.499 16.957 16.957 0 0 1-2.136 3.667 14.743 14.743 0 0 1-2.563 2.557c-.255.192-.52.378-.787.555-.197.128-.26.369-.148.56.072.123.219.205.366.205.073 0 .142-.02.2-.058.267-.175.54-.367.81-.571.044.02.093.03.145.03.04 0 .074-.006.104-.019l.011-.004c1.206-.464 2.573-.99 3.817-1.657-.055.37-.081.772-.081 1.195a.288.288 0 0 0-.03-.001.17.17 0 0 0-.055.008.413.413 0 0 0-.245.188.417.417 0 0 0-.042.316c.028.128.054.256.079.383l-.158-.004-.277.002c-.52 0-1.022-.03-1.491-.087a10.29 10.29 0 0 1-.836-.152.473.473 0 0 0-.103-.013.41.41 0 0 0-.405.298.41.41 0 0 0 .048.325c.056.093.14.157.24.18.254.058.518.107.787.147a.256.256 0 0 0 .038.095c-.685-.121-1.398-.264-2.027-.39l-.048-.01-.063-.012-.022-.005-.055-.011a76.955 76.955 0 0 0-1.594-.308.64.64 0 0 0-.116-.012.408.408 0 0 0-.397.492.281.281 0 0 0-.063.1 9.12 9.12 0 0 1-.767-.514 7.03 7.03 0 0 1-.31-.257.43.43 0 0 0-.292-.12.418.418 0 0 0-.284.112l-.04-.033a21.24 21.24 0 0 1-.32-.235.337.337 0 0 0-.202-.057.408.408 0 0 0-.348.18c-.016.14-.032.262-.05.365a.455.455 0 0 0 .18.22c.408.305.83.582 1.255.822.404.23.856.445 1.382.656a12.186 12.186 0 0 0 2.85.738l.013.002c.155.026.317.05.495.075.83.113 1.694.173 2.641.182a3.275 3.275 0 0 1 1.958.123c.077-.079.136-.14.189-.19a3.514 3.514 0 0 1 .443-.358l.014-.008.02-.015.014-.008.186-.089-.032.046-.027.056c-.522 1.068-.894 1.964-1.17 2.822-.075.228-.14.453-.195.669a3.026 3.026 0 0 1-.304.3 3.38 3.38 0 0 1-.444.256c-.172.061-.351.108-.524.152l-.012.004-.014.003a9.526 9.526 0 0 0-.204.054l-.13.036-.032.009-.177.048a1.129 1.129 0 0 0-.814-.52.442.442 0 0 0-.363-.172.472.472 0 0 0-.254.072.47.47 0 0 0-.212.358 1.1 1.1 0 0 0-.373.811c-.02.496.15.953.468 1.253.144.135.314.241.507.314.108.283.284.541.496.727.089.076.203.162.316.235.081.053.19.096.278.13l.033.013.052.02c.207.088.417.112.64.137.078.009.16.013.246.013.274 0 .544-.047.749-.089.122-.025.25-.066.403-.13.23-.096.422-.18.612-.305.517-.34.967-.833 1.418-1.553.05-.08.1-.162.147-.244.165.113.352.195.582.284.265.102.567.156.874.156a4.134 4.134 0 0 0 .937-.13c.21-.06.41-.15.647-.265.347-.17.655-.426.91-.655.276-.25.506-.547.728-.834l.026-.033c.133-.172.266-.362.404-.58.054.01.111.017.168.024l.084.011c.096.013.197.02.3.02a3.878 3.878 0 0 0 .983-.139c.214-.063.442-.16.697-.294a3.75 3.75 0 0 0 .544-.376l.035-.028c.143-.11.278-.235.414-.377.512-.537.948-1.213 1.371-2.13.05.022.101.04.153.058.119.04.248.061.386.061.365 0 .705-.142.926-.262.176-.095.332-.223.483-.348l.04-.033c.135-.111.258-.237.35-.334.301-.315.567-.664.835-1.022l.024-.033 1.158-1.243c.089.547 2.631 14.268-.11 23.028-.337 1.072-.942 2.24-1.677 3.308-.439.636-2.22 2.738-2.683 3.26a8.943 8.943 0 0 1-1.726 1.503.96.96 0 0 0 .106.25 1.09 1.09 0 0 0 .952.534c.21 0 .4-.053.532-.149a93.288 93.288 0 0 1 2.232-1.548c1.54-1.045 3.133-2.125 4.55-3.38a16.715 16.715 0 0 0 2.813-3.21 13.632 13.632 0 0 0 1.459-2.88l.037-.088a7.591 7.591 0 0 0 .247-.534.433.433 0 0 1 .012-.166l.043-.102c.037-.081.077-.16.12-.236.028-.057.058-.113.091-.167l.057-.147c.09-.24.18-.475.274-.704.03-.069.061-.136.092-.204l.028-.064.038-.09a.097.097 0 0 0 .004-.02c.118.104.267.16.418.16.059 0 .117-.008.172-.025.292-.09.558-.154.813-.195l.068-.006.096-.132-.092 1.513.01-.023a.435.435 0 0 1 .012-.166l.044-.102c.036-.081.076-.16.12-.236.027-.057.058-.113.09-.166l.057-.148c.09-.24.18-.474.275-.704.03-.068.06-.136.092-.204l.027-.064.038-.09a.107.107 0 0 0 .005-.019c.117.104.266.16.417.16.06 0 .118-.009.172-.025a5.87 5.87 0 0 1 .813-.196 3.514 3.514 0 0 1 .656-.008c.136.024.26.057.379.1a2.14 2.14 0 0 1 .28.167 2.315 2.315 0 0 1 .942.875c.219.368.36.786.423 1.207.038.263.068.526.067.792a5.74 5.74 0 0 1-.163 1.343.66.66 0 0 0 .42.154.7.7 0 0 0 .174-.022c.14-.039.32-.148.389-.298.69-1.508 1.112-3.236 1.289-5.282.076-.876.087-1.77.034-2.658.025.171.058.343.09.504.07.351.151.702.229 1.042l.044.193.005.095c-.314 1.162-.47 2.058-.503 2.907a.63.63 0 0 0 .301.544c-.154.36-.301.731-.445 1.09l-.012.03c-.138.348-.281.706-.428 1.056l-.008.017-.025.06c-.203.289-.366.536-.512.779a6.532 6.532 0 0 0-.536 1.123c-.13.175-.258.366-.393.583l-.102.165c-.157.254-.318.517-.503.766l-.062.078a.642.642 0 0 0-.053.545c-.229.179-.459.367-.681.549-.276.225-.554.452-.835.67-.395.299-.87.636-1.407.88-.106.042-.21.077-.308.105a.652.652 0 0 0-.455.795.662.662 0 0 0 .63.475.648.648 0 0 0 .17-.023c.763-.22 1.42-.662 1.963-1.067.354-.263.7-.548 1.036-.824l.01-.008.034-.028c.252-.206.513-.42.775-.624.447-.346.8-.638 1.112-.922.385-.349.766-.74 1.134-1.162.436-.502.837-1.035 1.228-1.63.738.208 1.603.461 2.52.765l.148.029c.326.066.646.16.959.273.726.26 1.426.59 2.106.954 1.294.61 2.422 1.281 3.428 2.042.21.164.416.333.616.507.234.167.464.339.685.521a14.87 14.87 0 0 1 2.225 2.31 24.647 24.647 0 0 1 1.916 2.829c1.127 1.937 2.05 3.995 2.81 6.1a45.772 45.772 0 0 1 2.032 7.716c.455 2.626.714 5.284.81 7.947.01.287.02.897.026 1.184l11.12.044-.033-.609zm-75.932-59.6c.259-.036.467-.096.645-.183a1.59 1.59 0 0 0 .251-.149l1.913.672 3.24-8.509-3.099-4.805-4.356-.755-2.686.525c.104-.393.175-.796.3-1.184a2.53 2.53 0 0 1 .23-.464c.063-.099.061-.248.025-.354a.461.461 0 0 0-.585-.283.495.495 0 0 0-.26.227c-.411.642-.455 1.423-.685 2.133a3.14 3.14 0 0 1-.051.125l-.156.03.08.128a2.443 2.443 0 0 1-.104.187 2.235 2.235 0 0 1-.256.283c-.118.096-.244.18-.378.253-.094.042-.19.077-.29.103a1.283 1.283 0 0 1-.17.013 1.007 1.007 0 0 1-.087-.018.923.923 0 0 1-.06-.03.953.953 0 0 1-.051-.045 1.148 1.148 0 0 1-.07-.103 1.743 1.743 0 0 1-.088-.276c-.026-.11-.13-.21-.228-.259a.46.46 0 0 0-.617.203.484.484 0 0 0-.024.354c.066.271.186.52.379.724.16.172.37.276.597.333.234.058.477.021.707-.03.236-.052.462-.172.665-.298.234-.146.439-.332.61-.544l1.648 2.624s-.682 4.323.367 7.395c-.22.479-.433.96-.626 1.451a.645.645 0 0 0 .298.727.623.623 0 0 0 .147.061l-.029.036.14-.015a.67.67 0 0 0 .28-.032 15.773 15.773 0 0 0 .317-.04c-.058.155-.016.357.065.496a.65.65 0 0 0 .735.295c.008.141.021.284.04.427l.023.17a.647.647 0 0 0 .626.474.653.653 0 0 0 .458-.189c.109-.108.21-.297.19-.455a6.604 6.604 0 0 1-.02-1.429zm8.891-7.796c.06 0 .118-.01.172-.03.617-.219 1.208-.459 1.763-.716-.41.004-.822.03-1.231.081-.441.062-.877.15-1.306.262a.685.685 0 0 0 .602.403zm10.378 51.199a8.47 8.47 0 0 1-1.626.86c-.734.264-1.496.438-2.271.53a9.98 9.98 0 0 1-2.29-.066 11.115 11.115 0 0 1-2.399-.76 9.896 9.896 0 0 1-.398-.2 10.29 10.29 0 0 1-1.055-.154 6.062 6.062 0 0 1-1.48-.5 4.622 4.622 0 0 1-.974-.65c-.1-.002-.201-.005-.301-.01.056.402.195.792.4 1.142.321.548.771.967 1.266 1.357.415.327.882.588 1.357.817.536.258 1.085.486 1.65.672.216.07.435.135.655.192a11.4 11.4 0 0 0 2.55.04 15.311 15.311 0 0 0 3.606-.857c.486-.19.957-.408 1.42-.647.493-.254.98-.517 1.437-.83.287-.213.553-.449.79-.716.186-.241.34-.498.475-.77.098-.224.184-.451.27-.678-.752.214-1.516.39-2.286.53a7.035 7.035 0 0 1-.796.698zm31.866 12.373c.215-1.309.398-2.621.447-3.948.017-.465-.328-.893-.766-1.026.207-.728.446-1.445.734-2.145.086-.197.176-.39.271-.582.002-.207 0-.414-.002-.621a27.346 27.346 0 0 1-.102-1.661c-.306.34-.606.686-.89 1.044a12.215 12.215 0 0 0-1.478 2.495c-.875 2.115-1.323 4.37-1.747 6.61-.216 1.144-.427 2.289-.685 3.425a39.13 39.13 0 0 0-.178.828h5.231c.018-1.274-.056-2.578-.39-3.813a1.064 1.064 0 0 0-.445-.606zm-74.097 0c.214-1.309.398-2.621.446-3.948.017-.465-.328-.893-.765-1.026.207-.728.446-1.445.734-2.145.086-.197.176-.39.271-.582.001-.207 0-.414-.002-.621a27.259 27.259 0 0 1-.102-1.661c-.307.34-.606.686-.89 1.044a12.22 12.22 0 0 0-1.478 2.495c-.875 2.115-1.323 4.37-1.747 6.61-.216 1.144-.427 2.289-.685 3.425-.062.275-.122.552-.178.828h5.231c.018-1.274-.057-2.578-.39-3.813a1.064 1.064 0 0 0-.445-.606zm13.195-87.167c.149.246.289.504.388.774.108.292.198.592.276.893.145.559.26 1.132.312 1.708.043-.026.086-.05.13-.075.05-.028.1-.055.15-.08l.04-.022c.035-.018.071-.034.107-.051l.03-.015a5.124 5.124 0 0 1 .248-.106l.039-.015a5.727 5.727 0 0 1 .221-.08 4.196 4.196 0 0 1 1.37-.219c.24 0 .48.019.716.057a3.534 3.534 0 0 1 .396 0c.229.017.464.044.686.106l-.074-.081.075.081c.044.013.087.026.13.042l.006.002a.442.442 0 0 0 .04.42c.145.207.276.42.391.644.133.288.235.585.301.894.045.278.06.556.045.836-.033.307-.101.604-.2.896-.051.13-.11.257-.17.381a.454.454 0 0 0-.107-.139 7.753 7.753 0 0 0-.344-.369 3.511 3.511 0 0 0-.567-.453 1.122 1.122 0 0 0-.655-.184.81.81 0 0 0-.356.12c-.003.002-.005.005-.008.006-.015-.003-.03-.008-.045-.01a1.349 1.349 0 0 0-.25-.023c-.065 0-.13.004-.193.01-.525.055-.999.281-1.488.456a.461.461 0 0 0-.29.578.464.464 0 0 0 .582.288c.356-.128.7-.282 1.067-.375.02.095.07.183.144.254.347.334.813.606 1.3.66a.463.463 0 0 0 .27-.022.47.47 0 0 0 .41.068.434.434 0 0 0-.068.256.457.457 0 0 0 .484.431.443.443 0 0 0 .317-.15 6.58 6.58 0 0 0 .557-.871.451.451 0 0 0 .06.062c.099.189.352.277.551.21a.46.46 0 0 0 .263-.224.473.473 0 0 0 .027-.353 4.817 4.817 0 0 1-.04-.168 3.96 3.96 0 0 1-.01-.06 3.341 3.341 0 0 0-.01-.819.454.454 0 0 0-.321-.408l.008-.097c.035-.48-.043-.967-.18-1.426-.149-.5-.408-.975-.707-1.402a.478.478 0 0 0-.49-.191 4.997 4.997 0 0 1-.384-.429 5.452 5.452 0 0 1-.15-.207 6.1 6.1 0 0 1-1.115-1.697 8.469 8.469 0 0 1-.477-1.366 11.344 11.344 0 0 1-.254-1.452l-.01-.089a14.307 14.307 0 0 1-.393-1.839l-.069-.436-.02-.134-.02-.142-.006-.042a15.418 15.418 0 0 1-.046-.388l-.005-.048-.003-.038c-.01-.1-.017-.2-.023-.3l-.005-.098c-.017-.342-.02-.685-.006-1.028v-.006a.261.261 0 0 0-.008.018c-.79 2.17-1.741 4.287-2.927 6.274a.387.387 0 0 0-.053.19c-.005.012-.012.023-.016.035.076.083.15.168.217.259.074.102.143.21.21.318zm.025 19.071c.23-.558.294-1.162.479-1.734.062-.162.136-.317.23-.465.063-.098.06-.247.024-.354a.462.462 0 0 0-.584-.282.494.494 0 0 0-.261.226c-.41.643-.454 1.424-.685 2.134-.062.164-.137.32-.23.47a2.235 2.235 0 0 1-.256.283 2.4 2.4 0 0 1-.378.253c-.095.042-.191.077-.291.103a1.262 1.262 0 0 1-.169.012.969.969 0 0 1-.087-.017.808.808 0 0 1-.061-.03.91.91 0 0 1-.05-.045 1.11 1.11 0 0 1-.07-.104 1.73 1.73 0 0 1-.088-.275c-.027-.11-.13-.21-.228-.259a.467.467 0 0 0-.253-.045c-.078-.502-.244-.986-.323-1.489a2.515 2.515 0 0 1-.005-.518c.012-.116-.058-.248-.139-.327a.466.466 0 0 0-.65.009.49.49 0 0 0-.13.318c-.076.758.238 1.475.354 2.212.019.175.023.348.006.523a2.23 2.23 0 0 1-.1.367c-.062.139-.136.27-.223.395-.065.08-.135.154-.213.222-.047.032-.095.06-.145.086a.948.948 0 0 1-.086.023.808.808 0 0 1-.068 0 .953.953 0 0 1-.066-.017 1.16 1.16 0 0 1-.108-.062 1.745 1.745 0 0 1-.204-.206.446.446 0 0 0-.32-.13.456.456 0 0 0-.46.457c0 .132.056.23.139.327.18.213.4.381.665.478.222.081.457.081.685.03.236-.052.435-.193.618-.342.187-.152.335-.36.459-.563.103-.17.183-.35.242-.538a1.205 1.205 0 0 0 .66.404c.234.058.476.021.707-.03.236-.052.462-.172.665-.299.453-.282.796-.711.998-1.2zm42.89-21.235c-.179.128-.363.26-.548.383a.479.479 0 0 0-.212.273.458.458 0 0 0 .047.353c.08.137.245.229.41.229.08 0 .156-.023.22-.065.183-.123.367-.254.544-.381.425-.305.864-.62 1.349-.838a3.35 3.35 0 0 1 .674-.186c.13-.014.262-.02.405-.02.219 0 .456.016.745.05.264.04.479.093.675.166.092.044.175.092.253.146.05.043.094.088.137.138.036.054.069.11.099.17.03.087.054.175.071.27.01.123.009.246-.003.376a2.534 2.534 0 0 1-.124.451 2.837 2.837 0 0 1-.295.49 9.286 9.286 0 0 1-.807.84l-.081.077c-.252.24-.508.503-.783.804a6.968 6.968 0 0 0-.761.968c-.201.313-.32.626-.357.928l-.01.015a6.908 6.908 0 0 0-.079.1.452.452 0 0 0 0 .462.468.468 0 0 0 .396.227h.062l.076.02c.03.017.06.034.088.053.047.04.092.087.137.14.081.114.154.245.224.4.145.36.247.76.32 1.26.032.25.051.496.057.732.006.21-.006.427-.038.685a5.824 5.824 0 0 1-.35 1.348 3.531 3.531 0 0 1-.358.62c-.108.13-.22.242-.344.342l-.068.052a.46.46 0 0 0-.119.445.455.455 0 0 0 .119.202l.013.015c.162.22.304.462.42.719.12.305.21.635.264.982.053.446.05.915-.008 1.394-.074.486-.19.93-.347 1.322-.092.2-.198.383-.324.557-.156.19-.337.36-.511.526l-.026.025c-.274.26-.452.496-.56.74l-.019.045-.027.063a.46.46 0 0 0 0 .244.462.462 0 0 0 .321.32 3.604 3.604 0 0 0 1.169.145c.178-.01.368-.04.563-.086a3.052 3.052 0 0 0 1.389-.805c.24-.232.463-.527.663-.875a5.037 5.037 0 0 0 .63-2.097c.016-.177.018-.359.02-.534v-.071l.001-.502v-.32c.002-.426.011-.931.073-1.442.068-.454.178-.863.334-1.252.316-.707.695-1.398 1.06-2.066.27-.492.55-1.001.801-1.513a14.389 14.389 0 0 0 1.189-3.44c.252-1.222.256-2.276.012-3.224-.272-1.056-.944-2.013-1.893-2.694-.259-.185-.56-.313-.87-.438a5.446 5.446 0 0 0-1.108-.31 4.462 4.462 0 0 0-.743-.068c-.616 0-1.099.168-1.435.5a.446.446 0 0 0-.128.252 4.586 4.586 0 0 0-.53.061c-.424.072-.87.254-1.363.557-.276.169-.543.36-.802.545zm-42.34 39.29c-.49.039-.98.072-1.467.124-.067.008-.123.022-.172.07a.243.243 0 0 0 0 .343c.041.04.111.077.172.07.59-.063 1.18-.1 1.77-.15.233-.02.466-.044.698-.072a6.5 6.5 0 0 0 .061.029l.376-.572a9.64 9.64 0 0 1-1.013.138c-.141.01-.283.018-.426.02zm8.3-2.11a2.692 2.692 0 0 0-.255-.426 7.755 7.755 0 0 0-.378-.42c-.215.2-.434.394-.66.58-.248.205-.501.406-.765.59a6.51 6.51 0 0 1-.787.492 8.35 8.35 0 0 1-1.688.624c-.374.097-.75.183-1.128.265-.234.347-.466.696-.695 1.046.27.03.54.03.811.01.096-.008.191-.017.287-.028.043.067.119.114.204.112 1.487-.039 2.929-.437 4.396-.64.18-.024.362-.045.544-.061a.38.38 0 0 1 .013-.045c.1-.275.172-.555.218-.843.027-.26.032-.518.006-.78a2.788 2.788 0 0 0-.124-.475zM50.521 79.129c.24-.166.481-.33.716-.504.44-.328.876-.675 1.382-.898a2.26 2.26 0 0 1 .487-.138c.042-.005.084-.008.126-.01.132-.006.243-.105.243-.241 0-.127-.11-.248-.243-.242-.1.005-.2.019-.298.036a.244.244 0 0 0-.184-.09.287.287 0 0 0-.126.033 11.17 11.17 0 0 0-.723.39.245.245 0 0 0-.144-.047c-.07 0-.12.028-.172.07l-.008.006-.057.018a.243.243 0 0 0-.205-.06c.053-.09.102-.18.146-.273a.242.242 0 0 0-.038-.293.263.263 0 0 0-.18-.072.198.198 0 0 0-.115.034c-.13.093-.258.19-.383.29a.246.246 0 0 0-.069-.06.25.25 0 0 0-.294.038c-.716.645-1.293 1.43-1.8 2.242-.506.81-.94 1.662-1.363 2.517a.251.251 0 0 0-.024.186.24.24 0 0 0 .047.09 1.744 1.744 0 0 0-.163.465.256.256 0 0 0 .024.185.244.244 0 0 0 .445-.057c.017-.095.045-.186.08-.275.106-.238.254-.454.411-.66.194-.247.403-.48.612-.714.103-.114.205-.228.305-.344.097-.112.188-.228.278-.344.285-.362.595-.703.926-1.023l.36-.255zm6.892-6.412l.064.01c.062-.05.125-.1.19-.146-.086.043-.17.088-.254.136zM86.7 27.174c.208.511.335 1.055.442 1.595.107.541.181 1.09.256 1.636l-.015-.107c.102.755.18 1.52.134 2.282a3.288 3.288 0 0 1 .31.541l.03.067a2.82 2.82 0 0 1 .091.244l.022.066.028.098.016.06.027.12.009.04a3.131 3.131 0 0 1 .058.474c-.013.437-.034.874-.058 1.311a94.213 94.213 0 0 1-.065 1.056c.049-.115.082-.237.106-.362a.755.755 0 0 0 .751-.072c.05-.037.097-.072.14-.115.05-.05.09-.108.131-.163.054-.072.095-.153.132-.235.103-.226.176-.46.231-.702.12-.517.173-1.051.211-1.58.024-.332.037-.666.044-1a.405.405 0 0 0-.317-.391c-.01-.122-.023-.243-.034-.364a23.215 23.215 0 0 0-.138-1.181c-.112-.8-.274-1.609-.584-2.359-.248-.6-.608-1.233-1.221-1.526a.562.562 0 0 0-.131-.044l-.004-.008c-.172-.36-.372-.707-.535-1.072a4.431 4.431 0 0 1-.123-.341.416.416 0 0 0-.499-.282c-.207.057-.349.286-.283.496.202.64.566 1.208.838 1.818zm-2.056 3.927a3.118 3.118 0 0 1 .526.13 3.409 3.409 0 0 1 .555.1 8.696 8.696 0 0 0-.067-.12.405.405 0 0 1-.17-.157l-.036-.085a3.157 3.157 0 0 0-.042-.089.28.28 0 0 1-.087-.04c-.373-.266-.781-.477-1.169-.721a.354.354 0 0 0 .04.306c.155.222.305.448.45.676z" fill="#CCC"/><path d="M99.57 113.036c.123.093.25.183.378.27l-.006-.027c.249.17.503.333.756.497l.033.02c.01-.028.02-.056.028-.085.08-.289.028-.567-.11-.828a14.356 14.356 0 0 1-.435-.91c-.034-.08-.066-.164-.1-.246.503.343 1.014.673 1.502 1.036.282.225.55.467.784.741a3.2 3.2 0 0 1 .258.431 3 3 0 0 1 .123.454c.02.242.015.484-.009.726-.127.746-.401 1.46-.693 2.157-1.09 2.519-2.594 4.846-4.27 7.017a49.438 49.438 0 0 1-3.046 3.517 28.813 28.813 0 0 1-3.2 2.912 24.96 24.96 0 0 1-5.215 3.043 23.261 23.261 0 0 1-5.582 1.518 24.056 24.056 0 0 1-5.98-.013 23.424 23.424 0 0 1-2.665-.521c-.809-.211-1.601-.48-2.375-.796a19.777 19.777 0 0 1-4.077-2.365 19.98 19.98 0 0 1-3.39-3.364 19.342 19.342 0 0 1-2.354-3.992 18.237 18.237 0 0 1-1.205-4.36 17.746 17.746 0 0 1-.101-1.09v-.005c-.01-.164-.018-.329-.024-.494l-.003-.129a17.218 17.218 0 0 1 .006-1.122c.002-.066.006-.132.01-.198.005-.114.01-.228.018-.341l.005-.068c.01-.145.022-.29.036-.433.03-.076.062-.152.096-.227l.01-.022.062.05c.637 1.148 1.663 2.07 2.778 2.77a11.223 11.223 0 0 0 3.396 1.374c-.6-.352-1.16-.777-1.679-1.238a11.786 11.786 0 0 1-1.872-2.108 3.422 3.422 0 0 0 2.335-1.029c.047.054.096.105.145.149.175.159.335.261.537.342a1.785 1.785 0 0 0 .628.107 2.047 2.047 0 0 0 1.32-.492l.014-.012a1.89 1.89 0 0 0 .25-.24c.1-.11.193-.225.278-.345.032.068.07.134.095.177.083.145.207.258.296.328.118.09.233.153.344.187l.035.012c.077.026.143.048.22.063.07.012.142.015.23.018l.043.001h.045c.218 0 .458-.048.755-.153.285-.099.553-.246.8-.391.227-.13.469-.297.739-.51.146-.116.285-.234.425-.36v.018l.014.022a1.437 1.437 0 0 0 1.173.624c.21 0 .45-.046.708-.135.171-.058.342-.15.48-.223l.048-.025c.14-.073.284-.162.442-.272.264-.18.53-.392.864-.689a17.014 17.014 0 0 0 1.378-1.384c.003.011.01.02.016.03.186.245.48.41.768.432.06.004.12.008.18.008.031 0 .062-.001.092-.004.092-.009.181-.031.264-.053l.04-.01c.16-.04.31-.121.454-.2l.02-.01c.315-.17.587-.396.812-.594.677-.6 1.265-1.278 1.701-1.8.156-.189.313-.386.433-.537l.035-.043.007-.01.02.04c.227.279.502.455.818.525.072.016.147.024.224.024.197 0 .41-.051.599-.145.15-.073.27-.145.38-.225a4.02 4.02 0 0 0 .387-.345c.456-.45.802-1 1.136-1.53l.015-.025c.09-.141.177-.285.262-.429l.001.013a.36.36 0 0 0 .028.053l.023.039c.012.026.023.053.033.082a.641.641 0 0 0 .59.41.669.669 0 0 0 .483-.223c.804-.835 1.351-1.856 1.738-2.653.23-.47.44-.952.625-1.378l.014-.031.005-.012.057-.13.028-.064.048-.109.021-.049.096-.217.003.015.03.03c.03.036.056.072.082.11a.623.623 0 0 0 .514.268.68.68 0 0 0 .483-.223c.376-.382.665-.82.876-1.158.23-.367.44-.785.662-1.316a14.63 14.63 0 0 0 .587-1.68.988.988 0 0 0 .617.096 1.45 1.45 0 0 0 .27-.072c.076-.027.152-.071.203-.1l.045-.026c.12-.066.216-.156.308-.243l.048-.044c.24-.223.418-.503.59-.774l.013-.022c.398-.627.681-1.314.906-1.903.057-.143.118-.312.182-.5l.012.029c.052.078.086.134.112.182.043.08.129.153.242.204.018.753.045 1.495.08 2.204.177 3.537.57 6.614 1.2 9.409.112.492.235.985.366 1.467l.02.045c.383.893.794 1.676 1.256 2.397.126.19.236.346.346.491.274.34.59.65.965.945zM56.865 91.72a8.67 8.67 0 0 1-1.146.078c-.262 0-.515-.013-.753-.038a10.259 10.259 0 0 1-1.018-.16l-.093-.02-.023-.005c-.05-.01-.099-.02-.148-.032l-.025-.005c-.185-.04-.374-.079-.562-.114a6.997 6.997 0 0 0-.362-.044l-.036-.004a5.483 5.483 0 0 1-.564-.078 2.112 2.112 0 0 1-.269-.076.273.273 0 0 0-.036.102l.016.026.014.021c.118.157.262.308.44.463.028.023.06.093.086.068-1.259 1.249-.384 2.361-.484 2.473-.474.528-1.177 1.354-.56 2.508-.022-.042-1.31-.304-2.04.675 0 0 .324-1.04-.769-1.57.982-2.395-.063-4.26-.063-4.26.501-.595.546-1.428.509-1.971a.227.227 0 0 1 .14-.017c2.321.546 2.239-1.691 2.272-1.504.088.49 2.795.65 3.608-1.918l.002.011a6.084 6.084 0 0 0 .432.643c.378.487.782.845 1.236 1.093.192.106.43.186.687.232a1.938 1.938 0 0 0 .738-.021c.137-.03.283-.066.429-.125.144-.056.28-.136.402-.206.118-.068.229-.144.35-.241.205.223.406.425.598.602.443.408.832.675 1.224.841.265.113.533.17.797.17.213 0 .422-.039.619-.116.333-.13.624-.368.889-.727.466.296.95.602 1.545.724l.087.016-.017.02a4.038 4.038 0 0 0-.326.85c-.051.21-.083.438-.093.68-.02.438.089.875.304 1.229.038.065.087.133.144.203a1.75 1.75 0 0 0-.209.216c-.127.154-.238.33-.328.524-.267.565-.383 1.244-.356 2.074.026.761.162 1.516.3 2.224.035.185.072.37.11.555l.086.423-.03-.028a4.108 4.108 0 0 0-.15-.106c-.3-.205-.71-.463-1.213-.637a1.881 1.881 0 0 0-.618-.108 1.387 1.387 0 0 0-1.209.656.244.244 0 0 0-.034-.048 3.265 3.265 0 0 0-.5-.454 2.138 2.138 0 0 0-.472-.254 1.888 1.888 0 0 0-.603-.123l.01-.012.015-.024c.048-.092.086-.183.114-.271.038-.114.057-.237.073-.346l.012-.07a2.65 2.65 0 0 0-.014-.679c-.03-.258-.1-.502-.225-.794-.101-.24-.277-.465-.406-.631l.028-.055.027-.042c.173-.272.224-.622.153-1.07-.026-.16-.086-.311-.139-.444l-.006-.015a2.253 2.253 0 0 0-.194-.39 2.109 2.109 0 0 0-.607-.664l.041-.034c.137-.137.274-.288.384-.41l.007-.008.02-.022.102-.112-.07.024-.059.022-.062.027-.053.022c-.107.046-.197.085-.279.118a7.53 7.53 0 0 1-1.827.49zm-9.54-17.07a4.96 4.96 0 0 1-.507-.85 4.025 4.025 0 0 1-.203-.735 3.624 3.624 0 0 1 .008-.745c.077-.48.22-.975.439-1.512.275-.617.61-1.192.996-1.708l.021-.026.01-.012a5.48 5.48 0 0 1 1.15-1.424l.036-.03a5.33 5.33 0 0 1 .73-.533c.085-.385.21-.785.382-1.224.154-.39.32-.764.52-1.21l.03-.064.007-.016.008-.016.012-.028c.144-.318.341-.755.541-1.143a19.239 19.239 0 0 1 2.103-3.23 8.843 8.843 0 0 1-.204-.465l-.008-.021-.008-.02a9.445 9.445 0 0 1-.262-.754l-.032-.104a10.723 10.723 0 0 1-.324-1.49 12.321 12.321 0 0 1-.104-.934 7.321 7.321 0 0 1-.018-.864c-.01-.091-.017-.182-.026-.273a5.8 5.8 0 0 0 .07-1.181c-.032-.645-.194-1.55-.779-2.201a2.022 2.022 0 0 0-.463-.385c-.195-.116-.367-.174-.523-.174a.577.577 0 0 0-.183.03c-.18.06-.321.195-.448.424a3.9 3.9 0 0 0-.096.186 3.093 3.093 0 0 0-.608-.334c-.363-.145-.68-.195-.972-.15a1.552 1.552 0 0 0-.256.063 1.36 1.36 0 0 0-.596.412 2.022 2.022 0 0 0-.345.63 7.71 7.71 0 0 0-.684-.237 2.785 2.785 0 0 0-.442-.094 1.387 1.387 0 0 0-.407-.007c-.08.015-.164.032-.247.06a.851.851 0 0 0-.203.099 1.02 1.02 0 0 0-.274.272 1.513 1.513 0 0 0-.232.59v-.003a3.457 3.457 0 0 1-.1-.606l-.002-.025a6.077 6.077 0 0 1-.012-.172l-.003-.077a12.52 12.52 0 0 1-.01-.337l-.006-.214v.004c0-.063-.003-.126-.004-.189l-.01-.33a32.486 32.486 0 0 1-.008-.49v-.106-.102c0-.125.002-.251.007-.377l.001-.034c.007-.166.016-.332.025-.499l.001-.018.018-.28.013-.163a22.007 22.007 0 0 1 .075-.763c.036-.303.079-.605.135-.905l.005-.03a16.467 16.467 0 0 1 .2-1.287c.025-.159.056-.316.096-.47a21.64 21.64 0 0 1 1.002-3.305c.3-.76.643-1.51 1.02-2.228a23.101 23.101 0 0 1 2.202-3.415 21.694 21.694 0 0 1 2.533-2.782A13.89 13.89 0 0 1 51 33.298c-.126-.143-.254-.284-.382-.426-.453-.501-.921-1.02-1.316-1.584a5.519 5.519 0 0 1-.448-.817c.219.2.44.397.662.593 1.06.93 2.227 1.886 3.574 2.573.694.34 1.411.592 2.131.747a9.393 9.393 0 0 0 1.792.168c.196 0 .397-.005.598-.017.239-.017.474-.041.7-.072.101-.03.204-.063.307-.098.842-.279 1.632-.651 2.369-1.01l.53-.257.015-.008.019-.01a44.725 44.725 0 0 1 1.699-.799c.83-.359 1.7-.645 2.586-.85a13.733 13.733 0 0 1 3.38-.293 15.03 15.03 0 0 1 3.047.505 55.15 55.15 0 0 1 6.487 2.26c1.691.714 3.027 1.393 4.205 2.134.668.432 1.187.829 1.634 1.248a.222.222 0 0 0-.003.054c.009.217.002.432-.007.63-.038.719-.109 1.418-.178 2.096-.039.378-.073.717-.104 1.056a46.55 46.55 0 0 0-.13 1.86c-.026.606-.025 1.115.005 1.601.035.525.117.97.251 1.362.14.409.406.79.839 1.202.42.398.923.702 1.403.98.444.259.917.496 1.333.705l.012.006.012.006.025.013.2.1.02.01c.498.253 1.01.512 1.488.81.167.11.381.259.564.432l.072.093.015.02.021.027c.032.042.064.084.098.124.072.088.146.15.226.193a.549.549 0 0 0 .092.22c.164.247.312.491.44.726.413.805.728 1.686.962 2.692.319 1.482.435 3.072.358 4.86a24.5 24.5 0 0 1-.174 1.922l-.008-.014a6.046 6.046 0 0 0-.549-.473.772.772 0 0 0-.14-.085 7.2 7.2 0 0 0-.852-.676c-.298-.2-.616-.359-.86-.474a.458.458 0 0 0-.198-.04l-.045.002c.295.33.589.705.895 1.147.587.843 1.057 1.64 1.44 2.435.09.19.177.386.257.587.237.451.448.937.628 1.444.158.474.289.963.39 1.455.104.508.178 1.073.225 1.725.085 1.477-.035 3.043-.359 4.653-.37 1.738-.92 3.37-1.41 4.739a22.112 22.112 0 0 1-1.278 2.284c-.409.62-.848 1.218-1.307 1.78a15.242 15.242 0 0 1-1.458 1.58c-.945.844-2.018 1.54-3.055 2.211l-.08.052-.27.176a22.211 22.211 0 0 1-1.993 1.029l-.384.18-.092.044c-.798.379-1.623.771-2.45 1.123-.446.184-.93.361-1.57.575l-.189.064c-.23.077-.461.154-.691.234l-.134.047c-.172.06-.35.122-.53.173-.196.056-.399.106-.594.155l-.086.021a5.595 5.595 0 0 0-.292-.83c-.437-.988-1.229-1.781-1.87-2.362-.263-.239-.54-.472-.783-.677l-.032-.026-.01-.01-.01-.007-.012-.01a46.393 46.393 0 0 1-.467-.396c.31-.336.394-.843.22-1.321-.159-.443-.439-.808-.718-1.135a8.478 8.478 0 0 0-.87-.858 14.397 14.397 0 0 0-.983-.768 17.622 17.622 0 0 0-1.587-1.02 12.907 12.907 0 0 0-2.108-.962c.015-.055.026-.135.03-.237.01-.264-.092-.505-.197-.73a2.103 2.103 0 0 0-.306-.44l-.045-.056a3.468 3.468 0 0 0-.411-.402 6.457 6.457 0 0 0-1.463-.942l.008-.015c.012-.095.021-.197.029-.303l.005.013.022.031.005-.019c.001-.028 0-.057-.002-.085a7.932 7.932 0 0 0-.048-.504 8.163 8.163 0 0 0-.219-1.048 9.302 9.302 0 0 0-.383-1.096l-.023-.052-.016-.037-.088-.2-.008-.02L63 72.6l-.025-.022-.006-.009a10.51 10.51 0 0 0-.23-.322 4.554 4.554 0 0 0-.73-.732 3.725 3.725 0 0 0-.744-.435 3.41 3.41 0 0 0-.761-.209 3.442 3.442 0 0 0-.807.002c-.093.014-.18.03-.258.049a.787.787 0 0 0-.08.158c.048.03.093.05.147.072l.022.01.062.025.01.005.012.005c.205.085.41.17.6.272.204.112.376.227.523.353.141.12.272.255.399.416.248.309.446.666.587 1.061l.005.014.02.061c.003.04.011.082.024.123l.025.06.025.057c.077.279.13.568.158.86.035.33.035.643.001.933l-.014-.007-.042-.015a9.098 9.098 0 0 0-.698-.174 12.267 12.267 0 0 0-1.734-.243 7.223 7.223 0 0 0-.452-.016c-.388 0-.8.035-1.227.104a.531.531 0 0 0-.146.05 1.667 1.667 0 0 0-.13-.062h.014l.027-.015c.088-.053.178-.108.27-.161.306-.163.592-.283.873-.366a3.07 3.07 0 0 1 .564-.072c.215.008.43.041.654.102.03.009.06.014.095.014a.505.505 0 0 0 .142-.023l-.03-.039a2.711 2.711 0 0 0-.417-.325 2.616 2.616 0 0 0-.538-.231 3.03 3.03 0 0 0-.65-.09 4.02 4.02 0 0 0-1.53.338 6.24 6.24 0 0 0-.612.3c-.187.105-.375.22-.514.303a16.132 16.132 0 0 1-.88.508c-.208.11-.402.198-.59.27l-.034.012-.02.008-.104.057-.019.01-.012.007-.017.009c-.366.204-.745.415-1.132.587-.44.172-.859.288-1.279.355a5.376 5.376 0 0 1-1.137.003 5.864 5.864 0 0 1-1.194-.33 6.721 6.721 0 0 1-1.203-.7 6.15 6.15 0 0 1-.939-.925zm1.742-11.176a3.327 3.327 0 0 1-.158.613l-.1.022c-.227.053-.452.115-.679.17-.018-.019-.038-.036-.055-.055a1.605 1.605 0 0 1-.081-.141c-.04-.114-.07-.23-.09-.35a6.12 6.12 0 0 1-.008-.932c.015-.31.018-.62.053-.927.013-.079.028-.156.047-.233a.919.919 0 0 1 .037-.163 1.946 1.946 0 0 1 .148-.325.62.62 0 0 1 .163-.171.321.321 0 0 1 .164-.06.18.18 0 0 1 .012-.006c.055.012.11.028.163.046.036.018.07.037.105.059.025.022.048.046.071.07.03.044.055.089.079.136.05.137.08.278.105.422.03.272.045.548.056.821.013.336.006.67-.032 1.004zm-.903 13.977l-.02.01c-.063.037-.139.089-.246.167-.567.414-.99.795-1.329 1.196a4.32 4.32 0 0 0-.498.707 3.006 3.006 0 0 0-.187.436c-.052.145-.07.3-.087.488-.019.223.04.487.16.723a17.236 17.236 0 0 0-1.807 1.784 7.995 7.995 0 0 0-.612.798c-.048.07-.085.13-.118.191l-.004-.02-.012-.03-.034-.08-.15-.318a14.71 14.71 0 0 1-.484-1.167l-.01-.03-.027-.075a1.693 1.693 0 0 0-.127-.167 11.296 11.296 0 0 1-.17-.314 16.758 16.758 0 0 1-.776-3.133 18.671 18.671 0 0 1 .021-4.658c.3-2.089.91-4.213 1.863-6.495.001.006.007.006.014.006h.016c.22-.573.484-1.156.808-1.783-.08-.136-.153-.264-.216-.382a3.97 3.97 0 0 1-.28-.533l-.008-.019a.348.348 0 0 1-.136-.183 11.96 11.96 0 0 1-.107-.479c-.03-.1-.057-.206-.08-.315a7.36 7.36 0 0 1-.17-1.72c-.02-.392-.02-.79 0-1.182.035-.719.137-1.335.313-1.884l.014-.043a3.34 3.34 0 0 1 .5-.494c.227-.167.475-.31.76-.435.083-.033.17-.064.258-.094.7-.132 1.421-.204 2.132-.095.657.024 1.311.136 1.965.207.477.047.965.08 1.437.002.093-.02.185-.042.275-.068.16-.076.307-.178.446-.298.052.211.107.42.17.627.113.362.248.702.404 1.009.109.214.235.407.374.572-.388.348-.773.77-1.177 1.289a15.1 15.1 0 0 0-1.037 1.503 12.34 12.34 0 0 0-.041-.819 3.805 3.805 0 0 0-.148-.871 1.671 1.671 0 0 0-.458-.735 1.543 1.543 0 0 0-.522-.307c-.085-.016-.169-.034-.254-.049a3.81 3.81 0 0 0-.41-.022h-.009c-.048.011-.096.023-.145.033l-.06.014-.087.037a1.95 1.95 0 0 0-.401.248 1.817 1.817 0 0 0-.506.629c-.254.508-.297 1.084-.314 1.642-.007.254-.026.507-.03.762-.005.316.023.635.093.944.027.122.069.24.121.351-.283.09-.55.218-.76.433a.41.41 0 0 0-.117.304c.979-.149 1.96-.28 2.944-.394.023-.006.046-.01.07-.015l-.025.067a6.476 6.476 0 0 0-.337 1.52 3.424 3.424 0 0 0-.652.342 5.545 5.545 0 0 0-1.317 1.261 9.719 9.719 0 0 0-.63.9 9.586 9.586 0 0 0-.852 1.808 6.566 6.566 0 0 0-.375 1.787c-.019.302.019.605.062.916.058.397.202.752.356 1.112.111.264.27.54.484.842.228.323.49.629.775.908.274.268.589.508.86.707.203.148.43.29.674.422l-.01.002zm49.17-9.041a18.45 18.45 0 0 1 2.087-1.966c.365-.295.71-.556 1.058-.799a9.615 9.615 0 0 1 1.044-.642c.16-.08.372-.184.6-.26.171-.055.395-.12.61-.141a2.293 2.293 0 0 1 .437-.002l.014-.003.075-.014a2.881 2.881 0 0 1 .535-.004c.16.03.332.08.524.15.221.105.433.227.628.363.193.162.37.34.525.526.184.254.348.536.488.84.176.448.305.94.386 1.464.083.713.08 1.455-.01 2.207-.051.337-.12.672-.203.995-.107.401-.256.83-.47 1.352-.44 1.004-.977 1.96-1.495 2.883l-.014.025-.006.011-.01.016c-.479.853-.973 1.73-1.393 2.652-.126.276-.238.538-.363.848a4.22 4.22 0 0 0-.197.58 4.803 4.803 0 0 0-.14 1.12l.015.061.027.119.057.232.013.049.011.044.013.05.014.054.017.066.005.022.005.024c.063.24.148.57.212.882.044.218.074.402.08.595.005.181.004.417-.057.638a1.346 1.346 0 0 1-.273.539l-.034.037-.007.013c-.074.083-.154.16-.25.241a4.653 4.653 0 0 1-.743.415c-.383.148-.736.25-1.08.308a3.939 3.939 0 0 1-.706.003 3.654 3.654 0 0 1-.493-.128 3.153 3.153 0 0 1-1.152-.468l-.037-.026-.016-.011-.012-.01-.044-.083a2.446 2.446 0 0 0-.044-.082l.02-.002c.25-.09.47-.241.62-.425.067-.086.116-.148.16-.22.037-.06.068-.134.095-.206l.017-.043c.06-.146.08-.293.1-.455.032-.295-.021-.606-.071-.843-.07-.315-.192-.606-.322-.902a6.21 6.21 0 0 0-.422-.797 5.323 5.323 0 0 0-.247-.37.27.27 0 0 0 .097-.036 1.08 1.08 0 0 0 .409-.372c.173-.266.208-.59.219-.84.012-.3-.038-.6-.087-.89a6.54 6.54 0 0 0-.287-1.087c.4-.902.94-1.8 1.602-2.666.049-.063.099-.124.15-.186.067.038.13.076.186.113.068.06.128.12.183.184l.024.033c.062.045.11.105.15.188.182.385.248.86.202 1.455a5.018 5.018 0 0 1-.397 1.599c-.24.554-.536 1-.883 1.325-.043.04-.086.078-.13.116a.097.097 0 0 0 .033.02.658.658 0 0 0 .457.007c.175-.057.349-.13.515-.214a2.9 2.9 0 0 0 .504-.342c.304-.24.53-.534.693-.763.218-.303.361-.635.484-.95.143-.362.206-.753.245-1.053.04-.322.03-.657-.027-1.054a3.226 3.226 0 0 0-.317-.96 1.902 1.902 0 0 0-.212-.333 2.785 2.785 0 0 0-.407-.445 2.967 2.967 0 0 0-.54-.358l.01-.005c.04-.037.074-.075.11-.115l.02-.021.05-.057c.546-.606 1.023-1.064 1.5-1.442.279-.207.536-.366.788-.484.093-.033.179-.059.253-.075.053-.028.106-.053.165-.078.235-.096.464-.145.681-.145h.026c.098.002.175.003.25.018.066.01.126.029.179.045.132.04.25.099.382.189.19.13.356.297.48.483l.01-.01a.617.617 0 0 0 .007-.43c-.136-.362-.339-.824-.714-1.182a1.82 1.82 0 0 0-.465-.326 2.346 2.346 0 0 0-.34-.135c-.104-.034-.215-.046-.322-.057l-.078-.01a1.168 1.168 0 0 0-.128-.007c-.122 0-.248.02-.35.035l-.016.003-.076.01a2.05 2.05 0 0 0-.446.13c-.378.148-.726.338-1.064.583-.39.283-.775.609-1.175.998-.257.167-.522.37-.81.623-.485.426-.957.95-1.484 1.647-.04-.301-.096-.62-.17-.972-.17-.808-.416-1.593-.654-2.351l-.01-.03-.105-.334c.175-.205.323-.372.45-.511zm43.88 85.737a122.746 122.746 0 0 0-1.157-6.947c-.487-2.444-1.074-4.871-1.813-7.253-.749-2.41-1.651-4.787-2.8-7.04a28.833 28.833 0 0 0-1.795-3.05 24.043 24.043 0 0 0-2.236-2.857 19.383 19.383 0 0 0-2.64-2.373c-1.183-.883-2.474-1.625-3.787-2.301-3.154-1.624-6.497-2.84-9.691-4.375a28.01 28.01 0 0 1-1.761-.927 32.018 32.018 0 0 1-1.722-1.087c-.823-.55-1.631-1.122-2.444-1.688-.177-.496-.394-.98-.634-1.446a10.607 10.607 0 0 0-1.035-1.606 13.603 13.603 0 0 0-1.417-1.584 15.179 15.179 0 0 0-1.668-1.348c-1.015-.72-2.128-1.276-3.285-1.733a13.408 13.408 0 0 0-2.907-.792 47.16 47.16 0 0 1-.38-2.312c-.502-3.787-.603-7.61-.569-11.429v-.073l.008-.602c.052-.005.11-.013.177-.022.087-.014.164-.044.23-.072a2.18 2.18 0 0 0 .306-.145c.274-.156.513-.386.73-.703.095-.135.158-.293.21-.42.056-.135.097-.266.13-.415a3.84 3.84 0 0 0 .072-.972 5.98 5.98 0 0 0-.264-1.444l.014.006.038.008a3.852 3.852 0 0 0 .777.035c.34-.016.708-.07 1.093-.161.43-.103.842-.28 1.205-.436.297-.129.57-.279.814-.448a3.62 3.62 0 0 0 .744-.653c.107-.13.22-.272.318-.434.083-.132.143-.279.19-.396l.034-.082c.111-.263.153-.538.192-.844.046-.373.013-.74-.026-1.05-.03-.226-.065-.457-.112-.757l-.005-.031-.002-.017c-.025-.155-.049-.31-.071-.465a5.231 5.231 0 0 1-.032-1.128c.063-.335.18-.646.285-.906.447-1.014.99-1.98 1.517-2.914.245-.436.407-.724.581-1.046.423-.77.78-1.507 1.09-2.249a10.97 10.97 0 0 0 .586-1.737 11.6 11.6 0 0 0 .255-1.711 9.701 9.701 0 0 0-.007-1.573c-.117-1.318-.459-2.446-1.017-3.352a5.011 5.011 0 0 0-1.115-1.286 5.883 5.883 0 0 0-.606-.433c.064-.227.12-.471.169-.687l.006-.026.003-.016.007-.026.003-.02.012-.047c.192-.857.37-1.77.543-2.791.181-1.077.31-2.035.393-2.927.066-.716.135-1.656.073-2.586a8.201 8.201 0 0 0-.102-.9 4.04 4.04 0 0 0-.226-.745 1.787 1.787 0 0 0-.4-.61c.06-.505.14-1.033.246-1.614.114-.603.249-1.24.358-1.752l.006-.032.006-.029.008-.034.009-.04.004-.022.07-.326c.138-.657.258-1.284.406-2.083.047-.246.095-.492.145-.736l.003-.016.004-.022.005-.022.003-.015c.092-.466.197-.994.274-1.506.147-.994.143-1.786-.012-2.494a3.13 3.13 0 0 0-.535-1.171 2.694 2.694 0 0 0-.48-.476c-.146-.12-.318-.2-.485-.278l-.085-.04c-.297-.14-.618-.204-.929-.266-.268-.054-.545-.11-.8-.21l-.022-.014c-.02-.234-.045-.473-.075-.707a15.18 15.18 0 0 0-.578-2.688c-.57-1.795-1.529-3.412-2.775-4.673a11.373 11.373 0 0 0-2.1-1.656 9.382 9.382 0 0 0-.572-.33 4.974 4.974 0 0 0-.696-.294 7.312 7.312 0 0 0-1.058-.489 4.546 4.546 0 0 0-.607-.177c.076-.137.135-.267.183-.41.07-.202.105-.41.131-.588.015-.108.019-.223.01-.341a2.185 2.185 0 0 0-.084-.53 2.41 2.41 0 0 0-.503-.888 3.138 3.138 0 0 0-.72-.578 5.495 5.495 0 0 0-.949-.443c-.668-.248-1.374-.39-2.227-.528-1.564-.248-3.142-.309-4.755-.354l-.638-.016-.152-.004-.098-.002c-.38-.01-.758-.019-1.135-.033l-.121-.003h-.011c-.374-.012-.76-.024-1.15-.084a3.638 3.638 0 0 1-.642-.203 4.231 4.231 0 0 1-.69-.456c-.495-.439-.913-.947-1.317-1.438l-.008-.01c-.282-.34-.567-.686-.883-1.017a7.447 7.447 0 0 0-1.546-1.254 8.438 8.438 0 0 0-1.086-.532 6.983 6.983 0 0 0-1.09-.353 8.21 8.21 0 0 0-2.195-.226c-.686.021-1.396.115-2.174.29-.42.092-.834.205-1.244.328a6.81 6.81 0 0 0-1.201.297c-.847.276-1.665.631-2.509.918a12.323 12.323 0 0 1-1.008.292c-.625.044-1.248.11-1.867.2l-.56-.009h-.116l-.117-.003c-1.301-.016-2.645-.032-3.942-.253a10.06 10.06 0 0 1-2.208-.695c-.305-.154-.611-.337-.88-.498l-.036-.021-.011-.007-.014-.008c-.26-.154-.528-.314-.804-.455a5.545 5.545 0 0 0-1.048-.43 3.731 3.731 0 0 0-1.228-.137 5.017 5.017 0 0 0-1.153.196c-.38.11-.774.272-1.171.48-.353.184-.69.419-1.002.645a8.351 8.351 0 0 0-.874.743c-.93.9-1.692 2.03-2.263 3.361-.24.558-.43 1.16-.56 1.79a8.996 8.996 0 0 0-.207 1.974c.008.48.06.954.154 1.411a.406.406 0 0 0-.185.065 5.38 5.38 0 0 0-1.213.989 6.2 6.2 0 0 0-.912 1.303 7.877 7.877 0 0 0-.868 3.158 8.266 8.266 0 0 0 .08 1.65c.07.488.208.982.431 1.555a5.345 5.345 0 0 0 1.916 2.429c.145.102.307.197.497.29l-.01.005a18.32 18.32 0 0 0-.758 1.186c-.176.36-.342.721-.493 1.074-.167.395-.328.807-.466 1.162l-.02.053a34.27 34.27 0 0 0-.756 2.803 23.742 23.742 0 0 0-.575 4.708 13.566 13.566 0 0 0-.017 1.57c.022.462.072.923.15 1.38l.013.068c-.102 0-.204 0-.306.006-.037.001-.07.005-.106.007l-.068-.001c-.094 0-.188.003-.282.014a1.09 1.09 0 0 0-.32.083.881.881 0 0 0-.256.178c-.093.09-.17.204-.23.318a1.267 1.267 0 0 0-.128.469c-.014.13-.006.262.007.392l-.06-.047a.78.78 0 0 0-.566-.139.878.878 0 0 0-.297.113.833.833 0 0 0-.283.298.82.82 0 0 0-.12.258c-.005.015-.007.031-.01.047-.016.05-.03.101-.04.153-.042.216-.044.44-.029.659.016.238.056.475.103.708.046.224.102.446.16.668.027.104.054.209.086.312.037.119.082.236.13.35a4.836 4.836 0 0 0 .813 1.293c.143.166.297.327.471.46.047.037.095.071.145.102-.729 2.297-.683 4.531.129 6.293a.225.225 0 0 0-.088.037l-.083.062-.138.106a1.093 1.093 0 0 0-.28.477 29.975 29.975 0 0 0-1.398 4.032 23.66 23.66 0 0 0-.733 4.389 19.205 19.205 0 0 0 .211 4.305c.125.779.319 1.58.577 2.379a2.37 2.37 0 0 0-.13.21 9.74 9.74 0 0 0-.472.942c-.41.912-.71 1.748-.916 2.557-.11.428-.188.875-.234 1.329-.037.389-.014.76.07 1.104.04.167.111.336.204.487a1.547 1.547 0 0 0 .535.523 10.865 10.865 0 0 0-.682 2.157 5.264 5.264 0 0 0-.114 1.007c.001.367.078.698.235 1.012.155.312.429.49.631.583a6.002 6.002 0 0 0-.093.375l-.004.016-.01.041a19.06 19.06 0 0 0-.403 2.437c-.035.39-.04.703-.015.987.031.338.09.726.291 1.04.234.372.608.595 1.025.614-.01.089-.01.175-.01.248.004.886.08 1.66.234 2.365.08.366.205.712.37 1.027.174.335.445.616.725.753.224.11.466.17.7.17.118 0 .235-.016.35-.047a.215.215 0 0 0 0 .07l.001.013.003.02.009.053c.12.744.29 1.39.522 1.974.12.305.272.663.49.995.108.163.23.32.363.466.128.139.282.252.428.356.146.106.326.173.483.226a1.825 1.825 0 0 0 .777.062c.099.21.236.433.443.72.245.343.514.669.8.968.253.264.547.52.952.832.462.352 1.183.774 1.99.786h.023c.163 0 .328-.023.49-.067.056.135.12.27.185.398.205.405.47.789.766 1.112.181.198.396.373.583.517.209.161.448.279.655.376.262.123.562.185.89.185.123 0 .25-.008.378-.026.2-.027.395-.105.576-.185.182-.08.35-.203.494-.31.032.159.072.307.118.452.042.13.079.237.116.334-.28.24-.509.554-.677.8-.229.336-.387.71-.543 1.094-.23.57-.36 1.17-.452 1.739-.152.083-.28.201-.39.346-.206.267-.42.527-.64.782-1.245 1.37-2.707 2.518-4.24 3.553-1.993 1.322-4.088 2.48-6.076 3.806-1.058.705-2.091 1.445-3.053 2.277a18.653 18.653 0 0 0-2.625 2.791c-.885 1.162-1.552 2.465-2.164 3.784a35.881 35.881 0 0 0-1.687 4.44c-.964 3.094-1.575 6.287-2.13 9.474-.304 1.747-.586 3.498-.896 5.244a57.842 57.842 0 0 0-.737 5.68h2.168a51.93 51.93 0 0 1 .391-3.52c.185-1.237.416-2.466.626-3.698.397-2.326.773-4.656 1.238-6.97.76-3.701 1.777-7.37 3.466-10.768.315-.617.653-1.22 1.04-1.797.354-.527.745-1.029 1.162-1.508 1.248-1.375 2.712-2.524 4.25-3.562 1.97-1.307 4.041-2.455 6.01-3.763 1.06-.703 2.094-1.439 3.057-2.268.35-.302.69-.617 1.019-.944v.005c.039 1.716.248 3.56.62 5.482.146.747.3 1.391.47 1.972.074.25.162.507.27.784.398.909.81 1.705 1.258 2.433.084.138.171.275.26.41.085.116.172.23.26.344l-.02-.029a26.452 26.452 0 0 0 1.825 2.093 19.369 19.369 0 0 0 1.83 1.693c.06.036.122.07.185.104-.848-1.29-1.497-2.718-2.124-4.099l-.212-.465c-.223-.488-.453-.993-.658-1.512a18.807 18.807 0 0 1-.591-1.727c-.196-.515-.325-1.038-.461-1.619a27.631 27.631 0 0 1-.268-1.289 12.53 12.53 0 0 1-.175-.761c-.094-.483-.2-1.117-.177-1.745a29.93 29.93 0 0 1-.122-1.85c-.036-1.07 0-2.02.107-2.9.106-.717.258-1.322.465-1.849a4.19 4.19 0 0 1 .385-.675 2.77 2.77 0 0 1 .294-.297l.051-.034c-.024.214-.046.427-.064.641l-.008.113a18.687 18.687 0 0 0-.052 1.87c.034 1.28.21 2.595.524 3.908.283 1.183.71 2.38 1.302 3.662a19.127 19.127 0 0 0 1.865 3.168 21.162 21.162 0 0 0 2.554 2.932 21.272 21.272 0 0 0 3.074 2.412c2.135 1.386 4.63 2.381 7.215 2.877a26.529 26.529 0 0 0 4.89.479c1.262 0 2.555-.108 3.952-.33 2.69-.426 5.342-1.356 7.882-2.764 2.382-1.32 4.67-3.134 6.798-5.39a47.12 47.12 0 0 0 1.551-1.73l.098-.137c.529-.623 1.043-1.259 1.544-1.905a38.333 38.333 0 0 0 2.743-4.024 27.499 27.499 0 0 0 2-4.142c.445-1.165.737-2.465.378-3.695-.284-.975-.973-1.75-1.765-2.36-.844-.65-1.757-1.204-2.61-1.842-.507-.4-.98-.84-1.47-1.26l-.016-.012-.003-.015c.682.167 1.35.384 2.002.648a14.574 14.574 0 0 1 2.919 1.684 12.683 12.683 0 0 1 2.062 2.03c.485.644.9 1.335 1.228 2.07a9.5 9.5 0 0 1 .585 2.111c.103.897.086 1.8-.023 2.695-.212 1.427-.638 2.812-1.192 4.144a25.38 25.38 0 0 1-1.636 3.134c-.12.227-.246.45-.376.673a43.3 43.3 0 0 1-2.1 3.217c-.735 1.036-1.47 2.074-2.304 3.033-.41.472-.831.932-1.25 1.396-.194.216-.382.438-.581.65-.147.154-.298.303-.453.449-.125.118-.252.234-.38.35-.107.117-.216.233-.327.347-.185.193-.376.378-.567.565-.062.061-.124.123-.184.186l.048.044c.313-.19.641-.357.97-.519.362-.18.73-.348 1.081-.549a6.61 6.61 0 0 0 .56-.37c.23-.164.458-.332.684-.503a24.269 24.269 0 0 0 2.029-1.744c.634-.61 1.24-1.25 1.828-1.903.298-.33.592-.664.885-.998l.115-.143c1.845-2.305 3.368-4.852 4.387-7.622.503-1.368.831-2.789.969-4.24.05-.526.063-1.058.04-1.59.268.185.538.369.809.55.561.374 1.131.735 1.717 1.072.675.388 1.377.73 2.078 1.069 1.39.673 2.813 1.278 4.233 1.885 1.44.615 2.88 1.23 4.29 1.91 1.878.922 3.722 1.964 5.325 3.312 1.245 1.091 2.329 2.348 3.278 3.7 1.608 2.36 2.816 4.967 3.788 7.642 1.63 4.586 2.601 9.38 3.338 14.18.182 1.183.347 2.367.505 3.553.161 1.214.334 2.537.469 3.755h2.16c-.065-.627-.142-1.36-.223-1.986a380.503 380.503 0 0 0-.502-3.766zm-24.34 1.94c-.13-1.43-.163-2.868-.226-4.303-.062-1.441-.12-2.883-.129-4.325-.003-.458-.001-.917.006-1.376-.635 2.177-.993 4.436-1.209 6.688a47.646 47.646 0 0 0-.133 7.15h2.162a49.499 49.499 0 0 1-.02-.4 44.842 44.842 0 0 1-.45-3.433zm-74.097 0c-.13-1.43-.164-2.868-.226-4.303-.063-1.441-.12-2.883-.129-4.325-.003-.458-.002-.917.006-1.376-.636 2.177-.994 4.436-1.209 6.688a47.646 47.646 0 0 0-.133 7.15h2.162a55.03 55.03 0 0 1-.02-.4 44.95 44.95 0 0 1-.451-3.433zm33.11-13.134a27.268 27.268 0 0 1-4.68-1.088 30.023 30.023 0 0 1-.755-.238l-.08-.026a.805.805 0 0 0-.376.071 7.3 7.3 0 0 0 .756.682 9.09 9.09 0 0 0 1.872 1.063c.837.346 1.71.598 2.591.803.45.105.903.2 1.357.288l.262.05c.676.062 1.356.097 2.036.106a26.34 26.34 0 0 0 3.031-.142c.327-.078.653-.155.981-.226.748-.16 1.497-.325 2.207-.613a6.947 6.947 0 0 0 1.01-.547l.059-.04c.349-.28.66-.603.938-.953.058-.076.113-.152.165-.231-1.54.454-3.107.805-4.698 1.026a26.374 26.374 0 0 1-6.675.015zm-2.3-79.067a3.32 3.32 0 0 1-.156.609 1.813 1.813 0 0 1-.117.212 1.134 1.134 0 0 1-.082.083l-.015.009a15.323 15.323 0 0 0-.542-.084c-.028-.026-.056-.05-.08-.079a1.578 1.578 0 0 1-.081-.14c-.04-.115-.07-.231-.091-.35a6.136 6.136 0 0 1-.008-.933c.015-.309.019-.62.053-.927.013-.079.029-.156.047-.233a.884.884 0 0 1 .038-.163 1.917 1.917 0 0 1 .147-.325.617.617 0 0 1 .163-.17.319.319 0 0 1 .164-.06l.013-.006c.055.012.109.027.163.045.036.018.07.038.105.06a.98.98 0 0 1 .07.07c.03.043.056.088.08.135.049.137.08.278.104.422.031.273.046.548.057.822.013.335.006.67-.032 1.003zm2.301 1.637a14.117 14.117 0 0 0-1.522-.48 3.025 3.025 0 0 0 .26-.843 6.12 6.12 0 0 0 .08-1.069c-.002-.289-.02-.577-.042-.866a3.81 3.81 0 0 0-.148-.871 1.671 1.671 0 0 0-.458-.734 1.545 1.545 0 0 0-.523-.307c-.084-.017-.168-.035-.253-.05a3.812 3.812 0 0 0-.41-.021h-.01l-.144.033-.06.013-.087.037c-.148.066-.273.15-.402.248a1.816 1.816 0 0 0-.505.63c-.254.507-.297 1.083-.314 1.641-.008.254-.027.508-.03.762a4.052 4.052 0 0 0 .114 1.028 4.966 4.966 0 0 0-1.002.271 4.529 4.529 0 0 0-.71.373c.347.023.697.017 1.044.032.449.02.893.058 1.339.104.906.096 1.813.175 2.718.28.422.05.843.107 1.268.142l.094.008a.4.4 0 0 0-.054-.175.434.434 0 0 0-.243-.186zM62.275 55.464c.158.373.366.734.618 1.072.236.316.517.593.814.8.259.181.535.306.823.373.1.007.201.01.302.011.51-.018 1.014-.145 1.502-.283.669-.196 1.329-.432 2.01-.585.868-.294 1.808-.339 2.72-.327a31.99 31.99 0 0 1 3.957.276c.66.09 1.315.203 1.965.346.648.143 1.292.31 1.93.492.626.18 1.248.372 1.87.567l.972.305c.257.08.512.163.772.233.206.05.414.084.626.089.093-.005.185-.017.277-.038.052-.018.101-.04.15-.064.037-.026.072-.054.106-.084a1.3 1.3 0 0 0 .11-.144c.049-.096.086-.196.118-.298a1.363 1.363 0 0 0-.273-.551 2.64 2.64 0 0 0-.508-.484c.031-.069.05-.144.068-.217.027-.105-.005-.227-.036-.32-.058-.175-.193-.305-.312-.42a2.588 2.588 0 0 0-.45-.326 8.661 8.661 0 0 0-1.217-.604l-.012-.004a.419.419 0 0 0 .021-.043c.047-.116.044-.296-.057-.403a3.58 3.58 0 0 0-.41-.373 3.699 3.699 0 0 0-.477-.298 4.466 4.466 0 0 0-.991-.382 9.243 9.243 0 0 0-1.119-.228.593.593 0 0 0-.006-.422c-.076-.21-.298-.34-.483-.43a3.291 3.291 0 0 0-.675-.214l-.025-.006a9.374 9.374 0 0 0-1.082-.185 18.553 18.553 0 0 0-.66-.065c-.351-.028-.815-.06-1.277-.049v-.011a.87.87 0 0 0-.039-.156l-.012-.038a.739.739 0 0 0-.152-.26.997.997 0 0 0-.308-.232 1.358 1.358 0 0 0-.479-.135 2.465 2.465 0 0 0-.124-.012 3.933 3.933 0 0 0-.8.042c-.57.08-1.127.244-1.597.394-.172.054-.375.12-.573.194a1.496 1.496 0 0 0-.374-.528 1.1 1.1 0 0 0-.345-.208.983.983 0 0 0-.233-.055 2.007 2.007 0 0 0-.272-.01c-.14.004-.28.043-.424.087a3.117 3.117 0 0 0-.44.177 8.29 8.29 0 0 0-.664.362 2.05 2.05 0 0 0-.499-.537 1.5 1.5 0 0 0-.712-.279 1.77 1.77 0 0 0-.28-.01c-.315.014-.637.124-.984.335a3.22 3.22 0 0 0-.563.44 3.8 3.8 0 0 0-.141-.16c-.182-.195-.36-.297-.561-.32-.225-.025-.454.066-.706.277a2.01 2.01 0 0 0-.402.46c-.47.74-.443 1.641-.337 2.266.065.386.186.79.36 1.2zM44.792 66.231l.006-.026a.567.567 0 0 0-.019.013c.005.004.01.008.013.013z" fill="#000"/></g></g></svg>
