<svg width="210" height="48" xmlns="http://www.w3.org/2000/svg"><g fill="none" fill-rule="evenodd"><path d="M6 0h36a6 6 0 0 1 6 6v36a6 6 0 0 1-6 6H6a6 6 0 0 1-6-6V6a6 6 0 0 1 6-6z" fill="#2EA52C"/><path fill="#FFF" d="M40 8v16h-5.278V13.333H21V8zM8 40V24h5.278v10.667H27V40z"/><path d="M72.64 20.516H69.22l-.594-3.125c-.396-.25-.974-.47-1.734-.657a10.087 10.087 0 0 0-2.422-.28c-1.25 0-2.216.262-2.899.788-.682.526-1.023 1.206-1.023 2.04 0 .77.357 1.403 1.07 1.898.714.494 1.945 1.018 3.696 1.57 2.51.698 4.414 1.62 5.71 2.766 1.297 1.145 1.946 2.65 1.946 4.515 0 1.948-.771 3.485-2.313 4.61-1.541 1.125-3.573 1.687-6.094 1.687-1.802 0-3.43-.286-4.882-.86-1.453-.572-2.664-1.364-3.633-2.374v-4.75h3.531l.484 3.234c.459.375 1.081.685 1.868.93.786.245 1.664.367 2.633.367 1.25 0 2.2-.255 2.851-.766.651-.51.977-1.192.977-2.047 0-.875-.31-1.578-.93-2.109-.62-.531-1.706-1.031-3.258-1.5-2.698-.781-4.74-1.708-6.125-2.781C56.693 22.599 56 21.13 56 19.266c0-1.844.781-3.352 2.344-4.524 1.562-1.172 3.526-1.773 5.89-1.805 1.75 0 3.344.266 4.782.797 1.437.532 2.645 1.24 3.625 2.125v4.657zm8.47-5.563v4.14h2.968v3.204H81.11v8.61c0 .656.136 1.124.407 1.405.27.282.635.422 1.093.422.313 0 .586-.013.82-.039.235-.026.498-.07.79-.133l.39 3.297c-.51.157-1.015.274-1.515.352-.5.078-1.042.117-1.625.117-1.573 0-2.784-.432-3.633-1.297-.849-.864-1.273-2.234-1.273-4.11v-8.624h-2.485v-3.203h2.484v-4.14h4.547zM96.577 36a8.251 8.251 0 0 1-.328-.867 6.84 6.84 0 0 1-.219-.899 6.276 6.276 0 0 1-1.976 1.516c-.776.385-1.664.578-2.664.578-1.657 0-2.972-.45-3.946-1.351-.974-.901-1.46-2.128-1.46-3.68 0-1.583.635-2.807 1.906-3.672 1.27-.865 3.135-1.297 5.593-1.297h2.329v-1.656c0-.813-.235-1.443-.704-1.89-.468-.449-1.161-.673-2.078-.673-.52 0-.984.06-1.39.18-.407.12-.735.263-.985.43l-.297 1.812h-3.437l.016-3.75c.833-.562 1.789-1.036 2.867-1.422 1.078-.385 2.252-.578 3.523-.578 2.094 0 3.794.513 5.102 1.54 1.307 1.025 1.96 2.486 1.96 4.382v6.985c0 .26.003.505.008.734.006.229.024.448.055.656l1.39.188V36h-5.265zm-3.953-3.047c.688 0 1.312-.148 1.875-.445.563-.297 1-.67 1.313-1.117v-2.578h-2.329c-.968 0-1.703.226-2.203.68-.5.452-.75.997-.75 1.632 0 .573.185 1.02.555 1.344.37.323.883.484 1.539.484zm15.75-18v4.14h2.969v3.204h-2.969v8.61c0 .656.135 1.124.406 1.405.271.282.636.422 1.094.422.313 0 .586-.013.82-.039.235-.026.498-.07.79-.133l.39 3.297c-.51.157-1.016.274-1.516.352-.5.078-1.041.117-1.625.117-1.573 0-2.783-.432-3.632-1.297-.85-.864-1.274-2.234-1.274-4.11v-8.624h-2.484v-3.203h2.484v-4.14h4.547zm4.563 18.313l2.203-.47V22.314l-2.438-.47v-2.75h7v13.704l2.188.469V36h-8.954v-2.734zm6.765-18.22h-4.562v-3.421h4.562v3.422zm11.125 17.782c.813 0 1.464-.237 1.953-.71.49-.475.735-1.108.735-1.9h4.125l.047.095c.041 1.708-.6 3.138-1.922 4.289-1.323 1.15-2.97 1.726-4.938 1.726-2.52 0-4.463-.797-5.828-2.39-1.365-1.594-2.047-3.641-2.047-6.141v-.469c0-2.49.7-4.536 2.102-6.14 1.4-1.605 3.398-2.407 5.992-2.407 1.364 0 2.588.203 3.672.61 1.083.406 1.984.979 2.703 1.718l.062 4.516h-3.703l-.75-2.64a2.882 2.882 0 0 0-.844-.493 3.117 3.117 0 0 0-1.14-.195c-1.292 0-2.203.469-2.734 1.406-.532.938-.797 2.146-.797 3.625v.469c0 1.51.244 2.726.734 3.648.49.922 1.349 1.383 2.578 1.383zm19.14-19.578c2.605 0 4.66.67 6.165 2.008s2.258 3.09 2.258 5.258c0 2.177-.753 3.927-2.258 5.25s-3.56 1.984-6.164 1.984h-3.844v5.047l2.438.469V36h-9.422v-2.734l2.422-.47V16.47L139.14 16v-2.75h10.828zm-3.843 10.984h3.844c1.27 0 2.232-.346 2.883-1.039.65-.692.976-1.575.976-2.648 0-1.094-.325-1.998-.976-2.711-.651-.714-1.612-1.07-2.883-1.07h-3.844v7.468zM170.047 36a8.25 8.25 0 0 1-.328-.867 6.84 6.84 0 0 1-.219-.899 6.276 6.276 0 0 1-1.977 1.516c-.776.385-1.664.578-2.664.578-1.656 0-2.971-.45-3.945-1.351-.974-.901-1.46-2.128-1.46-3.68 0-1.583.635-2.807 1.905-3.672 1.271-.865 3.136-1.297 5.594-1.297h2.328v-1.656c0-.813-.234-1.443-.703-1.89-.469-.449-1.161-.673-2.078-.673-.52 0-.984.06-1.39.18-.407.12-.735.263-.985.43l-.297 1.812h-3.437l.015-3.75c.834-.562 1.79-1.036 2.867-1.422 1.079-.385 2.253-.578 3.524-.578 2.094 0 3.794.513 5.101 1.54 1.308 1.025 1.961 2.486 1.961 4.382v6.985c0 .26.003.505.008.734.005.229.024.448.055.656l1.39.188V36h-5.265zm-3.953-3.047c.687 0 1.312-.148 1.875-.445.562-.297 1-.67 1.312-1.117v-2.578h-2.328c-.969 0-1.703.226-2.203.68-.5.452-.75.997-.75 1.632 0 .573.185 1.02.555 1.344.37.323.882.484 1.539.484zm10.547-5.266c0-2.666.58-4.817 1.742-6.453 1.161-1.635 2.789-2.453 4.883-2.453.948 0 1.78.211 2.5.633.718.422 1.333 1.023 1.843 1.805l.328-2.125h3.97V35.5c0 2.23-.701 4.008-2.102 5.336-1.401 1.328-3.326 1.992-5.774 1.992-.854 0-1.76-.117-2.719-.351a12.625 12.625 0 0 1-2.656-.961l.844-3.203c.73.312 1.458.56 2.188.742.729.182 1.5.273 2.312.273 1.115 0 1.948-.338 2.5-1.016.552-.677.828-1.62.828-2.828v-1.109a5.104 5.104 0 0 1-1.766 1.453c-.677.333-1.453.5-2.328.5-2.073 0-3.69-.763-4.851-2.289-1.162-1.526-1.742-3.534-1.742-6.023v-.328zm4.562.329c0 1.479.25 2.643.75 3.492.5.849 1.313 1.273 2.438 1.273.698 0 1.289-.127 1.773-.383a2.925 2.925 0 0 0 1.164-1.117v-7.343a3.148 3.148 0 0 0-1.164-1.188c-.484-.281-1.065-.422-1.742-.422-1.115 0-1.93.495-2.445 1.485-.516.99-.774 2.28-.774 3.875v.328zm21.031 8.312c-2.437 0-4.385-.781-5.843-2.344-1.459-1.562-2.188-3.546-2.188-5.953v-.625c0-2.51.69-4.578 2.07-6.203s3.232-2.432 5.555-2.422c2.281 0 4.052.688 5.313 2.063 1.26 1.375 1.89 3.234 1.89 5.578v2.484h-10.094l-.03.094c.083 1.115.455 2.031 1.116 2.75.662.719 1.56 1.078 2.696 1.078 1.01 0 1.849-.101 2.515-.305.667-.203 1.396-.523 2.188-.96l1.234 2.812c-.698.552-1.601 1.016-2.71 1.39-1.11.376-2.347.563-3.712.563zm-.406-14.031c-.844 0-1.51.323-2 .969-.49.645-.792 1.494-.906 2.547l.047.078h5.594v-.407c0-.968-.227-1.742-.68-2.32-.453-.578-1.138-.867-2.055-.867z" fill="#071417" fill-rule="nonzero"/></g></svg>
